<?xml version="1.0" encoding="utf-8"?>
<!-- Generator: Adobe Illustrator 22.0.0, SVG Export Plug-In . SVG Version: 6.00 Build 0)  -->
<svg version="1.1" id="layer_1" xmlns="http://www.w3.org/2000/svg" xmlns:xlink="http://www.w3.org/1999/xlink" x="0px" y="0px"
	 viewBox="0 0 128 128" style="enable-background:new 0 0 128 128;" xml:space="preserve">
<style type="text/css">
	.st0{fill:#FFFFFF;}
	.st1{fill:url(#SVGID_1_);}
	.st2{fill:url(#SVGID_2_);}
	.st3{fill:#808080;}
	.st4{fill:url(#SVGID_3_);}
	.st5{fill:url(#SVGID_4_);}
	.st6{fill:#E1A8CC;}
</style>
<path class="st0" d="M101.8,46.9c3.6-4.1,5.8-9.3,5.8-15.1c0-12.7-10.5-23-23.4-23c-8.8,0-16.5,4.8-20.5,11.9
	c-4-7.1-11.7-11.9-20.5-11.9c-12.9,0-23.4,10.3-23.4,23c0,5.8,2.2,11.1,5.8,15.2C14.7,52.9,8,61.3,8,70.7c0,18,24.9,32.7,55.7,32.7
	c30.8,0,55.7-14.6,55.7-32.7C119.4,61.3,112.6,52.8,101.8,46.9"/>
<path d="M101.8,46.9l0.3,0.3c3.7-4.1,5.9-9.5,5.9-15.4c0-6.5-2.7-12.4-7-16.6c-4.3-4.2-10.3-6.9-16.9-6.9c-9,0-16.8,4.9-20.9,12.1
	l0.4,0.2l0.4-0.2C60,13.1,52.1,8.3,43.1,8.3c-6.6,0-12.6,2.6-16.9,6.9c-4.3,4.2-7,10.1-7,16.6c0,5.9,2.2,11.3,5.9,15.5l0.3-0.3
	l-0.2-0.4c-5.4,3-9.9,6.6-13,10.7c-3.1,4.1-4.8,8.7-4.8,13.5c0,4.6,1.6,9,4.5,13c4.3,6,11.4,11,20.4,14.5c9,3.5,19.7,5.6,31.3,5.6
	c15.5,0,29.5-3.7,39.6-9.6c5.1-3,9.2-6.5,12.1-10.5c2.9-4,4.5-8.4,4.5-13c0-4.8-1.7-9.4-4.8-13.5c-3.1-4.1-7.5-7.7-13-10.7
	L101.8,46.9l0.3,0.3L101.8,46.9l-0.2,0.4c5.4,3,9.7,6.5,12.7,10.5c3,4,4.6,8.3,4.6,12.9c0,4.4-1.5,8.6-4.3,12.4
	c-4.2,5.8-11.1,10.7-20,14.2c-8.8,3.5-19.5,5.5-31,5.5c-15.3,0-29.2-3.6-39.2-9.5c-5-2.9-9-6.4-11.8-10.3c-2.8-3.8-4.3-8-4.3-12.4
	c0-4.6,1.6-8.9,4.6-12.9c3-4,7.3-7.5,12.7-10.5l0.5-0.3l-0.4-0.4c-3.5-4-5.7-9.2-5.7-14.9c0-6.2,2.6-11.9,6.7-15.9
	c4.2-4.1,9.9-6.6,16.2-6.6c8.7,0,16.2,4.7,20.1,11.6l0.4,0.7l0.4-0.7c3.9-6.9,11.4-11.6,20.1-11.6c6.3,0,12.1,2.5,16.2,6.6
	c4.2,4.1,6.7,9.7,6.7,15.9c0,5.7-2.1,10.9-5.7,14.8L101,47l0.5,0.3L101.8,46.9z"/>
<path class="st0" d="M74.9,117.9c1.7,9.6,10.3-3.2,11.2-2.7c2,1.3,3.8,5.4,6.5,4.1c1.6-0.8,2.1-3.8,2.4-5.3
	c0.9-4.1,1.3-8.9,0.9-13.1c-0.8-7-4.5-13.6-12.3-13.3c-5.1,0.2-9.2,3.7-9,7.9c0.2,6.8-0.4,14.1,0.1,20.8
	C74.7,116.9,74.8,117.4,74.9,117.9z"/>
<path d="M74.9,117.9l-0.5,0.1c0.2,1.4,0.6,2.3,1.2,3c0.5,0.7,1.2,1,2,1c0.9,0,1.9-0.4,2.8-1.1c1.4-0.9,2.7-2.3,3.8-3.4
	c0.5-0.6,1-1,1.4-1.4c0.2-0.2,0.3-0.3,0.4-0.4l0.1-0.1l0,0l-0.1-0.2v0.2l0.1,0l-0.1-0.2v0.2v-0.3l-0.2,0.3l0.2,0.1v-0.3l-0.2,0.3
	l0,0c0.8,0.5,1.6,1.6,2.5,2.5c0.5,0.5,0.9,0.9,1.5,1.3c0.5,0.4,1.1,0.6,1.8,0.6c0.4,0,0.8-0.1,1.2-0.3l0,0l0,0
	c0.5-0.2,0.9-0.6,1.2-1.1c0.5-0.7,0.8-1.5,1-2.3c0.2-0.8,0.4-1.6,0.5-2.1c0.7-3,1.1-6.3,1.1-9.5c0-1.3-0.1-2.5-0.2-3.7
	c-0.4-3.5-1.5-6.9-3.5-9.4c-2-2.6-4.9-4.3-8.8-4.3l0,0c-0.2,0-0.3,0-0.5,0l0,0c-2.6,0.1-5,1-6.7,2.5c-1.7,1.4-2.8,3.4-2.8,5.6l0,0.2
	c0,1.1,0.1,2.2,0.1,3.3c0,3.6-0.2,7.4-0.2,11c0,2.2,0.1,4.4,0.2,6.5v0l0,0c0,0.6,0.1,1.1,0.2,1.6v0l0,0L74.9,117.9l0.5-0.1
	c-0.1-0.4-0.1-0.9-0.2-1.5v0l0,0c-0.2-2.1-0.2-4.2-0.2-6.4c0-3.6,0.2-7.4,0.2-11c0-1.1,0-2.2-0.1-3.3l0-0.2c0-1.9,0.9-3.6,2.5-4.9
	c1.5-1.3,3.7-2.2,6.1-2.3l0,0c0.2,0,0.3,0,0.5,0c3.6,0,6.2,1.5,8.1,3.9c1.9,2.4,2.9,5.6,3.3,9c0.1,1.2,0.2,2.4,0.2,3.6
	c0,3.1-0.4,6.4-1.1,9.3c-0.2,0.7-0.4,1.9-0.7,2.8c-0.2,0.5-0.4,1-0.6,1.3c-0.2,0.4-0.5,0.6-0.8,0.8l0,0l0,0
	c-0.3,0.1-0.6,0.2-0.8,0.2c-0.4,0-0.8-0.2-1.3-0.4c-0.6-0.4-1.3-1.2-1.9-1.9c-0.7-0.7-1.3-1.5-2-2l0,0l0,0c-0.1-0.1-0.2-0.1-0.3-0.1
	c-0.2,0-0.3,0.1-0.4,0.1c-0.2,0.1-0.4,0.3-0.7,0.5c-0.8,0.8-2.1,2.2-3.5,3.4c-0.7,0.6-1.4,1.2-2.1,1.6c-0.7,0.4-1.3,0.6-1.8,0.6
	c-0.5,0-0.9-0.2-1.2-0.6c-0.4-0.5-0.7-1.3-1-2.6l0,0l0,0L74.9,117.9z"/>
<path d="M93.4,110.3c1.5-0.3,2.5-0.5,2.5-0.6c0.5,2.5-0.4,7.6-2.3,9.3c-2.8,2.6-5.6-1-7.6-3c-2.2,1.4-2.5,4.3-5.2,5.4
	c-2.3,1-5.1,0.9-6.1-1.7c-1.1-2.8-0.3-6.5-0.4-9.3C80.8,111.1,86.9,111.4,93.4,110.3z"/>
<path class="st0" d="M63.1,117.4c-1.7,9.6-10.3-3.2-11.2-2.7c-2,1.3-3.8,5.4-6.5,4.1c-1.6-0.8-2.1-3.8-2.4-5.3
	c-0.9-4.1-1.3-8.9-0.9-13.1c0.8-7,4.5-13.6,12.3-13.3c5.1,0.2,9.2,3.7,9,7.9c-0.2,6.8,0.4,14.1-0.1,20.8
	C63.3,116.5,63.2,117,63.1,117.4z"/>
<path d="M63.1,117.4l-0.5-0.1c-0.2,1.3-0.6,2.1-1,2.6c-0.4,0.5-0.8,0.6-1.2,0.6c-0.6,0-1.4-0.3-2.2-0.9c-1.3-0.8-2.6-2.2-3.6-3.2
	c-0.5-0.5-1-1-1.4-1.4c-0.2-0.2-0.4-0.3-0.5-0.5c-0.1-0.1-0.2-0.1-0.3-0.2c-0.1,0-0.2-0.1-0.3-0.1c-0.1,0-0.2,0-0.3,0.1
	c-1,0.6-1.8,1.8-2.7,2.7c-0.4,0.5-0.9,0.9-1.3,1.2c-0.4,0.3-0.8,0.4-1.3,0.4c-0.3,0-0.5-0.1-0.8-0.2c-0.3-0.1-0.6-0.4-0.8-0.8
	c-0.4-0.6-0.7-1.3-0.9-2.1c-0.2-0.8-0.4-1.5-0.5-2.1c-0.7-2.9-1.1-6.2-1.1-9.3c0-1.2,0.1-2.5,0.2-3.6c0.4-3.4,1.4-6.6,3.3-9
	c1.9-2.4,4.5-3.9,8.1-3.9c0.1,0,0.3,0,0.5,0c2.4,0.1,4.6,0.9,6.1,2.3c1.5,1.3,2.5,3,2.5,4.9l0,0.2c0,1.1-0.1,2.2-0.1,3.3
	c0,3.7,0.2,7.4,0.2,11.1c0,2.2-0.1,4.3-0.2,6.4v0l0,0c0,0.6-0.1,1.1-0.2,1.5v0l0,0L63.1,117.4l0.5,0.1c0.1-0.5,0.2-1,0.2-1.6l0,0
	l0,0c0.2-2.1,0.2-4.3,0.2-6.5c0-3.7-0.2-7.4-0.2-11.1c0-1.1,0-2.2,0.1-3.3l0-0.2c0-2.2-1.1-4.2-2.8-5.6c-1.7-1.5-4.1-2.4-6.7-2.5
	c-0.2,0-0.3,0-0.5,0c-3.9,0-6.8,1.7-8.8,4.3c-2,2.6-3.1,6-3.5,9.4c-0.1,1.2-0.2,2.5-0.2,3.7c0,3.2,0.4,6.5,1.1,9.5
	c0.2,0.7,0.4,1.9,0.8,3c0.2,0.5,0.4,1.1,0.7,1.5c0.3,0.5,0.7,0.9,1.2,1.1c0.4,0.2,0.8,0.3,1.2,0.3c0.7,0,1.3-0.2,1.8-0.6
	c0.8-0.5,1.5-1.3,2.1-2c0.6-0.7,1.3-1.4,1.8-1.8l-0.2-0.3v0.3l0.2-0.1l-0.2-0.3v0.3V115l-0.1,0.2l0.1,0V115l-0.1,0.2
	c0,0,0.2,0.1,0.4,0.3c0.7,0.6,2.1,2.1,3.5,3.5c0.7,0.7,1.5,1.3,2.3,1.8c0.8,0.5,1.6,0.8,2.4,0.8c0.7,0,1.4-0.3,2-1
	c0.5-0.7,0.9-1.6,1.2-3v0L63.1,117.4z"/>
<path d="M44.6,109.8c-1.5-0.3-2.5-0.5-2.5-0.6c-0.5,2.5,0.4,7.6,2.3,9.3c2.8,2.6,5.6-1,7.6-3c2.2,1.4,2.5,4.3,5.2,5.4
	c2.3,1,5.1,0.9,6.1-1.7c1.1-2.8,0.3-6.5,0.4-9.3C57.2,110.7,51.1,110.9,44.6,109.8z"/>
<path class="st0" d="M103.4,87.8c0,7.4-17.1,13.4-38.3,13.4c-21.1,0-38.3-6-38.3-13.4c0-7.4,17.1-13.4,38.3-13.4
	C86.2,74.4,103.4,80.4,103.4,87.8z"/>
<path d="M32.7,23.9c5.1-3.5,16.2,7.6,20,9.5c-5.3,2.5-7.2,7.4-13.8,5.3c-5.2-1.7-10.5-7-7.7-12.8C31.5,25,32,24.4,32.7,23.9z"/>
<path d="M95.5,24.4c-5.1-3.5-16.2,7.6-20,9.5c5.3,2.5,7.2,7.4,13.8,5.3c5.3-1.7,10.5-7,7.7-12.8C96.6,25.4,96.1,24.8,95.5,24.4"/>
<path d="M92,58.4c-4.1,7-9.3,13.3-14.6,19.4c-17.5,20.5-31.8-4.5-41.1-18.9c-5-7.8-7-17.8,2.8-22.7c6.2-3.1,12.5-3.2,19.1-2.8
	c3.5,0.2,7,0.1,10.6,0c3.6-0.1,7.2-0.2,10.8,0c9.7,0.6,15.6,8.4,14.9,17.8C94.2,53.9,93.3,56.2,92,58.4"/>
<radialGradient id="SVGID_1_" cx="-213.0125" cy="344.7371" r="0.9306" gradientTransform="matrix(-10.0051 0 0 -8.4179 -2051.0259 2947.2737)" gradientUnits="userSpaceOnUse">
	<stop  offset="0" style="stop-color:#D39557"/>
	<stop  offset="1" style="stop-color:#8A5C28"/>
</radialGradient>
<path class="st1" d="M79.2,41.7c0.7-1.1,2.2-1.8,3.9-1.8c2.4,0,4.4,1.6,4.4,3.5c0,1.7-1.4,3-3.4,3.4c-0.7,1.4-2.3,2.4-4.3,2.4
	c-2.5,0-4.6-1.7-4.6-3.7C75.3,43.6,77,42,79.2,41.7 M80,38.3c-2.6,0-4.9,0.8-6.5,2.1c-1.7,1.3-2.6,3-2.6,5c0,1.9,1,3.7,2.6,5
	c1.6,1.3,4,2.1,6.5,2.1c2.6,0,4.9-0.8,6.5-2.1c1.7-1.3,2.7-3,2.7-5c0-1.9-1-3.7-2.7-5C84.9,39.1,82.6,38.3,80,38.3"/>
<path d="M70.4,45.3h-0.5c0,2.3,1.2,4.3,3,5.7c1.8,1.4,4.3,2.3,7.1,2.3c2.8,0,5.3-0.9,7.1-2.3c1.8-1.4,3-3.4,3-5.7
	c0-2.2-1.2-4.3-3-5.7c-1.8-1.4-4.3-2.3-7.1-2.3c-2.8,0-5.3,0.9-7.1,2.3c-1.8,1.4-3,3.4-3,5.7H70.4h0.5c0-1.9,1-3.7,2.6-5
	c1.6-1.3,4-2.1,6.5-2.1c2.6,0,4.9,0.8,6.5,2.1c1.7,1.3,2.7,3,2.7,5c0,1.9-1,3.7-2.7,5c-1.6,1.3-4,2.1-6.5,2.1
	c-2.6,0-4.9-0.8-6.5-2.1c-1.7-1.3-2.6-3-2.6-5H70.4"/>
<path d="M75.3,45.4c0,2.1,2,3.7,4.6,3.7c2.5,0,4.6-1.7,4.6-3.7c0-2.1-2.1-3.7-4.6-3.7C77.4,41.7,75.3,43.4,75.3,45.4"/>
<radialGradient id="SVGID_2_" cx="-213.0117" cy="344.7366" r="0.9304" gradientTransform="matrix(-10.0051 0 0 -8.4179 -2051.0259 2947.2737)" gradientUnits="userSpaceOnUse">
	<stop  offset="0" style="stop-color:#E9CAAD"/>
	<stop  offset="1" style="stop-color:#C5AE93"/>
</radialGradient>
<path class="st2" d="M83.1,39.9c-1.7,0-3.1,0.7-3.9,1.8c0.2,0,0.4,0,0.7,0c2.5,0,4.6,1.7,4.6,3.7c0,0.5-0.1,0.9-0.3,1.4
	c1.9-0.4,3.4-1.8,3.4-3.4C87.5,41.5,85.5,39.9,83.1,39.9"/>
<path class="st3" d="M79.9,41.7c-0.2,0-0.5,0-0.7,0c-0.3,0.5-0.5,1.1-0.5,1.7c0,1.9,2,3.5,4.4,3.5c0.4,0,0.7,0,1-0.1
	c0.2-0.4,0.3-0.9,0.3-1.4C84.5,43.4,82.4,41.7,79.9,41.7"/>
<radialGradient id="SVGID_3_" cx="-213.275" cy="344.7496" r="0.9299" gradientTransform="matrix(-10.0049 0 0 -8.4177 -2088.4707 2947.4146)" gradientUnits="userSpaceOnUse">
	<stop  offset="0" style="stop-color:#D39557"/>
	<stop  offset="1" style="stop-color:#8A5C28"/>
</radialGradient>
<path class="st4" d="M44.5,41.8c0.8-1.1,2.2-1.8,3.9-1.8c2.4,0,4.4,1.6,4.4,3.5c0,1.7-1.4,3-3.4,3.4c-0.7,1.4-2.3,2.4-4.3,2.4
	c-2.5,0-4.6-1.7-4.6-3.7C40.6,43.6,42.3,42.1,44.5,41.8 M45.3,38.3c-2.6,0-4.9,0.8-6.5,2.1c-1.7,1.3-2.6,3-2.6,5c0,1.9,1,3.7,2.6,5
	c1.6,1.3,4,2.1,6.5,2.1s4.9-0.8,6.5-2.1c1.7-1.3,2.6-3,2.7-5c0-1.9-1-3.7-2.7-5C50.2,39.1,47.9,38.3,45.3,38.3"/>
<path d="M35.7,45.4h-0.5c0,2.2,1.2,4.3,3,5.7c1.8,1.4,4.3,2.3,7.1,2.3c2.8,0,5.3-0.9,7.1-2.3c1.8-1.4,3-3.4,3-5.7
	c0-2.3-1.2-4.3-3-5.7c-1.8-1.4-4.3-2.3-7.1-2.3c-2.8,0-5.3,0.9-7.1,2.3c-1.8,1.4-3,3.4-3,5.7H35.7h0.5c0-1.9,1-3.7,2.6-5
	c1.6-1.3,4-2.1,6.5-2.1s4.9,0.8,6.5,2.1c1.7,1.3,2.6,3,2.7,5c0,1.9-1,3.7-2.7,5c-1.6,1.3-4,2.1-6.5,2.1s-4.9-0.8-6.5-2.1
	c-1.7-1.3-2.6-3-2.6-5H35.7"/>
<path d="M40.6,45.5c0,2.1,2,3.7,4.6,3.7c2.5,0,4.6-1.7,4.6-3.7c0-2.1-2.1-3.7-4.6-3.7C42.6,41.8,40.6,43.4,40.6,45.5"/>
<radialGradient id="SVGID_4_" cx="-213.2744" cy="344.7492" r="0.929" gradientTransform="matrix(-10.0049 0 0 -8.4177 -2088.4707 2947.4146)" gradientUnits="userSpaceOnUse">
	<stop  offset="0" style="stop-color:#E9CAAD"/>
	<stop  offset="1" style="stop-color:#C5AE93"/>
</radialGradient>
<path class="st5" d="M48.4,40c-1.7,0-3.1,0.7-3.9,1.8c0.2,0,0.4,0,0.7,0c2.5,0,4.6,1.7,4.6,3.7c0,0.5-0.1,0.9-0.3,1.4
	c1.9-0.4,3.4-1.8,3.4-3.4C52.8,41.5,50.8,40,48.4,40"/>
<path class="st3" d="M45.2,41.8c-0.2,0-0.5,0-0.7,0c-0.3,0.5-0.5,1.1-0.5,1.7c0,1.9,2,3.5,4.4,3.5c0.4,0,0.7,0,1-0.1
	c0.2-0.4,0.3-0.9,0.3-1.4C49.7,43.4,47.7,41.8,45.2,41.8"/>
<path class="st0" d="M70,36.7c2.9,3.9,9.4,5.8,12.2,1c1.6-2.8,0.8-6.7-2.1-8c-3.2-1.4-4.9,1.1-7.2,2.3c3.8-2,4.8-9.2,0.5-10.8
	c-6-2.3-9.6,5.7-9.4,10.3c-0.2-3.4,0.6-7.8-3.2-9.7c-3.7-1.9-9.6,1.7-8.6,6.1c0.6,2.8,4.2,3.4,6.5,4.5c-3-1.5-6.2-4.1-9.9-3
	c-3.7,1.2-5.7,6.9-2.4,9.5c3.6,2.8,10.8-0.6,12.9-3.7c-2.2,4.9-1.5,9.7,4.7,9.8c5.2,0.1,9.8-7,4.8-10.8C69,35.2,69.5,36,70,36.7z"/>
<path d="M71.5,39.1c1.2,1.6,4.2,2,6.1,1.9c2.1-0.1,3.8-1.2,4.9-3.1c0.9-1.6,1.1-3.6,0.6-5.3c-0.5-1.5-1.5-2.6-2.9-3.2
	c-1.6-0.7-3.4-0.2-4.7,0.8c1.1-0.9,1.2-3.5,1.1-4.8c-0.1-2.2-1.3-3.9-3.1-4.6c-3.5-1.3-8.1,1.3-9.1,4.8c0.3-1-2-3.1-2.6-3.6
	c-1.3-1.2-3-1.6-4.8-1.5c-3.2,0.2-7.1,5.2-4.5,8c-0.3-0.3-2.5-0.2-2.9-0.1c-0.8,0.2-1.6,0.7-2.2,1.2c-1.4,1.1-2.5,2.8-2.9,4.5
	c-0.4,2.1,0.2,3.9,1.7,5.1c1.7,1.3,4.5,1.5,6.5,1.1c2.3-0.4,4.1-1.9,5.5-3.7c-1.4,1.8-0.9,4.3,0.2,6c1.2,2,3.3,2.7,5.6,2.8
	c1.8,0,3.6-0.8,4.9-2c0.5-0.5,1.3-1,1.7-1.6C71.1,41.1,71.1,40,71.5,39.1z M70.1,36.6c0.2,2.1,0.3,4-1.1,5.7
	c-2.3,2.7-6.4,3.2-9.3,1.1c-2.8-2-0.7-6,0-8.6c-0.9,0.7-1.6,1.8-2.5,2.5c-2,1.5-3.5,1.8-5.9,2.2c-1.3,0.2-3.1,0.2-4.5-0.9
	c-1.2-1-1.7-2.5-1.4-4.3c0.6-3.3,4.8-6.3,8.1-4.8c-0.7-0.3-0.9-2.4-0.8-3c0.1-1.4,1-2.6,2.1-3.5c1.8-1.4,4.3-1.8,6-0.9
	c1.1,0.6,1.9,1.5,2.4,2.7c0.5,1.3,1.1,2.6,1.3,4c0.2-2.2,2.3-5.3,4.1-6.6c1.5-1.1,3.1-1.3,4.8-0.6c2.1,0.8,2.5,2.7,2.6,3.8
	c0.1,2.3-0.6,4-1.2,6.2l0,0c1.2-1.6,3.5-2.4,5.4-1.6c1.1,0.5,2,1.5,2.4,2.7c0.5,1.5,0.3,3.3-0.5,4.7c-0.9,1.6-2.4,2.6-4.2,2.7
	c-1.6,0.1-3.3-0.4-4.6-1.3C72.3,38.4,70.2,37.5,70.1,36.6z"/>
<path class="st6" d="M50.2,73.1c1.1,1.8,2,3.9,4.1,4.9c2.4,1.2,5.8,1.7,7.9-0.5c0.7-0.8,1.1-1.8,1.3-2.7c-0.6,3.3,3.9,4.6,6.3,4.1
	c2.8-0.6,4.5-3.3,6-5.5c-2.5,3.8-9.5,7.1-11.4,1c-0.3-1.1-1.2-3.5-1.1-4.5c-0.5,4.6-1.8,9.5-7.6,7.7C53.4,76.9,51.5,75.2,50.2,73.1z
	"/>
<path class="st6" d="M66,68.7c-1.4,1.4-3,3.3-2.3,5c-0.4-1-0.3-2.3-1.1-3.3c-1.2-1.5-3.1-2.8-4.5-4.2c-1.5-1.5-3.3-3.4-3.1-5.7
	c0.3-3.2,3.2-5.3,6.2-3.7c0.8,0.4,2.7,2.5,2.5,3.6c0.6-2.5,2.2-4.5,5-4.3c2.9,0.2,3.8,3.4,3,5.7c-0.4,1.3-1.4,2.3-2.4,3.2
	c-0.9,0.8-1.6,1.7-2.5,2.6C66.7,67.9,66.4,68.3,66,68.7z"/>
</svg>
