<?xml version="1.0" encoding="utf-8"?>
<!-- Generator: Adobe Illustrator 22.0.0, SVG Export Plug-In . SVG Version: 6.00 Build 0)  -->
<svg version="1.1" id="图层_1" xmlns="http://www.w3.org/2000/svg" xmlns:xlink="http://www.w3.org/1999/xlink" x="0px" y="0px"
	 viewBox="0 0 400 128" style="enable-background:new 0 0 400 128;" xml:space="preserve">
<style type="text/css">
	.st0{fill-rule:evenodd;clip-rule:evenodd;fill:url(#SVGID_1_);}
	.st1{fill-rule:evenodd;clip-rule:evenodd;fill:url(#SVGID_2_);}
</style>
<linearGradient id="SVGID_1_" gradientUnits="userSpaceOnUse" x1="89.8881" y1="87.591" x2="85.7399" y2="28.27">
	<stop  offset="0" style="stop-color:#94C23E"/>
	<stop  offset="1" style="stop-color:#C2D243"/>
</linearGradient>
<path class="st0" d="M113.9,18.1c4.9,4.5,9.1,9.8,12.3,16.1c14.7,28.4,3.3,63.4-25.3,78.3c-17.7,9.1-37.8,8.4-54-0.1
	c12.9,0.9,25.9-5.3,35.8-12.9c6.4-4.9,12.2-10.9,17.1-17.3c4.9-6.4,9-13.5,12.1-21c2.9-7,4.9-14.5,5.4-22.1
	c0.4-6.4-0.1-13.1-2.5-19.1C114.5,19.4,114.2,18.7,113.9,18.1z"/>
<radialGradient id="SVGID_2_" cx="68.5536" cy="56.48" r="63.8798" gradientUnits="userSpaceOnUse">
	<stop  offset="0" style="stop-color:#FFCA02"/>
	<stop  offset="1" style="stop-color:#F4811F"/>
</radialGradient>
<path class="st1" d="M49.6,25.5c5.9-5.8,13.6-9.7,13.9-5.7c1,8.9,1.7,18,2.8,27.3c0.2,2.6-1.6,4.6-3.6,3.8
	c-3.5-1.7-7.1-3.1-10.6-4.8c-3.4-1.7-6.9-3.3-10.2-5C38.8,39.4,43.7,31.3,49.6,25.5L49.6,25.5z M88.2,85.9c-6.5,6.7-15.1,11-15.5,6
	c-1.3-10.5-2.5-20.7-3.6-30.7c-0.2-2.7,2.1-5,4.1-4.1c3.7,1.8,7.4,3.6,11.2,5.5c3.8,1.9,7.7,3.7,11.6,5.6
	C99.6,70.2,94.7,79.3,88.2,85.9L88.2,85.9z M28.5,59.6c-2.4,7.8-2.1,15.5,2.6,13.3c9.8-5,19.4-11.2,29.3-16.3
	c2.6-1.4,3.5-3.2,1.6-4.1c-3.8-1.3-7.6-2.6-11.3-3.9c-3.7-1.3-7.4-2.5-11-3.8C36.4,43.5,30.9,51.9,28.5,59.6L28.5,59.6z M109.3,48.4
	c1.8-7.9,0.7-15.5-4.2-13.2c-10,5.1-19.4,10.4-29.4,15.5c-2.6,1.4-3.8,4.2-1.8,5c3.9,1.4,7.9,2.7,11.9,4.1c4,1.4,8.2,2.8,12.3,4.2
	C102,65.7,107.4,56.5,109.3,48.4L109.3,48.4z M29.3,92.8c-2.8-5.3-2.7-13.9,1.8-16.5c9.8-5.8,19.6-11.7,29.4-17.5
	c2.6-1.5,3.5,0,1.7,3c-3.4,5.4-6.5,11.2-10,16.8c-3.5,5.6-7,11.2-10.6,16.9C38.1,100.9,32.2,98.2,29.3,92.8L29.3,92.8z M105.1,16.8
	c3.4,4.6,4.1,12.5-0.4,15.1C94.8,37.7,85,43.1,75.2,49c-2.6,1.5-3.8,0.1-2.1-2.7c3.3-5.3,6.6-10.5,9.9-15.7
	c3.2-5.1,6.4-10.2,9.6-15.3C95.7,10.4,101.8,12.3,105.1,16.8L105.1,16.8z M54,104.9c6.9-0.7,15.1-5.4,15.1-10.9
	c-0.4-11-0.8-21.6-1.2-32c-0.2-2.7-1.9-2.3-3.6,0.6c-3.1,5.6-7,11.2-10.2,16.9c-3.2,5.7-6.5,11.5-9.7,17.3
	C41.2,102.1,47.2,105.6,54,104.9L54,104.9z M80.4,8.2c6.3-1,12.2,1.4,9.4,6.1c-2.9,5.2-5.8,10.4-8.7,15.6c-3,5.3-6.4,10.2-9.4,15.5
	c-1.7,2.9-3.7,3.7-3.8,1.1c-0.4-9.7-0.7-19.3-1.1-28.5C66.8,13.5,74.1,9.3,80.4,8.2z"/>
<g>
	<path d="M205.4,81.8c0.9,0.3,1.3,0.7,1.2,1.1c-0.1,0.4-0.6,0.6-1.3,0.5c-0.4,0-0.9,0-1.6-0.1c-0.7-0.1-1.5-0.1-2.3-0.2
		c-0.8-0.1-1.5-0.2-2.2-0.3c-0.7-0.1-1.2-0.2-1.5-0.4c-1.3-0.5-3-1.4-5.1-2.8c-2.1-1.4-4.8-3.3-8-5.6c-0.1-0.1-0.1-0.1-0.2-0.1
		c-1.2,1.8-2.7,3.1-4.5,3.9c-1.7,0.9-3.6,1.3-5.6,1.3c-1.4,0-2.4-0.1-3-0.4c-0.6-0.3-1.1-0.5-1.4-0.6c-0.3,0-0.5-0.2-0.6-0.5
		c-0.1-0.3,0.2-0.4,0.7-0.2c0.5,0.2,1.2,0.2,2.1,0.1c0.8-0.1,1.5-0.1,2.1-0.1c1.7,0,3.3-0.5,4.7-1.3c1.5-0.8,2.8-1.9,3.9-3.4
		c-2-1.3-4.1-2.3-6.2-2.9c-2.2-0.6-4.8-0.8-7.8-0.5c-0.1,1.6-0.2,3.3-0.3,4.9c-0.1,1.6-0.2,3.2-0.2,4.7c0,1.5-0.1,2.9-0.1,4.1
		s0,2.3,0.1,3.2c0,0.6,0,1.1,0,1.3c0,0.3-0.1,0.4-0.2,0.4c-0.1,0-0.2-0.1-0.3-0.2c-0.1-0.2-0.3-0.4-0.4-0.6
		c-0.2-0.4-0.4-0.9-0.6-1.5c-0.2-0.6-0.3-1.5-0.4-2.8c0-0.4,0-1.1,0-2.2c0-1.1,0.1-2.4,0.1-4c0.1-1.6,0.1-3.3,0.3-5.2
		c0.1-1.9,0.3-3.8,0.4-5.9c-0.7,0.7-1.5,1.6-2.3,2.6c-0.8,1-1.7,2-2.5,3c-0.8,1-1.6,1.9-2.3,2.8c-0.7,0.9-1.2,1.6-1.6,2.1
		c-0.9,1.1-1.4,1.7-1.8,1.8c-0.3,0.1-0.6-0.2-0.9-0.9c-0.5-0.9-0.4-1.8,0.4-2.8c0.2-0.2,0.4-0.6,0.6-1c0.2-0.4,0.4-1,0.6-1.7
		c0.2-0.7,0.4-1.6,0.5-2.6c0.2-1,0.4-2.2,0.6-3.7c0.2-1.6,0.2-3.1,0-4.5c-0.2-1.3-0.5-2.4-0.9-3.2c-0.4-0.8-0.4-1.2-0.1-1.3
		c0.3-0.1,0.8,0.1,1.5,0.7c1.2,1,1.9,1.9,2.2,2.5c0.2,0.7,0.2,1.3-0.1,1.9c-0.2,0.4-0.4,0.9-0.5,1.5c-0.1,0.7-0.3,1.6-0.4,2.7
		c-0.1,0.7-0.2,1.6-0.4,2.9c-0.2,1.2-0.4,2.5-0.6,3.7c1.6-1.6,3.2-3.1,4.6-4.7c1.5-1.6,2.6-2.9,3.5-4.1c0.2-2,0.4-4,0.6-6
		c0.2-1.9,0.4-3.8,0.6-5.4c0.1-1,0-2-0.4-2.9c-0.4-0.9-0.8-1.7-1.5-2.4c-0.7-0.8-0.8-1.1-0.3-1.1c0.5,0,1.5,0.7,3.2,2.1
		c0.4,0.3,0.6,0.6,0.8,0.9c0.2,0.3,0.3,0.6,0.4,0.9c0.1,0.3,0,0.7,0,1.2c-0.1,0.5-0.2,1.1-0.4,1.8c-0.2,0.9-0.4,1.9-0.5,3
		c-0.2,1.1-0.3,2.1-0.4,3.2c-0.2,1.4-0.3,2.9-0.4,4.5c-0.1,1.6-0.2,3.3-0.4,5.1c1.5-0.1,2.9-0.2,4.1-0.1c1.3,0,2.5,0.2,3.7,0.4
		c1.2,0.3,2.4,0.6,3.5,1.1c1.1,0.5,2.3,1.2,3.5,2c0.7-1.2,1.3-2.5,1.7-4c0.4-1.5,0.6-3,0.6-4.6c0-1,0-2-0.1-3
		c-0.1-1-0.3-1.7-0.6-2.2c-0.2-0.2-0.3-0.4-0.4-0.6c-1.3,0.6-2.4,1.2-3.4,1.8c-1,0.5-1.7,1-2.2,1.5c-0.8,0.7-1.4,1.1-2,1.3
		c-0.5,0.2-0.8,0.1-0.9-0.2c-0.1-0.3-0.2-0.7-0.2-1.2c0-0.5,0.3-0.9,0.8-1.3c0.5-0.3,0.9-0.6,1.2-0.8c0.3-0.3,0.6-0.7,0.9-1.1
		c0.3-0.5,0.6-1.1,0.9-1.8c0.3-0.8,0.8-1.7,1.3-3c0.7-1.7,1.2-3,1.6-4.1c0.4-1,0.6-1.9,0.7-2.6c0.1-0.7,0-1.3-0.1-1.7
		c-0.2-0.5-0.5-1-0.9-1.6c-1-1.2-2.2-1.1-3.5,0.2c-0.4,0.4-0.8,0.6-1,0.5c-0.2-0.1,0-0.5,0.5-1.1c1.5-1.8,3.3-1.9,5.4-0.3
		c0.5,0.4,0.8,0.9,1.1,1.5c0.3,0.6,0.4,1.2,0.4,1.9c0,0.7-0.1,1.4-0.3,2.1c-0.2,0.7-0.5,1.5-0.8,2.2c-0.5,1.1-1.1,2.2-1.7,3.5
		c-0.6,1.3-1.2,2.8-1.8,4.5c1.1-0.4,2.3-1,3.7-1.6c1.4-0.6,2.7-1.2,3.9-1.7c1-0.4,2-0.8,3.1-1.1c1-0.4,1.9-0.5,2.6-0.4
		c0.9,0.1,1.5,0.2,1.7,0.4c0.2,0.2,0.3,0.4,0.2,0.6c-0.2,0.4-0.5,0.7-1,0.9c-0.4,0.2-1.1,0.3-1.9,0.4c-1.1,0.1-2.2,0.4-3.3,0.7
		c-1.1,0.4-2.2,0.7-3.3,1.2l0.4,0.5c0.2,0.2,0.3,0.6,0.4,1.1c0.1,0.5,0.2,1,0.3,1.6c0.1,0.6,0.1,1.2,0.2,1.8c0,0.6,0,1.2,0,1.8
		c-0.1,2-0.4,3.8-0.9,5.3c-0.5,1.6-1.1,3-1.8,4.2c1.6,1.2,3,2.2,4.2,3c1.2,0.8,2.4,1.5,3.4,2.1c1,0.6,1.9,1.1,2.8,1.4
		c0.8,0.4,1.6,0.6,2.4,0.8c1.1,0.3,2.4,0.7,3.8,1C203.4,81.2,204.5,81.5,205.4,81.8z"/>
	<path d="M216.7,67.5c-0.9-0.5-1.5-0.7-2.1-0.6c-0.5,0.1-1.3,0.7-2.2,1.6c-0.3,0.3-0.6,0.5-0.7,0.6c-0.2,0.1-0.3,0.1-0.4,0
		c-0.1-0.1-0.1-0.2-0.1-0.4c0-0.2,0.1-0.3,0.2-0.5c0.6-0.9,1.1-1.5,1.6-2c0.5-0.5,0.9-0.9,1.3-1.1c0.4-0.2,0.8-0.3,1.1-0.3
		c0.3,0,0.7,0.2,1,0.4c0.7,0.4,1.2,0.8,1.7,1.1c0.5,0.3,0.9,0.6,1.2,0.8c0.5,0.5,0.9,1.1,1,1.8c0.1,0.6,0,1.2-0.3,1.8
		c-0.1,0.2-0.3,0.6-0.6,1.1c-0.3,0.5-0.6,1-0.9,1.6c-0.3,0.6-0.7,1.2-1,1.8c-0.4,0.6-0.7,1.1-0.9,1.5c-0.3,0.5-0.5,0.7-0.6,0.6
		c-0.1-0.1-0.2-0.5-0.4-1.1c-0.1-0.6,0-1.2,0.2-1.7c0.2-0.6,0.5-1.1,0.9-1.7c0.3-0.4,0.5-0.7,0.6-0.9c0.2-0.2,0.3-0.5,0.4-0.7
		c0.1-0.2,0.2-0.4,0.3-0.6s0.2-0.5,0.3-0.8c0.1-0.3,0.1-0.6-0.1-1C217.7,68.3,217.3,68,216.7,67.5z M222.3,56.9
		c1,0.4,1.8,0.8,2.2,1.3c0.5,0.5,0.6,1.2,0.5,2c-0.2,1.1-0.3,2.1-0.4,3c-0.1,0.9-0.2,1.9-0.3,2.9s-0.1,2.2-0.2,3.5
		c-0.1,1.3-0.1,2.9-0.2,4.9c-0.1,1.7-0.3,3.2-0.7,4.5c-0.4,1.3-1,2.6-1.9,4c-0.4,0.6-0.8,1-1.3,1.1c-0.4,0.1-0.9-0.1-1.3-0.8
		c-0.7-1.1-1.4-2-2-2.8c-0.6-0.8-1.2-1.5-2-2.3c-1-1.1-0.9-1.2,0.3-0.4c0.3,0.2,0.8,0.6,1.5,1.1c0.7,0.5,1.4,1,2.1,1.6
		c0.5,0.4,1,0.6,1.2,0.5c0.3-0.1,0.6-0.5,0.9-1.2c0.4-1.2,0.7-2.3,0.9-3.3c0.2-1,0.3-1.9,0.4-2.7c0-1.6,0.1-2.9,0.1-4.1
		c0.1-1.1,0.1-2.2,0.2-3.2c0.1-1,0.2-2,0.3-3c0.1-1,0.3-2.2,0.5-3.5c0-0.3,0-0.6-0.2-0.8c-0.2-0.3-0.3-0.6-0.6-0.8
		c-0.2-0.3-0.5-0.5-0.7-0.8c-0.3-0.2-0.5-0.4-0.7-0.5c-0.2-0.2-0.3-0.4-0.1-0.5C221.1,56.5,221.5,56.6,222.3,56.9z M260.9,89.6
		c0.1,0.7,0,1.2-0.1,1.4c-0.2,0.2-0.5,0.2-1.1-0.1c-0.5-0.2-0.9-0.5-1.4-0.9c-0.5-0.4-1-0.8-1.5-1.3c-0.5-0.5-1.1-1.2-1.8-2
		s-1.3-1.7-2.1-2.8c-0.9-1.4-1.9-3-2.9-4.9c-1-1.9-2-4-3-6.3c-1.8,1.5-3.8,2.9-6,4c0,0.2,0,0.3-0.3,0.4c-0.2,0.1-0.6,0.2-1.3,0.3
		c-1.9,0.4-3.7,0.8-5.5,1.2c-1.8,0.4-3.2,0.8-4.3,1.1c0.1,0.5,0.2,1,0.3,1.4c0.1,0.4,0.1,0.7,0.1,0.8c0,0.8-0.3,0.9-0.9,0.2
		c-0.7-0.7-1.3-1.9-1.7-3.7c-0.4-1.8-0.6-4.2-0.6-7.1c0-2.8,0.2-5.2,0.6-7.3s1.1-3.9,2-5.5c0.5-0.8,0.8-1.1,1.1-1.1
		c0.2,0,0.3,0.3,0.1,0.8c-0.1,0.4-0.2,0.8-0.4,1.3c-0.1,0.4-0.3,0.8-0.4,1.3c0.4-0.1,1-0.2,1.7-0.4c0.7-0.2,1.5-0.4,2.3-0.6
		c0.8-0.2,1.5-0.5,2.2-0.7c0.7-0.2,1.3-0.4,1.6-0.5c1-0.3,1.8-0.2,2.3,0.1c0.5,0.4,0.7,0.6,0.7,0.9c0,0.2-0.1,0.4-0.3,0.6
		c-0.1,0.1-0.4,0.4-0.9,1c-0.6,0.8-1.2,1.4-1.8,1.9c-0.6,0.5-1.4,1.2-2.4,2c0.7-0.2,1.4-0.4,2-0.5c0.6-0.1,1.1-0.1,1.5,0.1
		c0.6,0.2,1.1,0.6,1.4,1.1c0.4,0.5,0.3,1.1-0.2,1.7c-0.2,0.3-0.5,0.7-0.8,1c-0.4,0.4-0.7,0.8-1,1.1c0.6,0,1.2,0.1,1.8,0.5
		c0.4,0.3,0.7,0.6,0.8,1s-0.1,0.9-0.6,1.6c-0.3,0.4-0.7,0.9-1.1,1.5c-0.4,0.6-0.8,1.1-1.1,1.6c0.2-0.1,0.5-0.2,0.8-0.3
		c0.3-0.1,0.8,0,1.4,0.3c1.5-0.9,2.7-1.7,3.7-2.4c1-0.8,1.8-1.5,2.6-2.3c-0.7-1.6-1.3-3.4-1.8-5.2c-0.5-1.8-1-3.7-1.4-5.7
		c-0.2-1.1-0.4-2-0.6-2.7c-0.2-0.7-0.4-1.3-0.6-1.8c-0.2-0.5-0.4-0.9-0.6-1.3c-0.2-0.4-0.4-0.7-0.7-1.1c0,0-0.1-0.1-0.1-0.1
		c0,0,0,0-0.1-0.1c-0.3,0.1-0.6,0.1-0.8,0.2s-0.6,0.1-0.9,0.2c-0.8,0.2-1.5,0.4-2.1,0.6c-0.6,0.1-1.2,0.3-1.8,0.4
		c-0.6,0.1-1.2,0.3-1.8,0.4c-0.6,0.2-1.4,0.3-2.3,0.5c-1.1,0.3-1.9,0.5-2.3,0.6c-0.4,0.2-0.7,0.4-0.9,0.6c-0.5,0.5-0.9,0.7-0.9,0.6
		s0.1-0.7,0.6-1.4c0.3-0.5,0.7-0.9,1.1-1.1c0.4-0.2,1.1-0.4,2-0.6c1.6-0.5,3.2-1,4.6-1.4c1.5-0.4,3-0.8,4.6-1.2
		c-0.2-0.4-0.3-0.8-0.4-1.1c-0.1-0.4-0.2-0.8-0.3-1.4c-0.1-0.6,0-0.9,0.4-0.9c0.3,0,0.5,0.3,0.7,0.8c0.1,0.3,0.2,0.5,0.2,0.7
		l0.4-0.5c0.3-0.5,0.6-0.9,0.9-1.3c0.3-0.4,0.6-0.9,0.8-1.3c-1,0.2-2.1,0.4-3.3,0.7c-1.2,0.3-2.5,0.5-3.9,0.8
		c-0.6,0.1-1.2,0.3-1.8,0.4c-0.6,0.2-1.2,0.3-1.9,0.5c0,0.2,0,0.3,0,0.4c0,0.1,0,0.3-0.1,0.4c-0.2,1.3-0.5,2.2-0.8,2.5
		s-0.6,0.4-0.9,0.2c-0.2-0.1-0.3-0.4-0.3-0.8s0-1.1,0.1-2.1c-1.5,0.4-2.8,0.9-4.1,1.3c-1.2,0.4-2.1,0.8-2.7,1.1
		c-0.9,0.5-1.6,0.7-2.1,0.6c-0.5-0.1-0.8-0.4-1-1c-0.2-0.5-0.3-0.8-0.1-1c0.2-0.2,0.4-0.2,0.7-0.2c0.5,0,1.2-0.1,1.9-0.3
		c0.7-0.2,1.5-0.4,2.4-0.8c0.4-0.2,1-0.4,2-0.6c0.9-0.3,2-0.5,3.2-0.8c0-1,0-1.9-0.1-2.6c-0.1-0.7-0.3-1.3-0.5-1.8
		c-0.2-0.5-0.5-1-0.9-1.3c-0.4-0.4-0.8-0.7-1.3-1.1c-0.7-0.5-1-0.8-0.8-1c0.2-0.2,0.6-0.2,1.3,0c1.2,0.3,2.1,0.8,2.7,1.4
		c0.6,0.6,1,1.5,1.2,2.6c0.1,0.7,0.2,1.3,0.2,1.8c0.1,0.5,0.1,1,0.2,1.5c2-0.5,4-1,6.1-1.5c2.1-0.5,3.9-0.9,5.3-1.2
		c0.1,0,0.1,0,0.2,0c0,0,0.1,0,0.2,0c0.2-0.4,0.3-0.8,0.4-1.2c0.1-0.5,0.2-1,0.2-1.4s-0.1-0.8-0.2-1.1c-0.2-0.4-0.5-0.7-0.9-1.1
		c-0.4-0.4-1-0.7-1.8-1.2c-0.9-0.5-1.2-0.8-0.8-0.9c0.3-0.1,1.2,0.1,2.7,0.6c1.5,0.5,2.4,1.1,2.9,2c0.4,0.9,0.5,1.7,0.2,2.5
		c-0.1,0.3-0.1,0.5-0.2,0.8c-0.1,0.2-0.1,0.5-0.2,0.7c1.4-0.2,2.7-0.3,3.7-0.2c1,0.1,1.7,0.3,2.1,0.7c0.4,0.3,0.3,0.6-0.2,0.7
		c-0.5,0.2-1.7,0.3-3.6,0.5c-0.8,0-1.8,0.1-2.9,0.4c-0.3,0.6-0.7,1.2-1.2,1.8c-0.5,0.6-1.2,1.3-2,2.2c-0.1,0.1-0.2,0.2-0.3,0.2
		c-0.1,0.1-0.2,0.2-0.3,0.2c0.1,0.2,0.2,0.4,0.5,0.7c0.7,0,1.3,0,1.9,0.1c0.6,0.1,1.1,0.3,1.5,0.5c0.6,0.3,0.9,0.6,0.9,0.8
		c0,0.3-0.4,0.4-1.2,0.3c-0.4-0.1-0.7-0.1-1-0.1c-0.3,0-0.7,0-1,0c0.9,1.2,1.6,2.8,2.1,4.9c0.9,4.4,2,8.3,3.3,11.9
		c0.7-0.9,1.4-1.9,2-2.9c1-1.6,1.3-3.3,0.9-5.1c-0.2-0.5-0.1-0.8,0.1-0.9c0.2,0,0.5,0.3,1,0.9c0.3,0.5,0.6,0.9,0.7,1.3
		c0.2,0.4,0.3,0.9,0.2,1.3c0,0.5-0.1,1-0.4,1.5c-0.2,0.5-0.6,1.2-1,1.9c-0.4,0.6-0.8,1.2-1.3,1.8c-0.5,0.6-1,1.2-1.6,1.7
		c1.3,3.5,2.7,6.5,4.2,8.9c1.5,2.5,3,4.5,4.5,6.1c0.6,0.7,1,0.9,1.1,0.7c0.2-0.2,0.3-0.7,0.3-1.5c0-1.1,0.1-2.1,0.1-3.3s0-2.2,0-3.1
		c0-1,0-1.7-0.1-2.4c0-0.6,0-1,0-1.1c-0.1-1.1,0-1.6,0.2-1.6c0.2,0,0.4,0.5,0.6,1.6c0.1,0.9,0.2,1.9,0.3,3s0.2,2.3,0.4,3.5
		s0.2,2.5,0.4,3.7C260.6,87.3,260.7,88.5,260.9,89.6z M236.2,66.1c-0.3,0.2-0.7,0.3-1.3,0.5c-0.5,0.2-1.1,0.4-1.8,0.6
		c-0.6,0.2-1.3,0.4-1.9,0.6c-0.6,0.2-1.2,0.4-1.8,0.6c-0.3,0.1-0.5,0.2-0.7,0.2c-0.1,1.5-0.1,2.9,0,4.2c0.4-0.1,0.9-0.3,1.5-0.5
		c0.6-0.2,1.2-0.4,1.8-0.6c0.6-0.2,1.2-0.4,1.8-0.6c0.6-0.2,1.1-0.4,1.5-0.5c0.4-0.5,0.9-1.1,1.5-1.8c0.6-0.7,1.1-1.3,1.4-1.7
		c0.2-0.2,0.2-0.4,0.1-0.6c-0.1-0.2-0.3-0.3-0.6-0.4c-0.3-0.1-0.6-0.1-0.9-0.1S236.4,66,236.2,66.1z M229.7,61.8
		c0,0.2-0.1,0.4-0.2,0.8c-0.2,0.8-0.3,1.5-0.4,2.3c-0.1,0.8-0.2,1.5-0.3,2.2c1.2-0.4,2.3-0.8,3.2-1.2c0.9-0.4,1.6-0.8,2.3-1.3
		c0.7-0.5,1.3-1.1,2-1.8c0.6-0.7,1.3-1.6,2.1-2.8c-2,0.7-3.7,1.1-5.2,1.5C231.7,61.8,230.6,61.9,229.7,61.8L229.7,61.8z M238.7,72.3
		c0.3-0.5,0.3-0.8,0.1-0.9c-0.3-0.1-1,0-2,0.5c-0.5,0.2-1,0.4-1.7,0.6c-0.7,0.2-1.4,0.5-2.1,0.7c-0.7,0.3-1.5,0.5-2.2,0.7
		c-0.7,0.2-1.3,0.4-1.9,0.6c0.1,0.7,0.2,1.4,0.3,2c0.1,0.6,0.2,1.3,0.3,1.8c0.3-0.1,0.7-0.2,1.1-0.3c0.5-0.1,1-0.3,1.6-0.4
		c0.6-0.2,1.2-0.3,1.8-0.5c0.6-0.2,1.3-0.3,1.8-0.5c0.2-0.3,0.5-0.7,0.8-1.1c0.3-0.4,0.5-0.8,0.8-1.2c0.3-0.4,0.5-0.8,0.7-1.2
		C238.4,72.7,238.6,72.5,238.7,72.3z M246.5,51.4c-0.5-0.3-0.7-0.5-0.6-0.6c0.1-0.1,0.4-0.1,0.8-0.1c1.4,0.2,2.6,0.4,3.6,0.7
		c1,0.3,1.8,0.5,2.4,0.7c1.3,0.4,2.2,0.7,2.6,1c0.4,0.3,0.7,0.7,0.9,1.2c0.1,0.4,0.1,0.7-0.1,0.8c-0.2,0.1-0.7,0-1.4-0.3
		c-0.6-0.2-1.3-0.4-2-0.7c-0.8-0.3-1.5-0.6-2.3-0.9c-0.8-0.3-1.5-0.7-2.2-1C247.4,51.9,246.9,51.6,246.5,51.4z"/>
	<path d="M322.9,64.9c0.8,0.3,1.2,0.6,1.2,1c0,0.4-0.5,0.5-1.5,0.4c-2.1-0.3-4-0.7-5.5-1.3c-1.5-0.6-2.7-1.2-3.6-1.8
		c-2.4-1.7-4.6-3.4-6.6-5c-2-1.6-3.7-3.1-5.1-4.5c-0.5-0.5-1.2-1.1-2-1.8c-0.8-0.7-1.5-1.3-2.4-1.9c-0.8-0.6-1.6-1.2-2.4-1.7
		c-0.8-0.5-1.5-1-2-1.3c-0.8-0.5-1.6-0.8-2.5-0.9c-1.2,1.5-2.3,3.1-3.5,4.9c-1.2,1.8-2.2,3.4-3,4.8c-1.2,2.1-2.3,3.9-3.3,5.4
		c-1,1.6-2,3-2.9,4.2c-0.9,1.2-1.9,2.4-2.8,3.4c-1,1-2,2-3,3c-0.8,0.7-1.5,1.2-2.1,1.5c-0.6,0.2-1,0.3-1.3,0.2
		c-0.3-0.1-0.4-0.2-0.3-0.4c0.1-0.2,0.5-0.6,1.1-1.1c1.8-1.6,3.6-3.4,5.4-5.4c1.8-2,3.3-4.2,4.7-6.6c2.5-4.5,4.8-8.2,6.7-11
		c1.9-2.8,3.6-5.1,5.2-7c0.6-0.7,0.8-1.2,0.7-1.5c-0.1-0.3-0.6-0.7-1.6-1.2c-1.1-0.6-1.6-1-1.3-1.3c0.2-0.3,0.9-0.2,2,0.1
		c1.2,0.4,2.3,0.8,3.2,1.3c0.5,0.3,0.7,0.6,0.6,1.1c-0.1,0.4-0.3,0.8-0.8,1.2c-0.2,0.2-0.5,0.5-1,1c-0.5,0.5-1,1.1-1.6,1.9
		c0.5,0,1.2,0.3,2,0.7c1.2,0.6,2.5,1.5,4.1,2.6c1.6,1.1,3.4,2.7,5.4,4.6c3,2.8,5.6,5,7.9,6.7c2.2,1.7,3.9,2.7,4.9,3.1
		c1.7,0.7,3,1.2,4,1.6C320.9,64.2,321.9,64.6,322.9,64.9z M301.2,83c2.6,0,4.3,0.3,5.1,1.1c0.5,0.6,0.7,1.1,0.6,1.5
		c-0.1,0.4-0.6,0.4-1.5,0.1c-0.6-0.2-1.3-0.4-2-0.5c-0.7-0.1-1.5-0.2-2.4-0.2c-0.9,0-1.9,0-3.1,0.1c-1.2,0.1-2.5,0.2-4,0.3
		c-1.4,0.2-2.9,0.4-4.7,0.8c-1.8,0.4-3.3,0.8-4.7,1.3c-1.3,0.5-2.4,0.7-3.1,0.6c-0.8-0.1-1.3-0.3-1.7-0.5c-0.4-0.3-0.6-0.6-0.5-0.9
		c0.1-0.3,0.5-0.4,1.2-0.5c1,0,2.2-0.2,3.4-0.4c1.3-0.2,2.7-0.6,4.4-1.1c0.5-0.1,1-0.2,1.4-0.3c0.4-0.1,0.8-0.2,1.2-0.2
		c0.2-1.8,0.4-3.4,0.5-4.9c0.1-1.5,0.2-2.8,0.3-4.1c0.1-1.2,0.1-2.4,0.2-3.5s0.1-2.2,0.1-3.3c-1.1,0.4-2.1,0.8-3,1.2
		c-1,0.4-1.8,0.7-2.5,1.1c-1.8,1-3,0.9-3.7-0.3c-0.2-0.4-0.3-0.8-0.3-1.3s0.4-0.9,0.9-1.6c0.9-1.1,2-2.3,3.4-3.5
		c1.4-1.2,3-2.6,4.8-4.3l-0.2-0.5c-1,0.4-1.9,0.6-2.6,0.8c-0.7,0.2-1.3,0.3-1.8,0.3c-0.5,0-0.9-0.1-1.3-0.2
		c-0.4-0.1-0.7-0.3-1.1-0.6c-0.7-0.5-0.5-0.7,0.4-0.8c0.5,0,1.1,0,1.9-0.1c0.8-0.1,1.8-0.4,2.9-0.8c0.3-0.1,0.7-0.2,1.2-0.4
		c0.5-0.1,1-0.3,1.5-0.4c0.5-0.2,1-0.3,1.5-0.4c0.5-0.1,1-0.2,1.3-0.3c0.7-0.2,1.2-0.3,1.5-0.2c0.4,0.1,0.7,0.3,1.1,0.6
		c1.1,0.8,0.7,1.3-1.1,1.3c-0.4,0-0.9,0.2-1.4,0.4c-0.5,0.2-1.2,0.7-2.1,1.4c0,0.4,0.1,0.8,0.2,1.3c0.1,0.5,0.1,1,0.1,1.6
		c0.1,0.5,0.1,1.1,0.1,1.6c0,0.5,0,1.1,0,1.7c0.5-0.2,0.9-0.4,1.4-0.5c0.5-0.2,1-0.4,1.6-0.6c0.5-0.2,1-0.2,1.3-0.2s0.8,0.2,1.4,0.5
		c0.4,0.2,0.5,0.5,0.5,0.7c-0.1,0.3-0.6,0.5-1.5,0.6c-1.4,0.3-3,0.7-4.8,1.3c-0.1,3.6-0.3,7.7-0.7,12.3c1.2-1,2.3-2,3.4-3.1
		c1.1-1.1,1.9-1.9,2.5-2.6c0.5-0.5,0.7-0.8,0.7-1c0-0.2-0.1-0.4-0.2-0.6c-0.2-0.2-0.4-0.4-0.5-0.5c-0.2-0.2-0.4-0.4-0.8-0.7
		c-0.3-0.2-0.3-0.4-0.1-0.6c0.2-0.2,0.7-0.1,1.5,0.2c0.5,0.2,0.9,0.5,1.3,0.8s0.7,0.7,0.9,0.9c0.3,0.3,0.4,0.6,0.3,1
		c-0.1,0.3-0.3,0.7-0.8,1.1c-1.8,1.7-3.4,3-4.7,4.1c-1.3,1-2.5,1.9-3.5,2.5c0,0.3-0.1,0.7-0.1,1c0,0.4-0.1,0.7-0.1,1.1
		c0.4,0,0.7-0.1,1.1-0.1c0.4,0,0.7-0.1,1.2-0.1c0.6-0.1,1.2-0.2,1.7-0.3c0.5-0.1,1-0.1,1.4-0.1c0.4,0,0.9-0.1,1.4-0.1
		C300,83,300.6,83,301.2,83z M285.6,80.6c-0.7,1.2-1.3,1.3-1.9,0.3c-0.4-0.8-0.8-1.7-1-2.8c-0.2-1.1-0.3-2.3-0.1-3.7
		c0.1-0.7,0.3-1,0.5-1c0.3,0,0.4,0.4,0.5,1.1c0.1,0.4,0.2,0.9,0.3,1.3c0.1,0.5,0.2,0.8,0.3,1.1c0.3,0.6,0.5,0.9,0.6,1
		c0.2,0.1,0.4,0,0.7-0.3c0.5-0.6,1.2-1.2,1.8-1.8c0.7-0.6,1.5-1.2,2.4-1.9c0.8-0.7,1.3-1,1.5-0.8c0.2,0.2-0.1,0.6-0.8,1.3
		c-1.1,1.2-2.1,2.2-2.9,3.2C286.7,78.8,286.1,79.7,285.6,80.6z M291.8,66.7c0.2-0.1,0.3-0.4,0.3-1.1c0-0.6,0-1.4-0.1-2.3
		c0-0.5,0-0.9,0-1.3c0-0.4,0-0.7-0.1-1.1c-0.2,0.2-0.4,0.3-0.6,0.4c-0.2,0.1-0.4,0.3-0.6,0.5c-1.3,1-2.4,1.9-3.5,2.7
		c-1,0.8-2,1.7-3,2.7c-0.2,0.2-0.3,0.5-0.4,0.8c-0.1,0.3,0,0.5,0.1,0.7c0.1,0.2,0.3,0.3,0.6,0.4c0.3,0.1,0.6,0.1,0.9-0.1
		c1.1-0.4,2.2-0.8,3.1-1.2C289.6,67.6,290.7,67.2,291.8,66.7z"/>
	<path d="M345.8,55.5c-0.1,1-0.2,2-0.3,3.2c-0.1,1.1-0.2,2.4-0.3,3.9c-0.1,0.6-0.1,1.2-0.1,1.8c0,0.6,0,1.1-0.1,1.7
		c0.4-0.5,0.7-1,1.1-1.6c0.4-0.5,0.7-1.1,1.1-1.7c0.8-1.2,1.3-1.7,1.4-1.5c0.2,0.2-0.2,1.1-1.1,2.6c-0.4,0.7-0.9,1.5-1.3,2.2
		c-0.4,0.7-0.9,1.4-1.4,2c-0.2,3.4-0.3,6.1-0.4,8.4c-0.1,2.2-0.1,3.9,0,4.9c0,0.7,0.1,1.4,0.1,1.9c0,0.5,0.1,1.1,0.1,1.5
		s0,0.9,0,1.3s0,0.9-0.1,1.3c-0.1,1-0.2,1.5-0.4,1.5s-0.5-0.5-0.9-1.5c-0.5-1.1-0.7-2.7-0.8-4.6c-0.1-1.9-0.1-3.9,0.1-5.8
		c0.1-0.8,0.2-1.8,0.2-2.8c0.1-1.1,0.2-2.2,0.2-3.5c-1.9,2.5-4,4.7-6.3,6.8c-0.8,0.7-1.4,1-1.7,0.9c-0.4-0.1-0.7-0.4-0.9-1
		c-0.2-0.6-0.3-1.1-0.4-1.5c-0.1-0.4,0.1-0.8,0.5-1.1c0.2-0.2,0.4-0.4,0.6-0.6c0.3-0.2,0.6-0.5,0.9-0.8c1.4-2.1,2.6-4,3.6-5.8
		c1-1.8,1.8-3.5,2.6-5.3c0.4-0.9,0.8-1.7,1.1-2.4c0.3-0.6,0.6-1.2,0.9-1.5c0-0.4,0.1-0.8,0.1-1.1c0-0.4,0.1-0.7,0.1-1.1
		c-1.8,0.8-3.6,1.7-5.3,2.7c-1.7,1-3.1,1.8-4.1,2.6c-1.1,0.9-1.9,1.3-2.4,1.4c-0.5,0.1-1,0-1.5-0.2c-0.4-0.2-0.8-0.4-1.2-0.7
		c-0.4-0.3-0.7-0.6-1.1-0.9c-1.1-1.1-0.9-1.4,0.6-1c1,0.4,1.8,0.5,2.5,0.4c0.7-0.1,1.5-0.4,2.4-1c1.9-1.1,3.7-2.1,5.4-3
		c1.8-0.9,3.4-1.7,4.9-2.4c0-0.2,0-0.4,0-0.5c0-0.1,0-0.3,0-0.5c0.2-2,0.3-3.6,0.3-4.8c0.1-1.2,0-2.2-0.1-3
		c-0.1-0.7-0.2-1.3-0.4-1.7c-0.2-0.4-0.5-0.8-0.8-1.1c-0.7-0.8-1-1.2-0.9-1.4c0.2-0.1,0.7,0,1.5,0.4c1,0.5,1.8,1.4,2.3,2.5
		c0.5,1.1,0.6,2.8,0.3,5.1c-0.1,0.7-0.2,1.4-0.3,2c-0.1,0.7-0.2,1.3-0.3,2c0.4-0.2,0.8-0.3,1.1-0.5c0.4-0.2,0.7-0.3,1-0.4
		c0.9-0.4,1.7-0.4,2.3,0.1c0.4,0.3,0.5,0.5,0.4,0.8c-0.1,0.3-0.6,0.6-1.6,0.9c-0.5,0.2-1,0.3-1.6,0.6
		C346.9,55,346.4,55.2,345.8,55.5z M336.5,74.8c1.3-1.1,2.5-2.2,3.6-3.2c1.1-1,2-2.1,3-3.2c0.1-1,0.2-2,0.2-3c0.1-1,0.2-2.1,0.2-3.2
		c-0.9,2.2-1.9,4.3-3,6.3C339.4,70.5,338.1,72.6,336.5,74.8z M374.5,51.9c0.8,0.7,1.1,1.1,1,1.4c-0.1,0.3-0.8,0.3-2,0.3
		c-0.7,0-1.8,0.1-3.3,0.3s-3.2,0.6-5.1,1c-0.1,1.3-0.1,2.4-0.2,3.4c0,1-0.1,1.7-0.1,2c-0.1,0.9-0.2,1.7-0.4,2.3
		c-0.1,0.6-0.3,1.1-0.4,1.6c1-0.4,1.9-0.7,2.7-1.1c0.8-0.3,1.4-0.5,1.7-0.7c0.7-0.3,1.4-0.4,2.2-0.4c0.8,0.1,1.5,0.4,2.2,1
		c0.8,0.7,1.2,1.2,1.3,1.6c0,0.4-0.3,0.6-1,0.5c-0.6,0-1.3,0-2,0.2c-0.8,0.2-2,0.6-3.6,1.3c-0.6,0.3-1,0.4-1.2,0.3
		c-0.2-0.1,0-0.2,0.4-0.5c1.1-0.6,1.9-1.1,2.4-1.5c0.5-0.4,0.9-0.7,1.1-0.9c0.2-0.2,0.2-0.3,0-0.3c-0.2,0-0.4,0-0.8,0.1
		c-1.3,0.4-2.4,0.8-3.5,1.2c-1,0.4-2.1,0.8-3.1,1.2c-1,0.5-1.9,0.8-2.6,1.1c-0.7,0.3-1.5,0.5-2.1,0.6c-0.7,0.1-1.4,0.1-2.1,0
		s-1.6-0.3-2.6-0.5c-0.7-0.2-0.9-0.4-0.8-0.5c0.1-0.2,0.6-0.3,1.4-0.3c1,0,2-0.1,3-0.3c1-0.2,1.9-0.4,2.7-0.6
		c0.3-0.1,0.7-0.3,1.1-0.4c0.4-0.2,0.9-0.3,1.4-0.5c-0.1-0.3-0.1-0.8,0-1.5c0.1-0.7,0.3-1.7,0.6-3c0.1-0.2,0.1-0.8,0.2-1.7
		c0-0.9,0.1-2,0.2-3.2c-1.2,0.3-2.5,0.6-3.6,0.8c-1.2,0.3-2.3,0.6-3.3,0.9c-0.6,0.2-1.2,0.3-1.6,0.4c-0.4,0.1-0.9,0.1-1.2,0
		c-0.4-0.1-0.8-0.2-1.1-0.4c-0.4-0.2-0.8-0.5-1.3-1c-0.3-0.2-0.4-0.5-0.4-0.7c0-0.2,0.2-0.3,0.5-0.1c0.8,0.4,1.6,0.5,2.3,0.4
		c0.7-0.1,1.5-0.3,2.5-0.5c1.3-0.3,2.6-0.6,3.9-0.9c1.2-0.3,2.4-0.6,3.6-0.9c0-1,0.1-2,0.1-3c0-1,0.1-1.9,0.1-2.8c0-0.9,0-1.6,0-2.3
		c0-0.6,0-1.1,0-1.4c0-0.7-0.1-1.2-0.1-1.7c0-0.5-0.2-0.9-0.4-1.2c-0.2-0.3-0.5-0.6-1-0.8c-0.5-0.2-1.1-0.4-2-0.6
		c-0.4,0-0.7-0.1-0.9-0.3c-0.2-0.1-0.2-0.3-0.1-0.4c0.1-0.1,0.4-0.2,0.9-0.3s1.1,0,2,0.1c1.5,0.2,2.5,0.6,3,1.1s0.8,1.4,0.8,2.7
		c0,0.4,0,0.9,0,1.6c0,0.7,0,1.5-0.1,2.5c0,0.9,0,1.9-0.1,3c0,1.1-0.1,2.1-0.1,3.2c1-0.3,1.9-0.5,2.7-0.7c0.8-0.2,1.5-0.4,2-0.6
		c0.8-0.3,1.6-0.4,2.5-0.4C373.3,51.3,374,51.5,374.5,51.9z M366,71.6c1.2-0.4,2.3-0.6,3.2-0.6c0.9,0.1,1.8,0.5,2.8,1.4
		c0.6,0.5,0.9,1.2,1.1,2.1c0.1,0.9-0.1,1.8-0.6,2.8c-0.2,0.3-0.4,0.6-0.5,1c-0.2,0.3-0.3,0.7-0.6,1.1c-0.2,0.4-0.4,0.9-0.7,1.5
		c-0.2,0.6-0.5,1.2-0.9,2c0.4,0,0.7,0,1,0c0.2,0.1,0.4,0.2,0.5,0.3c0.4,0.5,0.4,0.9,0.3,1.1c-0.2,0.2-0.7,0.3-1.4,0.3
		c-0.5,0-1.1,0-1.8,0.1s-1.5,0.2-2.4,0.4c-0.9,0.2-2,0.4-3.2,0.7c-1.2,0.3-2.7,0.6-4.3,0.9h-0.1c0,0.2,0.1,0.4,0.1,0.5
		c0,0.2,0,0.3,0.1,0.5c0.2,1,0.2,1.6,0.1,1.8c-0.1,0.2-0.6-0.2-1.3-1.3c-0.6-0.8-1.1-1.9-1.5-3.2c-0.4-1.4-0.8-2.9-1.1-4.4
		c-0.3-1.6-0.5-3.1-0.6-4.6c-0.1-1.5-0.1-2.7,0-3.7c0.2-1.4,0.5-2.1,0.9-2.1c0.4,0,0.6,0.5,0.5,1.5c-0.1,0.8-0.1,1.5-0.2,2.1
		c0,0.6,0,1.3,0.1,2c1.4-0.5,2.5-0.9,3.4-1.3c0.9-0.4,1.7-0.7,2.4-1c0.7-0.3,1.4-0.6,2.1-0.9S364.9,72,366,71.6z M370.5,76.2
		c0.3-1.2,0.2-2.1-0.3-2.7c-0.5-0.6-1.5-0.7-3.1-0.2c-1.2,0.4-2.2,0.7-3.1,1.1c-0.9,0.3-1.7,0.6-2.5,0.9c-0.8,0.3-1.6,0.7-2.5,1
		c-0.9,0.4-1.9,0.8-3.1,1.3c0.4,1.4,0.8,2.8,1.1,4.1s0.6,2.4,0.9,3.5c1.3-0.3,2.4-0.5,3.3-0.8c0.9-0.2,1.7-0.4,2.5-0.6
		c0.7-0.2,1.4-0.3,2-0.4c0.6-0.1,1.2-0.2,1.8-0.3h0.4c0.6-1.2,1.1-2.4,1.6-3.4C369.8,78.6,370.1,77.4,370.5,76.2z"/>
</g>
</svg>
