<?xml version="1.0" encoding="utf-8"?>
<!-- Generator: Adobe Illustrator 22.0.0, SVG Export Plug-In . SVG Version: 6.00 Build 0)  -->
<svg version="1.1" id="图层_1" xmlns="http://www.w3.org/2000/svg" xmlns:xlink="http://www.w3.org/1999/xlink" x="0px" y="0px"
	 viewBox="0 0 128 128" style="enable-background:new 0 0 128 128;" xml:space="preserve">
<style type="text/css">
	.st0{fill:#EDEDED;}
	.st1{fill:#FFB8A6;}
	.st2{fill:#FFC4B8;}
	.st3{fill:#FFB7A6;}
	.st4{fill:#FFDACF;}
	.st5{fill:#FFD0C4;}
	.st6{fill:#F5D8CF;}
	.st7{fill:#FFEAE1;}
	.st8{fill:#FFECE5;}
	.st9{fill:#FFAF9C;}
	.st10{fill:#FFA18C;}
	.st11{fill:#FFE0D6;}
	.st12{fill:#F0C1B6;}
	.st13{fill:#F3CABE;}
	.st14{fill:#FFAC99;}
	.st15{fill:#26051A;}
	.st16{fill:#FFB19E;}
	.st17{fill:#F1DBD5;}
	.st18{fill:#FFE8E1;}
	.st19{fill:#F0D3CA;}
	.st20{fill:#E09F8F;}
	.st21{fill:#E1A090;}
	.st22{fill:#FF8A6E;}
	.st23{fill:#E09E8D;}
	.st24{fill:#FFA891;}
	.st25{fill:#FF8161;}
	.st26{fill:#F4DDD4;}
	.st27{fill:#FFF3ED;}
	.st28{fill:#FFECE3;}
	.st29{fill:#F6E8E0;}
	.st30{fill:#EFBEB3;}
	.st31{fill:#F1C8BD;}
	.st32{fill:#ECB0A2;}
	.st33{fill:#FFB4A1;}
	.st34{fill:#F2C6B8;}
	.st35{fill:#FF957D;}
	.st36{fill:#E6A698;}
	.st37{fill:#FF927A;}
	.st38{fill:#FC4128;}
	.st39{fill:#FF8552;}
	.st40{fill:#FC976C;}
	.st41{fill:#F21D00;}
</style>
<path class="st0" d="M108.8,110.9c-0.3,3.6-24.7,4.6-54.4,2.3c-29.8-2.3-53.7-7-53.4-10.6c0.3-3.6,24.6-4.6,54.4-2.3
	C85.1,102.6,109.1,107.3,108.8,110.9z"/>
<g>
	<path class="st1" d="M62.1,115.7c0,0-11.1-13.6-13.6-25.7l0.4,5.4c0,0-8.9-0.4-18.9-7.1l2.9,1.8l-0.4-1.4l-2.8-2.9
		c-7.1-6.4-9.3-23.6-9.3-23.6C21.8,86.4,30,88.2,30,88.2s0,5.7-2.6,12.4c0.1-0.9,0.2-1.8,0.4-2.4c1-3.9,1.8-5.9,0.7-8.3
		c0.3,0.1,0.4,0.1,0.4,0.1v-2.1c-1.7-0.6-3.2-1.8-4.3-3.2c-1.6-2.2-2.8-4.5-3.3-7.1c-0.6-3.2,0-7.3-1.3-10.5c0.1-1.4,0.1-3,0-4.2
		l-0.7,2.9c0.3,0.4,0.5,0.9,0.7,1.3c-0.1,0.9-0.2,1.8-0.4,2.6c-0.5,2.1-1.5,2.6-2.2,4.3c-1.2,3.2,1.2,6,2.4,9.6
		c2.4,7.1,5.3,12.1,3.3,19.6c0.8-0.8,1.9,0.3,2.6,0.5c-0.7,0.4-2.7,1.6-5,1.1c-1.1-3.8-6.4-22-10.9-35.4c0,0-3.7-21.9,13.4-28.4
		c0.5-0.2,1.1-0.4,1.6-0.6c18.9-5.7,21.4,5.7,45.3,8.9c0,0,0.1,0.1,0.4,0.2c-1.2,1.4-1.8,2.4-1.8,2.4C66.7,64,71.5,68,74.7,69.3
		c0.6,0.5,1,0.7,1,0.7l-0.3-0.4c1.2,0.4,2.1,0.4,2.1,0.4s0.1,0.1,0.4,0.1c0.4,0.2,0.7,0.2,0.7,0.2v-0.3c0.3-0.1,0.8-0.3,1.2-0.7
		c-0.6,0.9-1.3,1.5-2.3,1.7c-2,0.3-4.7-1.9-6-3.2c-1.1-1.1-2.2-2.3-3-3.5c-4.3-8-1-11.8-1-11.8c2.5-5-2.5-1.1-2.5-1.1
		c0,0,0,0.1,0,0.1c-2.2-0.4-5.2-0.1-7.1-0.1c-5.5-0.1-12.2,1.7-17.5,0l-0.7,0.7c2.2,0.3,4.2,1.1,6.4,1.4c1.6,0.2,7.5-0.6,8.7,0.5
		c2.2,1.9,1.8,8.9,2,11.8c0.4,4.2,0.5,8-0.3,12.1c-0.8,3.9-1.7,5.3,2.4,5c7.9-0.5,15.9-2.2,23.8-3c9.5-0.9,23.6-1.3,31.9,3.6
		c0.6-2.4,0.3-5.2,3-6.7c-6.8,1.1-9-2-14.5-5.4c0.2-0.6,0.7-1.3,1.3-2c2.3,2.3,6.7,5.5,10,5.9c2.3,0.3,6.7-1.7,7.8-4.2
		c-2.5-1.7-5.1-3.1-7.9-4c3.2,0.8,10.6,3,8.6,7.6c0,0-0.4,3.6-4.6,8.2l-2.9,4.6c0,0-3.6,0-8.6,2.1l-19.6,6.1
		c-4.5-0.1-8.3-0.3-8.3-0.3l-2.5,0.7l0.1,0.3c-1.4,0.8-2.9,2.1-3.3,4l-0.7,15.7c0,0-0.4,0.4-1.1,0.9c0.4-3.2,1.1-17.7,1.1-17.7
		l-1.1-3.9l-0.4,3.6c-2.9,15.1-0.3,17.8,0.3,18.1c-0.9,0.6-2.2,1.3-3.8,1.3C66,118.3,64.1,117.7,62.1,115.7 M115,87.5v-0.4
		c0-0.2,0.1-0.5,0.1-0.8c3-3.1,9-10.4,7.3-14.7c-1.7,1.4-3.3,5.2-4.2,7.3c-0.8,1.8-2.6,5.1-3.1,7.4c0,0-0.1,0.1-0.1,0.1v0.7
		C114.9,87.2,114.9,87.4,115,87.5 M17.9,102.9c-0.7-0.9-1.5-2.5-2.2-4.5c0.9,2,1.8,3.7,2.6,5C18.2,103.2,18,103,17.9,102.9 M6.8,70
		c0,0-6.4-22.5,10-37.8c0,0,13.6-13.6,33.9-10.7c0,0,31.1,5.5,40.8,22.7c0.2,1.2,0.6,1.2,0.6,1.2c0.5,0.1,1.1,0.3,1.7,0.6
		c0.5,0.5,0.8,0.9,0.8,0.9c0-0.2,0-0.3,0-0.5c4.1,1.9,8.9,5.5,8.9,5.5l0.1-0.2c0.8,0.8,1.5,1.6,2.3,2.6c-1.8-1.9-6.5-6.2-13.2-7.9
		c-0.2-0.2-0.4-0.4-0.6-0.7c-0.5-0.8-1.7-2.3-3.3-4.2c-0.2-0.3-0.4-0.5-0.6-0.8v0.1c-5.1-5.7-14.6-14-27.5-15.6
		c0,0-20.7-9.3-39.3,4.6c0,0-6.3,3.6-10.9,11.6c-0.3,0.2-0.5,0.4-0.7,0.6c0.2-0.1,0.4-0.2,0.6-0.3c-3.7,6.6-6.2,16-3.3,28.7
		C7,70.3,6.9,70.2,6.8,70 M108.1,67c-1.4-1.2-5.9-2.5-11.1-5.4c1.4,0.5,2.8,0.8,4,1.1c0,0,2.9,1.8,7.5,2.9l3.3,1.5
		c-2.3,0.6-4.8,0.6-6.9,1.8C105.9,67.9,107,67.2,108.1,67 M112.6,66.6C112.6,66.6,112.6,66.6,112.6,66.6c0.1,0.1,0.1,0.1,0.2,0.1
		c0,0-0.1,0-0.1,0C112.6,66.7,112.6,66.7,112.6,66.6 M85.3,57c0.4,0.2,0.8,0.4,1.2,0.6c-0.5,0.2-1,0.5-1.5,0.7
		C85.2,57.9,85.3,57.5,85.3,57 M107.6,56.9c0.2,0.4,0.5,0.9,0.7,1.4C108,57.8,107.8,57.3,107.6,56.9"/>
	<path class="st2" d="M94.7,46.3c0.6-4.3,9.2-10.6,9.2-10.6c-7.1,2.5-12.5,7.1-12.5,7.1s10.4-9.6,18.9-7.5c0,0,2.9,1.1-1.8,7.5
		l-0.1,0.2c-2,2-5.3,5.2-7.7,6.2c0,0,1.1,1.1,2.9,1.8l2.1-3l-2.1,3.7C103.5,51.8,98.7,48.2,94.7,46.3 M92.1,45.4c0,0-0.7,0-0.7-2.5
		c0.6,1.1,1.7,2.3,2.4,3.1C93.2,45.7,92.6,45.5,92.1,45.4"/>
	<path class="st3" d="M78.9,103.6l-2.5-7.5l2.5-0.7c0,0,5-0.5,10.4-0.5l-1.1,9.8c0,0-1.5,1.2-3.9,1.2
		C82.8,105.8,80.9,105.3,78.9,103.6"/>
	<path class="st4" d="M7.2,70.9c-3-12.9-0.5-22.5,3.2-29.1c6.6-3.5,12.5-7.2,20.4-6.3c8,0.9,16.8,2.6,24.5,4.9
		c8.6,2.6,14.6,8.2,24.3,0l3.4-0.5c0.2,0.9,0.6,1.7,1.1,2.4c-0.7-0.3-1.3-0.2-1.3-0.2c-4.9-0.2-9.6,4.5-12.1,7.5
		c-0.3-0.1-0.4-0.2-0.4-0.2C46.4,46.3,43.9,34.9,25,40.6c-0.6,0.2-1.1,0.4-1.6,0.6C6.3,47.6,10,69.5,10,69.5
		c5,15,11.1,36.1,11.1,36.1C15.4,105.5,7.2,70.9,7.2,70.9 M108.5,65.6c-4.6-1.1-7.5-2.9-7.5-2.9c-1.2-0.2-2.6-0.6-4-1.1
		c-1.8-1-3.7-2.3-5.6-3.8c-1.3-1.1-3.1-1-4.8-0.3c-0.4-0.2-0.8-0.4-1.2-0.6c0-0.2,0.1-0.4,0.1-0.6c0.1-0.2,0.1-0.5,0.2-0.7
		c0.9-4,1.1-6.8,0.9-8.8c0.8,4-1.2,4.2,2,7.1c3.1,2.8,9.7,8.8,14.3,8.2c4.4-0.6,1.7-2.8,0-5.4c-1.5-2.3-2.4-4.8-5-6.4
		c-0.2-0.1-0.3-0.2-0.5-0.3c0.6,0,1.1,0,1.7,0c-2.1-1.6-4.3-1.7-6.3-3.6c0,0-0.1-0.1-0.1-0.1c8.8,2.2,14,8.9,14,8.9
		c2.9,6,4.8,9.5,5.7,11.2h-0.7c0.3,0.1,0.5,0.1,0.8,0.2c0,0.1,0.1,0.1,0.1,0.2c-0.3,0.1-0.6,0.2-0.9,0.3L108.5,65.6 M83.9,39.8
		l0.8-0.1c0.3-6.1-19.2-11.5-25.3-14.3c-6.4-2.8-13.8-1.7-20.7-1.4c-11.8,0.5-19.5,10.4-28,17.5c4.6-8,10.9-11.6,10.9-11.6
		c18.6-13.9,39.3-4.6,39.3-4.6c12.9,1.6,22.4,9.9,27.5,15.6v0.3c-1-0.7-1.9-1.5-2.7-2.4c0.9,3,1.9,5.4,3.2,7.3
		C86.4,44.7,84.7,42.9,83.9,39.8 M88.8,41.5c1.6,1.9,2.7,3.4,3.3,4.2C90.9,44.4,89.9,42.9,88.8,41.5"/>
	<path class="st5" d="M77.5,70c0,0-0.9,0-2.1-0.4l-1.1-1.3c-0.4-0.3-0.7-0.5-1.1-0.8c-0.7-1.4-1.3-3.3-1.1-6.2
		c1.1,6.3,4.4,8.3,5.8,8.9C77.6,70.1,77.5,70,77.5,70 M78.6,68.6c-5.7-8.2,4.3-26.4,4.3-26.4c-1.7,0.3-3.2,1.7-4.5,3.4
		c1.1-2.2,0.5-2.4,0.5-2.4s-8.2,9.3-8.6,14.6c0,0-1.2,5.8,2.9,9.5c0.5,0.9,1,1.5,1.5,1.9c-3.3-1.3-8-5.3-5.8-17.2
		c0,0,6.8-10.3,13.9-10c0,0,0.6-0.1,1.3,0.2c0.9,1.5,2.1,2.8,2.4,4.4c0,0,0,0.1,0,0.1c0.2,2,0,4.8-0.9,8.8c-0.1,0.2-0.1,0.5-0.2,0.7
		c0.4-2.8,0.4-6.3-0.5-10.3c0,0-3.6-0.4-3.9,16.1v4.6c-0.4,1-0.8,1.9-1.3,2.7c-0.5,0.4-0.9,0.6-1.2,0.7V68.6 M72.8,57.2
		c0.1-0.3,1.3-4.8,1.4-5c0.7-1,1.4-2,1.9-2.8c-2.3,4.8-3.7,10.4-4,11.5C72.3,59.8,72.5,58.5,72.8,57.2"/>
	<path class="st6" d="M30,88.2c0,0-8.2-1.8-9.6-26.1c0,0,2.1,17.1,9.3,23.6l2.8,2.9l0.4,1.4L30,88.2"/>
	<path class="st7" d="M71.1,98.9l0.4-3.6l1.1,3.9c0,0-0.7,15-1.1,17.8C71.4,117.1,67.8,115.7,71.1,98.9"/>
	<path class="st8" d="M114.3,75.3c-3.3-0.4-7.7-3.6-10-5.9c0.2-0.2,0.4-0.4,0.6-0.6c2.3-1.3,5.4-1.1,8-2.1c3.3,0.9,6.3,2.3,9.2,4.4
		c-1,2.3-4.9,4.2-7.3,4.2C114.7,75.3,114.5,75.3,114.3,75.3 M111.7,66.4h1.8c-0.2,0.1-0.4,0.2-0.6,0.3
		C112.5,66.6,112.1,66.5,111.7,66.4"/>
	<path class="st9" d="M115,87.1v0.4C114.9,87.4,114.9,87.2,115,87.1 M115,86.4c0,0,0.1-0.1,0.1-0.1c-0.1,0.3-0.1,0.5-0.1,0.8V86.4
		 M118.2,78.9c0.9-2.2,2.5-6,4.2-7.3c1.7,4.3-4.4,11.6-7.3,14.7C115.6,84,117.4,80.7,118.2,78.9"/>
	<path class="st10" d="M82.7,79.9c-7.9,0.8-16,2.5-23.8,3c-4.2,0.3-3.2-1.1-2.4-5c0.8-4.2,0.7-7.9,0.3-12.1c-0.3-2.8,0.1-9.9-2-11.8
		c-1.2-1-7.1-0.3-8.7-0.5c-2.2-0.3-4.2-1.1-6.4-1.4l0.7-0.7c5.3,1.7,12-0.1,17.5,0c1.9,0,4.9-0.3,7.1,0.1
		c-3.1,11.4,5.7,16.3,5.7,16.3c-0.9-1.2-1.6-2.4-2.2-3.5c0.9,1.3,1.9,2.4,3,3.5c1.3,1.3,4,3.5,6,3.2c1-0.2,1.7-0.8,2.3-1.7
		c1-0.8,2.2-2.6,3.6-6.1c0.7-1.3,1.3-3,1.7-5c0.5-0.3,1-0.5,1.5-0.7c3.5,1.6,7.2,3,10.4,4.1c5.1,2.9,9.7,4.2,11.1,5.4
		c-1.1,0.2-2.2,0.9-3.1,1.8c-0.2,0.1-0.5,0.3-0.7,0.4c0,0,0.1,0.1,0.1,0.1c-0.6,0.6-1,1.3-1.3,2c5.5,3.4,7.8,6.5,14.5,5.4
		c-2.6,1.5-2.4,4.3-3,6.7C106.3,78.6,92.2,79,82.7,79.9 M95.3,70l1.1-1.8c1.7,0.3,3.9,1.4,4.6-2.4c-0.1,0-0.2,0-0.3,0
		C98.4,65.8,95.5,67.5,95.3,70"/>
	<path class="st11" d="M86.6,57.6c1.7-0.7,3.5-0.8,4.8,0.3c1.9,1.5,3.8,2.7,5.6,3.8C93.8,60.6,90.1,59.1,86.6,57.6"/>
	<path class="st12" d="M81.1,66.7L81.1,66.7c0,0.1,1.1-1.1,2.3-3.4c-1.3,3.5-2.6,5.3-3.6,6.1C80.3,68.6,80.7,67.7,81.1,66.7"/>
	<path class="st13" d="M104.2,69.3c0.2-0.2,0.4-0.3,0.7-0.4c-0.2,0.2-0.4,0.4-0.6,0.6C104.3,69.3,104.3,69.3,104.2,69.3"/>
	<path class="st14" d="M23.2,103.2c2-7.5-0.9-12.5-3.3-19.6c-1.2-3.6-3.7-6.5-2.4-9.6c0.6-1.6,1.7-2.1,2.2-4.3
		c0.2-0.8,0.3-1.7,0.4-2.6c1.3,3.1,0.8,7.2,1.3,10.5c0.5,2.6,1.7,5,3.3,7.1c-2.8-3.5-3.9-8.2-3.9-8.2c0.6,11,6.2,13.1,7.8,13.5
		c1.1,2.4,0.3,4.4-0.7,8.3c-0.4,1.4-0.4,4.2-1.3,5.3c-0.1,0.2-0.3,0.2-0.4,0.2C25.3,103.8,24.1,102.4,23.2,103.2 M19.3,65.7l0.7-2.9
		c0.1,1.2,0.1,2.7,0,4.2C19.8,66.6,19.6,66.2,19.3,65.7"/>
	<path class="st15" d="M101,65.8c-0.6,3.8-2.8,2.7-4.6,2.4L95.3,70C95.5,67.4,98.7,65.7,101,65.8"/>
	<path class="st16" d="M72.1,61.2c0-0.1,0-0.2,0-0.3c0.3-1.1,1.7-6.7,4-11.5c1.1-1.7,1.8-2.9,2.2-3.8c1.3-1.8,2.8-3.1,4.5-3.4
		c0,0-10,18.2-4.3,26.4v1.8C78.6,70.4,73.6,69.3,72.1,61.2 M76.8,68.6c-4.6-7.1,4.3-23.9,4.3-23.9C69.3,57.9,76.8,68.6,76.8,68.6
		L76.8,68.6"/>
	<path class="st17" d="M74.7,69.3c0.2,0.1,0.4,0.2,0.6,0.2l0.3,0.4C75.7,70,75.3,69.8,74.7,69.3"/>
	<path class="st18" d="M74.7,69.3c-0.5-0.4-1-1-1.5-1.9c0.3,0.3,0.7,0.6,1.1,0.8l1.1,1.3C75.1,69.5,74.9,69.4,74.7,69.3 M70.3,57.9
		c0.4-5.4,8.6-14.6,8.6-14.6s0.6,0.1-0.5,2.4c-0.8,1.1-1.5,2.4-2.2,3.8c-0.5,0.8-1.2,1.7-1.9,2.8c-0.2,0.2-1.4,4.7-1.4,5
		c-0.4,1.4-0.6,2.6-0.7,3.7c0,0.1,0,0.2,0,0.2c0,0,0,0.1,0,0.1c-0.2,2.9,0.3,4.8,1.1,6.2C69.1,63.7,70.3,57.9,70.3,57.9"/>
	<path class="st19" d="M72.1,61.1c0,0,0-0.1,0-0.2c0,0.1,0,0.2,0,0.3C72.1,61.2,72.1,61.1,72.1,61.1 M78.4,45.6
		c-0.4,0.9-1.1,2.1-2.2,3.8C76.8,48,77.6,46.7,78.4,45.6"/>
	<path class="st20" d="M85.3,57C85.3,57,85.3,57,85.3,57c0,0.5-0.1,0.9-0.2,1.3c-0.1,0-0.1,0.1-0.2,0.1C85,58,85.2,57.5,85.3,57"/>
	<path class="st21" d="M85.3,57c0-0.1,0-0.1,0-0.2c0-0.1,0.1-0.3,0.1-0.4C85.4,56.6,85.4,56.8,85.3,57C85.3,57,85.3,57,85.3,57"/>
	<path class="st22" d="M81.1,62.2C81.4,45.7,85,46.1,85,46.1c0.8,4,0.8,7.5,0.5,10.3c0,0.1-0.1,0.3-0.1,0.4
		c-0.1,0.6-0.3,1.1-0.4,1.6c-0.2,0.1-0.3,0.2-0.5,0.3c-1.1,0.8-2,5-2.6,6.3c-0.3,0.5-0.5,1.1-0.7,1.7V62.2"/>
	<path class="st23" d="M84.9,58.4c0.1,0,0.1-0.1,0.2-0.1c-0.4,2.1-1.1,3.7-1.7,5C83.9,62,84.4,60.4,84.9,58.4"/>
	<path class="st24" d="M81.1,66.7c0.2-0.6,0.5-1.2,0.7-1.7c0.6-1.3,1.5-5.5,2.6-6.3c0.2-0.1,0.3-0.2,0.5-0.3
		c-0.5,1.9-1.1,3.6-1.6,4.9C82.2,65.7,81.1,66.8,81.1,66.7L81.1,66.7"/>
	<path class="st24" d="M66.7,52.1c-0.5-0.3-1.1-0.5-1.7-0.6c0,0,0-0.1,0-0.1c0,0,5-3.9,2.5,1.1c0,0-3.3,3.9,1,11.8
		C66,60.8,64.9,56.6,66.7,52.1"/>
	<path class="st25" d="M65,51.5c0.6,0.1,1.2,0.3,1.7,0.6c-1.8,4.5-0.7,8.7,1.8,12.2c0.6,1.1,1.3,2.3,2.2,3.5
		C70.7,67.9,61.8,62.9,65,51.5"/>
	<path class="st26" d="M10.6,41.5c-0.1,0.1-0.1,0.2-0.2,0.3c-0.2,0.1-0.4,0.2-0.6,0.3C10.1,41.9,10.3,41.7,10.6,41.5"/>
	<path class="st27" d="M55.3,40.4c-7.7-2.3-16.5-4-24.5-4.9c-7.9-0.9-13.8,2.8-20.4,6.3c0.1-0.1,0.1-0.2,0.2-0.3
		c8.5-7.1,16.2-17,28-17.5c6.9-0.3,14.3-1.4,20.7,1.4c6.2,2.7,25.7,8.2,25.3,14.3l-0.8,0.1c-0.1-0.5-0.2-1-0.3-1.5l-0.7,0.4
		c0,0.5,0.1,0.9,0.2,1.3l-3.4,0.5c-3.7,3.2-6.9,4.3-10,4.3C64.9,44.7,60.6,42,55.3,40.4"/>
	<path class="st28" d="M88.5,53.9c-3.2-2.9-1.2-3.1-2-7.1c-0.3-3.1-1.5-4.1-2.4-4.5c-0.5-0.8-0.9-1.5-1.1-2.4l0.9-0.1
		c0.8,3.1,2.6,4.9,4.8,6.2c1.8,2.6,4.4,4,8.7,4.1c0.2,0.1,0.3,0.2,0.5,0.3c2.6,1.6,3.4,4,5,6.4c1.7,2.6,4.4,4.9,0,5.4
		c-0.2,0-0.4,0-0.7,0C97.6,62.2,91.5,56.6,88.5,53.9"/>
	<path class="st26" d="M86.5,46.8c-0.4-1.7-1.5-3-2.4-4.4c1,0.4,2.2,1.5,2.4,4.5C86.5,46.9,86.5,46.8,86.5,46.8"/>
	<path class="st29" d="M82.8,38.6l0.7-0.4c0.1,0.5,0.2,1.1,0.3,1.5L83,39.9C82.9,39.5,82.8,39.1,82.8,38.6"/>
	<path class="st30" d="M92.5,46.3c0,0-0.1-0.2-0.4-0.6c0.2,0.2,0.4,0.4,0.6,0.7C92.6,46.3,92.6,46.3,92.5,46.3 M88.2,40.8L88.2,40.8
		c0.2,0.2,0.4,0.4,0.6,0.7C88.6,41.3,88.4,41.1,88.2,40.8"/>
	<path class="st3" d="M97.4,50.1c-2.8-1.6-6.1-2.5-8.7-4.1c-1.3-1.9-2.2-4.3-3.2-7.3c0.8,0.9,1.7,1.7,2.7,2.4v-0.3
		c0.2,0.2,0.4,0.5,0.6,0.7c1.1,1.4,2.1,2.9,3.3,4.2c0.3,0.4,0.4,0.6,0.4,0.6c0.1,0,0.2,0,0.2,0.1c0,0,0.1,0.1,0.1,0.1
		c2,1.9,4.2,2,6.3,3.6c-0.5,0-0.9,0-1.3,0C97.6,50.1,97.5,50.1,97.4,50.1"/>
	<path class="st31" d="M88.6,46c2.6,1.6,5.9,2.5,8.7,4.1C93,50,90.5,48.6,88.6,46"/>
	<path class="st32" d="M93.8,46c0.3,0.1,0.6,0.2,0.9,0.4c0,0.2,0,0.3,0,0.5C94.6,46.8,94.3,46.5,93.8,46"/>
	<path class="st33" d="M93.8,46c-0.7-0.8-1.8-2-2.4-3.1c0,0,5.3-4.6,12.5-7.1c0,0-8.6,6.3-9.2,10.6C94.4,46.2,94.1,46.1,93.8,46"/>
	<path class="st34" d="M108.4,43.1c1-1,1.6-1.7,1.6-1.7l-3.2,5l-1.1,1.6L108.4,43.1"/>
	<path class="st24" d="M100.7,49.3c2.4-1,5.8-4.2,7.7-6.2l-2.8,4.9l-2.1,3C101.8,50.4,100.7,49.3,100.7,49.3"/>
	<path class="st35" d="M81.1,44.7c0,0-8.9,16.8-4.3,23.9C76.8,68.6,69.3,57.9,81.1,44.7"/>
	<path class="st36" d="M28.5,89.9c-0.4-0.9-1-1.8-1.9-2.9c-0.7-0.8-1.3-1.6-1.9-2.4c1.1,1.4,2.5,2.6,4.3,3.2V90
		C28.9,90,28.8,90,28.5,89.9"/>
	<path class="st37" d="M20.7,76.4c0,0,1.1,4.7,3.9,8.2c0.6,0.8,1.3,1.6,1.9,2.4c0.9,1.1,1.6,2,1.9,2.9
		C26.9,89.6,21.3,87.5,20.7,76.4"/>
	<path class="st38" d="M68,64.5c-2,7.1,0.5,15.8,3.6,22.2c4.8,9.8,10.4,8.8,19.9,7.7c-9.6,3.3-18.2,1.8-23.3-8.1
		c-2.3-4.4-5.6-18.2-1.9-23.5"/>
	<path class="st38" d="M77.9,93.7c-1.2-2.4-4.9-3.8-5.8-1.2c-0.5,1.5,0.3,5.5,1.3,6.7c2.1,2.5,3.9,0.4,4.8-1.9
		c1.2-3.4-0.5-3.3-2.6-5.2"/>
	<path class="st38" d="M78.5,95.5c3.1-1.9,6.1-2.7,4.9,2.1c-1.4,5.5-5,1.3-4.9-2.3"/>
	<path class="st39" d="M73.9,92c-2.9,0.9-0.4,8.2,1.6,7.3c-1.3-2.1-1.9-4.4-1.7-6.9"/>
	<path class="st40" d="M82.4,94.6c2.4,1.3-1,3.9-1.5,5.1c2.3-0.2,2.5-3.5,2.4-5.2"/>
	<path class="st41" d="M78.5,95c-2,0.5-0.3,2.9,1,1.1c1.2-1.7-1.4-2.8-1.9-0.9"/>
</g>
</svg>
