<?xml version="1.0" encoding="utf-8"?>
<!-- Generator: Adobe Illustrator 22.0.0, SVG Export Plug-In . SVG Version: 6.00 Build 0)  -->
<svg version="1.1" id="图层_1" xmlns="http://www.w3.org/2000/svg" xmlns:xlink="http://www.w3.org/1999/xlink" x="0px" y="0px"
	 viewBox="0 0 300 128" style="enable-background:new 0 0 300 128;" xml:space="preserve">
<style type="text/css">
	.st0{fill-rule:evenodd;clip-rule:evenodd;fill:url(#SVGID_1_);}
	.st1{fill-rule:evenodd;clip-rule:evenodd;fill:url(#SVGID_2_);}
</style>
<linearGradient id="SVGID_1_" gradientUnits="userSpaceOnUse" x1="71.1256" y1="85.6284" x2="66.767" y2="23.2982">
	<stop  offset="0" style="stop-color:#94C23E"/>
	<stop  offset="1" style="stop-color:#C2D243"/>
</linearGradient>
<path class="st0" d="M96.4,12.6c5.1,4.7,9.5,10.3,12.9,16.9c15.4,29.8,3.5,66.7-26.6,82.2c-18.5,9.6-39.7,8.9-56.8-0.1
	c13.5,1,27.2-5.6,37.7-13.6c6.8-5.2,12.8-11.4,18-18.2c5.1-6.7,9.4-14.2,12.7-22c3-7.4,5.1-15.2,5.6-23.2c0.5-6.8-0.2-13.7-2.6-20.1
	C97,13.9,96.7,13.3,96.4,12.6z"/>
<radialGradient id="SVGID_2_" cx="48.7089" cy="52.9393" r="67.1203" gradientUnits="userSpaceOnUse">
	<stop  offset="0" style="stop-color:#FFCA02"/>
	<stop  offset="1" style="stop-color:#F4811F"/>
</radialGradient>
<path class="st1" d="M28.8,20.4C35,14.3,43,10.2,43.4,14.5c1.1,9.3,1.7,18.9,2.9,28.7c0.2,2.7-1.7,4.9-3.8,4
	c-3.7-1.8-7.4-3.3-11.1-5c-3.6-1.8-7.2-3.5-10.8-5.2C17.4,35,22.5,26.5,28.8,20.4L28.8,20.4z M69.4,83.9c-6.8,7-15.8,11.5-16.3,6.3
	c-1.3-11-2.6-21.8-3.8-32.2c-0.2-2.8,2.2-5.3,4.3-4.4c3.9,1.9,7.8,3.8,11.8,5.7c4,1.9,8.1,3.9,12.2,5.9C81.4,67.4,76.1,77,69.4,83.9
	L69.4,83.9z M6.6,56.2C4,64.4,4.3,72.5,9.3,70.1C19.6,64.8,29.7,58.4,40.1,53c2.8-1.5,3.7-3.4,1.7-4.3c-4-1.4-8-2.7-11.9-4.1
	c-3.9-1.3-7.7-2.7-11.5-4C14.9,39.3,9.1,48.1,6.6,56.2L6.6,56.2z M91.6,44.5c1.9-8.3,0.7-16.3-4.4-13.9C76.7,36,66.7,41.6,56.3,46.9
	c-2.8,1.5-4,4.4-1.9,5.3c4.1,1.4,8.3,2.9,12.5,4.3c4.3,1.5,8.6,3,12.9,4.5C83.8,62.6,89.6,53,91.6,44.5L91.6,44.5z M7.5,91.1
	c-3-5.6-2.8-14.6,1.9-17.3C19.7,67.7,30,61.6,40.3,55.4c2.8-1.5,3.7,0,1.8,3.1c-3.6,5.7-6.9,11.8-10.5,17.6C28,82,24.2,88,20.5,93.9
	C16.7,99.7,10.5,96.8,7.5,91.1L7.5,91.1z M87.1,11.2c3.6,4.8,4.3,13.1-0.5,15.8c-10.3,6.1-20.6,11.8-31,18c-2.8,1.5-4,0.1-2.2-2.9
	c3.5-5.5,6.9-11,10.4-16.5c3.4-5.4,6.7-10.8,10.1-16.1C77.3,4.5,83.6,6.5,87.1,11.2L87.1,11.2z M33.4,103.8
	c7.3-0.8,15.8-5.7,15.8-11.5c-0.4-11.5-0.8-22.7-1.3-33.7c-0.2-2.8-2-2.5-3.8,0.6c-3.3,5.9-7.4,11.8-10.7,17.7
	c-3.4,6-6.8,12.1-10.2,18.2C20,100.9,26.2,104.5,33.4,103.8L33.4,103.8z M61.2,2.2c6.7-1.1,12.8,1.5,9.9,6.4
	c-3,5.4-6.1,10.9-9.2,16.4c-3.1,5.5-6.7,10.7-9.9,16.3c-1.8,3-3.9,3.9-4,1.1c-0.4-10.2-0.8-20.2-1.1-30C46.9,7.8,54.6,3.3,61.2,2.2z
	"/>
<g>
	<path d="M202,65.3c0.9,0.3,1.3,0.7,1.3,1.1s-0.6,0.6-1.7,0.4c-2.3-0.3-4.3-0.8-6-1.4c-1.6-0.6-2.9-1.3-3.9-2
		c-2.6-1.9-5-3.7-7.2-5.5c-2.2-1.8-4-3.4-5.5-4.9c-0.6-0.6-1.3-1.3-2.1-2c-0.8-0.7-1.7-1.4-2.6-2.1c-0.9-0.7-1.8-1.3-2.6-1.9
		s-1.6-1.1-2.2-1.4c-0.9-0.5-1.8-0.8-2.7-1c-1.3,1.6-2.6,3.4-3.9,5.3c-1.3,1.9-2.4,3.7-3.3,5.3c-1.3,2.3-2.5,4.2-3.6,5.9
		c-1.1,1.7-2.2,3.2-3.2,4.6c-1,1.4-2.1,2.6-3.1,3.7c-1,1.1-2.1,2.2-3.3,3.3c-0.9,0.8-1.6,1.3-2.3,1.6c-0.6,0.3-1.1,0.3-1.4,0.3
		c-0.3-0.1-0.5-0.2-0.4-0.5c0.1-0.2,0.5-0.6,1.2-1.2c2-1.8,4-3.8,5.9-5.9c1.9-2.2,3.6-4.6,5.1-7.2c2.8-4.9,5.2-8.9,7.3-12
		c2.1-3.1,4-5.6,5.7-7.6c0.6-0.7,0.9-1.3,0.8-1.6c-0.1-0.4-0.7-0.8-1.8-1.3c-1.2-0.6-1.7-1.1-1.5-1.4c0.3-0.3,1-0.2,2.2,0.2
		c1.4,0.4,2.5,0.9,3.5,1.5c0.5,0.3,0.7,0.7,0.7,1.1c-0.1,0.5-0.4,0.9-0.9,1.3c-0.2,0.2-0.6,0.6-1.1,1.1c-0.5,0.5-1.1,1.2-1.7,2.1
		c0.6,0,1.3,0.3,2.2,0.8c1.3,0.6,2.8,1.6,4.5,2.8c1.7,1.3,3.7,2.9,5.9,5c3.3,3.1,6.1,5.5,8.6,7.3c2.4,1.8,4.2,2.9,5.3,3.4
		c1.8,0.7,3.3,1.3,4.4,1.7C199.9,64.6,200.9,65,202,65.3z M178.4,85.1c2.8,0,4.7,0.4,5.6,1.2c0.5,0.6,0.7,1.2,0.7,1.6
		c-0.1,0.4-0.6,0.4-1.7,0.1c-0.7-0.3-1.4-0.4-2.1-0.6c-0.7-0.1-1.6-0.2-2.6-0.2c-1,0-2.1,0-3.4,0.1c-1.3,0.1-2.7,0.2-4.4,0.4
		c-1.5,0.2-3.2,0.4-5.1,0.8c-1.9,0.4-3.6,0.9-5.1,1.4c-1.4,0.6-2.6,0.8-3.4,0.7c-0.8-0.1-1.4-0.3-1.8-0.6c-0.5-0.3-0.6-0.7-0.5-1
		c0.1-0.3,0.6-0.5,1.3-0.6c1.1,0,2.4-0.2,3.8-0.4c1.4-0.3,3-0.6,4.8-1.1c0.6-0.1,1.1-0.2,1.5-0.4c0.4-0.1,0.9-0.2,1.3-0.2
		c0.2-2,0.4-3.7,0.5-5.3c0.1-1.6,0.2-3.1,0.3-4.4s0.2-2.6,0.2-3.8c0.1-1.2,0.1-2.4,0.1-3.6c-1.2,0.4-2.3,0.9-3.3,1.3
		c-1.1,0.4-2,0.8-2.7,1.1c-2,1.1-3.3,1-4-0.3c-0.3-0.5-0.4-0.9-0.3-1.4c0.1-0.4,0.4-1,1-1.8c0.9-1.2,2.2-2.5,3.7-3.8
		c1.5-1.3,3.3-2.9,5.3-4.7l-0.2-0.6c-1.1,0.4-2.1,0.7-2.8,0.9c-0.8,0.2-1.5,0.3-2,0.3s-1-0.1-1.4-0.2c-0.4-0.1-0.8-0.4-1.2-0.7
		c-0.7-0.5-0.6-0.8,0.4-0.8c0.6,0,1.3,0,2.1-0.2c0.9-0.1,1.9-0.4,3.2-0.9c0.3-0.1,0.8-0.3,1.3-0.4c0.5-0.1,1.1-0.3,1.7-0.5
		c0.6-0.2,1.1-0.3,1.7-0.5c0.6-0.1,1-0.3,1.5-0.4c0.7-0.3,1.3-0.3,1.7-0.2c0.4,0.1,0.8,0.3,1.2,0.6c1.1,0.9,0.7,1.4-1.2,1.5
		c-0.5,0-1,0.2-1.5,0.4c-0.5,0.2-1.3,0.8-2.3,1.6c0,0.4,0.1,0.9,0.2,1.4c0.1,0.5,0.1,1.1,0.1,1.7c0.1,0.6,0.1,1.2,0.1,1.8
		c0,0.6,0,1.2,0,1.9c0.5-0.2,1-0.4,1.5-0.6c0.5-0.2,1.1-0.4,1.8-0.6c0.6-0.2,1.1-0.3,1.5-0.3s0.9,0.2,1.5,0.6
		c0.4,0.3,0.6,0.5,0.5,0.8c-0.1,0.3-0.6,0.5-1.7,0.7c-1.5,0.3-3.3,0.8-5.2,1.5c-0.1,3.9-0.3,8.4-0.8,13.4c1.3-1.1,2.5-2.2,3.7-3.4
		c1.2-1.1,2.1-2.1,2.7-2.9c0.5-0.5,0.8-0.9,0.8-1.1c0-0.2-0.1-0.5-0.3-0.7c-0.2-0.2-0.4-0.4-0.6-0.6s-0.4-0.4-0.8-0.8
		c-0.3-0.2-0.3-0.4-0.1-0.6s0.7-0.1,1.6,0.3c0.6,0.2,1,0.5,1.4,0.9s0.7,0.7,1,1c0.3,0.3,0.4,0.7,0.4,1.1c-0.1,0.4-0.4,0.8-0.9,1.2
		c-2,1.8-3.7,3.3-5.1,4.4s-2.7,2.1-3.9,2.8c0,0.3-0.1,0.7-0.1,1.1c0,0.4-0.1,0.8-0.1,1.2c0.4,0,0.8-0.1,1.2-0.1
		c0.4,0,0.8-0.1,1.3-0.1c0.7-0.1,1.3-0.2,1.8-0.3c0.5-0.1,1-0.1,1.5-0.2c0.5,0,1-0.1,1.5-0.1C177,85.1,177.7,85.1,178.4,85.1z
		 M161.3,82.5c-0.8,1.3-1.5,1.4-2.1,0.3c-0.5-0.9-0.8-1.9-1.1-3.1c-0.2-1.2-0.3-2.5-0.2-4c0.1-0.7,0.3-1.1,0.6-1.1
		c0.3,0,0.5,0.4,0.6,1.2c0.1,0.5,0.2,1,0.3,1.5c0.1,0.5,0.2,0.9,0.4,1.2c0.3,0.6,0.5,1,0.7,1.1c0.2,0.1,0.4,0,0.8-0.4
		c0.6-0.6,1.3-1.3,2-1.9c0.7-0.6,1.6-1.3,2.6-2.1c0.9-0.8,1.4-1.1,1.6-0.9c0.2,0.2-0.1,0.7-0.9,1.5c-1.2,1.3-2.3,2.5-3.2,3.5
		C162.6,80.5,161.9,81.5,161.3,82.5z M168.1,67.3c0.2-0.1,0.3-0.5,0.3-1.2s0-1.5-0.1-2.5c0-0.5,0-1,0-1.4c0-0.4-0.1-0.8-0.1-1.1
		c-0.2,0.2-0.4,0.3-0.6,0.4c-0.2,0.1-0.4,0.3-0.6,0.5c-1.4,1.1-2.7,2.1-3.8,2.9c-1.1,0.9-2.2,1.9-3.3,3c-0.2,0.3-0.4,0.5-0.4,0.9
		c-0.1,0.3,0,0.6,0.1,0.8c0.1,0.2,0.3,0.4,0.6,0.4c0.3,0.1,0.6,0.1,1-0.1c1.2-0.5,2.4-0.9,3.4-1.3S166.8,67.8,168.1,67.3z"/>
	<path d="M230.9,55c-0.1,1.1-0.2,2.2-0.4,3.4c-0.1,1.2-0.2,2.7-0.3,4.3c-0.1,0.7-0.1,1.3-0.2,1.9c0,0.6-0.1,1.2-0.1,1.8
		c0.4-0.6,0.8-1.1,1.2-1.7c0.4-0.6,0.8-1.2,1.2-1.9c0.9-1.3,1.4-1.9,1.6-1.6s-0.2,1.2-1.2,2.8c-0.5,0.8-0.9,1.6-1.4,2.4
		s-1,1.5-1.5,2.2c-0.2,3.7-0.4,6.7-0.4,9.2c-0.1,2.4-0.1,4.2,0,5.4c0,0.8,0.1,1.5,0.1,2.1c0,0.6,0.1,1.1,0.1,1.7s0,1,0,1.5
		s0,1-0.1,1.5c-0.1,1.1-0.2,1.6-0.4,1.6c-0.2,0-0.5-0.5-1-1.7c-0.5-1.2-0.8-2.9-0.9-5c-0.1-2.1-0.1-4.2,0.1-6.4
		c0.1-0.9,0.2-1.9,0.3-3.1c0.1-1.2,0.2-2.5,0.3-3.9c-2,2.7-4.3,5.2-6.9,7.5c-0.9,0.8-1.5,1.1-1.9,1c-0.4-0.1-0.7-0.4-1-1.1
		c-0.2-0.6-0.4-1.2-0.4-1.6c-0.1-0.4,0.1-0.8,0.5-1.2c0.2-0.2,0.4-0.4,0.7-0.6c0.3-0.3,0.6-0.6,1-0.9c1.6-2.3,2.9-4.4,3.9-6.3
		c1-1.9,2-3.9,2.8-5.8c0.5-1,0.9-1.9,1.2-2.6c0.4-0.7,0.7-1.3,1-1.7c0-0.4,0.1-0.8,0.1-1.2c0-0.4,0.1-0.8,0.2-1.2
		c-2,0.9-3.9,1.9-5.8,2.9c-1.9,1-3.4,2-4.5,2.8c-1.2,0.9-2.1,1.4-2.6,1.5c-0.5,0.1-1.1,0-1.6-0.2c-0.5-0.2-0.9-0.5-1.3-0.7
		c-0.4-0.3-0.8-0.6-1.1-1c-1.1-1.2-0.9-1.6,0.6-1.1c1.1,0.4,2,0.5,2.7,0.4c0.7-0.1,1.6-0.5,2.6-1.1c2-1.2,4-2.3,5.9-3.3
		c1.9-1,3.7-1.9,5.3-2.6c0-0.2,0-0.4,0-0.5c0-0.1,0-0.3,0-0.5c0.2-2.2,0.3-3.9,0.4-5.3c0.1-1.3,0-2.4-0.1-3.2
		c-0.1-0.8-0.3-1.4-0.5-1.9c-0.2-0.4-0.5-0.8-0.9-1.2c-0.8-0.9-1.1-1.4-1-1.5c0.2-0.1,0.7,0,1.7,0.5c1.1,0.6,1.9,1.5,2.5,2.7
		c0.5,1.2,0.6,3.1,0.3,5.6c-0.1,0.8-0.2,1.5-0.3,2.2c-0.1,0.7-0.2,1.5-0.3,2.2c0.4-0.2,0.8-0.3,1.2-0.5c0.4-0.2,0.7-0.3,1.1-0.4
		c1-0.4,1.9-0.4,2.5,0.1c0.4,0.3,0.5,0.6,0.4,0.9c-0.1,0.3-0.7,0.6-1.7,1c-0.6,0.2-1.1,0.4-1.8,0.6C232.1,54.5,231.5,54.8,230.9,55z
		 M220.8,76.2c1.4-1.2,2.7-2.4,3.9-3.5c1.1-1.1,2.2-2.3,3.3-3.5c0.1-1.1,0.2-2.1,0.3-3.3c0.1-1.1,0.2-2.3,0.3-3.4
		c-1,2.4-2.1,4.7-3.3,6.9C223.9,71.5,222.4,73.8,220.8,76.2z M262.3,51.2c0.9,0.7,1.2,1.2,1.1,1.5c-0.1,0.3-0.9,0.4-2.1,0.3
		c-0.7,0-1.9,0.1-3.6,0.3s-3.5,0.6-5.6,1.1c-0.1,1.4-0.2,2.6-0.2,3.7c0,1.1-0.1,1.8-0.1,2.2c-0.1,1-0.3,1.8-0.4,2.5
		c-0.1,0.7-0.3,1.3-0.4,1.7c1.1-0.4,2.1-0.8,3-1.1c0.9-0.3,1.5-0.6,1.9-0.8c0.7-0.3,1.5-0.5,2.4-0.4s1.7,0.4,2.5,1.1
		c0.9,0.7,1.4,1.3,1.4,1.8c0,0.5-0.4,0.7-1.1,0.6c-0.6,0-1.4,0-2.2,0.2c-0.9,0.2-2.1,0.7-3.9,1.4c-0.7,0.3-1.1,0.4-1.3,0.3
		c-0.2-0.1-0.1-0.3,0.4-0.5c1.1-0.7,2-1.2,2.6-1.7c0.6-0.4,1-0.7,1.2-1c0.2-0.2,0.2-0.3,0-0.4c-0.2,0-0.4,0-0.8,0.1
		c-1.4,0.4-2.7,0.9-3.8,1.3c-1.1,0.4-2.2,0.9-3.4,1.3c-1.1,0.5-2.1,0.9-2.9,1.2c-0.8,0.3-1.6,0.5-2.3,0.6c-0.7,0.1-1.5,0.1-2.3,0
		c-0.8-0.1-1.8-0.3-2.9-0.6c-0.7-0.2-1-0.4-0.9-0.6c0.1-0.2,0.6-0.3,1.6-0.3c1.1,0,2.2-0.1,3.3-0.3c1.1-0.2,2.1-0.4,2.9-0.7
		c0.3-0.1,0.7-0.3,1.2-0.4c0.5-0.2,1-0.4,1.5-0.6c-0.1-0.3-0.1-0.9,0-1.6c0.1-0.7,0.3-1.8,0.6-3.3c0.1-0.3,0.1-0.9,0.2-1.9
		c0-1,0.1-2.2,0.2-3.5c-1.4,0.3-2.7,0.6-4,0.9c-1.3,0.3-2.5,0.6-3.6,1c-0.7,0.2-1.3,0.4-1.8,0.4c-0.5,0.1-0.9,0.1-1.3,0
		c-0.4-0.1-0.8-0.2-1.2-0.4c-0.4-0.2-0.9-0.6-1.5-1.1c-0.3-0.3-0.5-0.5-0.4-0.7c0-0.2,0.2-0.3,0.6-0.2c0.9,0.4,1.7,0.5,2.5,0.4
		c0.7-0.1,1.6-0.3,2.7-0.5c1.4-0.3,2.9-0.7,4.2-1c1.4-0.3,2.7-0.6,3.9-1c0-1.1,0.1-2.1,0.1-3.2c0-1.1,0.1-2.1,0.1-3
		c0-0.9,0-1.8,0-2.5s0-1.2,0-1.5c0-0.7-0.1-1.3-0.1-1.9c0-0.5-0.2-0.9-0.4-1.3c-0.2-0.4-0.6-0.7-1.1-0.9c-0.5-0.2-1.2-0.4-2.2-0.6
		c-0.5,0-0.8-0.1-1-0.3c-0.2-0.1-0.3-0.3-0.1-0.4c0.1-0.1,0.4-0.2,1-0.3c0.5-0.1,1.2,0,2.2,0.1c1.6,0.2,2.7,0.6,3.2,1.2
		s0.8,1.5,0.9,2.9c0,0.4,0,1,0,1.8c0,0.8,0,1.7-0.1,2.7c0,1-0.1,2.1-0.1,3.3c0,1.2-0.1,2.3-0.1,3.5c1.1-0.3,2.1-0.6,3-0.8
		c0.9-0.2,1.6-0.5,2.2-0.7c0.9-0.3,1.8-0.4,2.7-0.4C261,50.4,261.7,50.7,262.3,51.2z M253,72.7c1.3-0.5,2.5-0.7,3.4-0.6
		c1,0.1,2,0.6,3.1,1.6c0.6,0.6,1,1.4,1.1,2.3c0.1,0.9-0.1,2-0.7,3.1c-0.2,0.3-0.4,0.7-0.6,1.1c-0.2,0.4-0.4,0.8-0.6,1.2
		c-0.2,0.5-0.5,1-0.7,1.6c-0.3,0.6-0.6,1.3-1,2.1c0.5,0,0.8,0,1.1,0c0.2,0.1,0.4,0.2,0.5,0.4c0.4,0.6,0.5,0.9,0.3,1.2
		c-0.2,0.2-0.7,0.3-1.6,0.3c-0.6,0-1.2,0-1.9,0.1c-0.7,0.1-1.6,0.2-2.6,0.4s-2.2,0.4-3.5,0.7c-1.3,0.3-2.9,0.6-4.7,1h-0.1
		c0,0.2,0.1,0.4,0.1,0.6c0,0.2,0.1,0.3,0.1,0.5c0.2,1.1,0.2,1.8,0.1,1.9c-0.1,0.2-0.6-0.3-1.4-1.4c-0.6-0.9-1.2-2-1.7-3.5
		c-0.5-1.5-0.9-3.1-1.1-4.8c-0.3-1.7-0.5-3.4-0.6-5c-0.1-1.6-0.1-3,0-4c0.2-1.5,0.5-2.2,1-2.3c0.4,0,0.6,0.5,0.5,1.6
		c-0.1,0.9-0.2,1.7-0.2,2.3c0,0.7,0,1.4,0.1,2.1c1.5-0.6,2.8-1,3.7-1.4c1-0.4,1.8-0.7,2.6-1.1c0.8-0.3,1.5-0.6,2.3-1
		C250.8,73.5,251.8,73.1,253,72.7z M257.9,77.6c0.3-1.3,0.2-2.3-0.3-3c-0.6-0.7-1.7-0.8-3.4-0.3c-1.3,0.4-2.5,0.8-3.4,1.1
		c-1,0.3-1.9,0.7-2.7,1c-0.9,0.3-1.8,0.7-2.7,1.1c-1,0.4-2.1,0.9-3.4,1.4c0.4,1.6,0.8,3.1,1.2,4.4c0.4,1.4,0.7,2.6,1,3.8
		c1.4-0.3,2.6-0.6,3.6-0.8c1-0.3,1.9-0.5,2.7-0.6c0.8-0.2,1.5-0.3,2.2-0.4c0.7-0.1,1.3-0.2,2-0.3h0.4c0.7-1.4,1.3-2.6,1.7-3.8
		C257.1,80.3,257.5,79,257.9,77.6z"/>
</g>
</svg>
