<?xml version="1.0" encoding="utf-8"?>
<!-- Generator: Adobe Illustrator 22.0.0, SVG Export Plug-In . SVG Version: 6.00 Build 0)  -->
<svg version="1.1" id="图层_1" xmlns="http://www.w3.org/2000/svg" xmlns:xlink="http://www.w3.org/1999/xlink" x="0px" y="0px"
	 viewBox="0 0 128 128" style="enable-background:new 0 0 128 128;" xml:space="preserve">
<style type="text/css">
	.st0{fill:#F72B2B;}
</style>
<g>
	<g>
		<path class="st0" d="M113.8,38.5H97.7c1.1-2.2,2-4.7,2.7-7.5c1.8-7.1,1.5-13.3,1.5-13.5l-0.4-9L97,16.3c-2.3,4-5.1,7.5-8.4,10.2
			c-2.6,2.2-5.5,4-8.7,5.3c-2,0.8-3.8,1.3-5.3,1.7H54.2c-5.6-1.3-15.6-5.1-22.4-17.1l-4.5-7.8l-0.4,9c0,0.3-0.3,6.5,1.5,13.5
			c0.7,2.7,1.6,5.2,2.7,7.5H14.9L14.9,41c0,0.3-0.1,8.1,5.6,14c3.5,3.6,8.3,5.7,14.4,6.2c0,7.8,1.1,13.5,3.5,17.4
			c4.2,7.2,5.3,28.4,5.3,36l0,0.7l0.3,0.6c0.4,0.7,1.4,2,4.4,3.1c3.6,1.4,9,2.1,16,2.1c7,0,12.4-0.7,16-2.1c3-1.1,4-2.4,4.4-3.1
			l0.3-0.6l0-0.7c0-7.6,1.1-28.8,5.3-36c2.3-3.9,3.5-9.7,3.5-17.4c6-0.5,10.9-2.6,14.4-6.2c5.7-5.9,5.6-13.7,5.6-14L113.8,38.5z
			 M37,38.5c-2.3-3.7-3.6-8.1-4.2-11.9c1.3,1.5,2.7,2.8,4.2,4c2.2,1.8,4.5,3.4,7.1,4.6c-1.6,0.8-3.4,1.9-4.9,3.2H37L37,38.5z
			 M42.7,72.5c-2-1-2.5-3.9-1.2-6.3c1.3-2.5,3.9-3.6,5.9-2.6c2,1,2.5,3.9,1.2,6.3C47.4,72.3,44.7,73.5,42.7,72.5z M79.9,113.4
			c-0.6,0.4-2,1-4.6,1.5c-1.4-2-4.4-4.8-10.8-4.8v0c0,0,0,0-0.1,0c0,0,0,0-0.1,0v0c-6.5,0-9.5,2.8-10.9,4.8
			c-2.7-0.5-4.1-1.2-4.7-1.5c0-1.1-0.1-2.8-0.2-4.9c3.8-3.3,10.5-11.3,10.8-26.5C59.8,61,45.8,57.8,51,49.8c5.2-8,10.9-6.3,13.5-6.3
			c2.6,0,8.3-1.7,13.5,6.3c5.2,8-8.8,11.2-8.5,32.2c0.2,15,6.9,23,10.7,26.4C80,110.6,80,112.4,79.9,113.4z M86.1,72.5
			c-2,1-4.6-0.1-5.9-2.6c-1.3-2.5-0.7-5.3,1.2-6.3c2-1,4.6,0.1,5.9,2.6C88.6,68.6,88.1,71.4,86.1,72.5z M91.7,38.5h-2.1
			c-1.5-1.3-3.3-2.4-4.9-3.3c2.5-1.3,4.9-2.8,7-4.6c1.5-1.2,2.9-2.6,4.2-4C95.3,30.4,94.1,34.8,91.7,38.5z"/>
	</g>
</g>
</svg>
