<?xml version="1.0" encoding="utf-8"?>
<!-- Generator: Adobe Illustrator 22.0.0, SVG Export Plug-In . SVG Version: 6.00 Build 0)  -->
<svg version="1.1" id="图层_1" xmlns="http://www.w3.org/2000/svg" xmlns:xlink="http://www.w3.org/1999/xlink" x="0px" y="0px"
	 viewBox="0 0 128 128" style="enable-background:new 0 0 128 128;" xml:space="preserve">
<style type="text/css">
	.st0{fill:#F4B571;}
</style>
<path class="st0" d="M84.7,107.2C74.3,112.8,26.4,120,26.4,120s36-2,57.7-5.2c21.7-3.2,33.6-30.1,33.6-30.1L10.6,96.8l95.2-4.2
	C105.9,92.6,95,101.5,84.7,107.2z"/>
<path class="st0" d="M58.5,86.9l47.6-5.4c0,0,11.5-49.5-50.3-74.5C55.8,7,79.7,51.9,58.5,86.9z M64.2,15.6
	c25.5,40.1,1.5,66.8,1.5,66.8C82.4,51.7,64.2,15.6,64.2,15.6z"/>
<path class="st0" d="M53.8,13.2c0,0-11.8,46.6-34.3,78.2l36.3-4.4L53.8,13.2z M25.4,86.9c17-20.5,26.6-59.5,26.6-59.5
	C48.4,66.7,25.4,86.9,25.4,86.9z"/>
<polygon class="st0" points="48.9,99.3 10.6,102.4 11.9,105.4 "/>
<polygon class="st0" points="44.4,108.7 15.5,113.6 16.7,116.6 "/>
<polygon class="st0" points="13.4,108.5 14.6,111.6 55.8,102.4 "/>
</svg>
