<?xml version="1.0" encoding="utf-8"?>
<!-- Generator: Adobe Illustrator 22.0.0, SVG Export Plug-In . SVG Version: 6.00 Build 0)  -->
<svg version="1.1" id="图层_1" xmlns="http://www.w3.org/2000/svg" xmlns:xlink="http://www.w3.org/1999/xlink" x="0px" y="0px"
	 viewBox="0 0 128 128" style="enable-background:new 0 0 128 128;" xml:space="preserve">
<style type="text/css">
	.st0{fill:#F7A41E;}
</style>
<g>
	<path class="st0" d="M96.3,46.6c2.2-0.9,4.1-2.6,5.2-4.9c0.8-1.7,0.4-1.8-1.4-2.3c-0.6-0.2-3.6-0.4-5.9,0.9
		c0.1-0.4,4.6-2.3,5.4-2.8c0.8-0.4,1.8-0.7,2.6-1.1c1.8-0.8,3.4-1.5,4.8-2.9c2.5-2.5,4.9-5.5,6.4-8.7c1.4-3.1,0.9-6.3,2.2-9.4
		c1.3-3,0.9-7.5-1.6-9.9c-1,1.1,2.5,11.3-2.1,8.7c-1.5-0.9-7-10.3-8.2-9.1c-1.7,1.7,2.8,5.8,3.6,7c-1.9-0.8-2.8-3.5-4.5-4.7
		c-1.1-0.8-1.3-0.2-0.8,0.8c0.4,0.8,1.1,1.7,1.7,2.3c2.3,2.4,6.6,4.5,7.2,8c0.2,0.9,0.3,1.9,0.2,2.8c-0.2,1.6-0.7,0.9-0.9-0.3
		c-0.1-0.7-0.2-2.7-0.8-3.2c-0.8-0.8-1,0.5-1.1,1.3c0,1,0.5,1.7,0.8,2.6c0.2,0.7,0.2,2,0.1,2.7c-0.1,1.7-1.3,3.5-2.2,4.9
		c-1.9,2.8-4.7,4.6-7.8,5.8c-1.4,0.5-2.7,0.4-4.1,0.8c-0.7,0.2-1.5,0.8-2.2,1.4c0.7-0.8,1.1-1.7,1.4-2.9c0.4-1.3,1.5-2.8,1.4-4.1
		c-1.3-0.1-2.5,3-3,4c-0.5,0.9-1,1.6-1.5,2.4c-0.2,0.3-0.5,0.6-0.7,0.9c-0.2,0.4-0.1,1.1-0.2,1.3c-0.2,0.4-0.8,0.6-1.3,0.8
		c-1,0.3-2,0.3-2.9,0.3c-0.7,0-2,0.1-2.6-0.2c-1-0.5-0.4-1-0.7-2c-0.4-1.6-2.2-2.8-3.1-4.1c-0.9-1.4-0.9-3.1-1.9-4.5
		c-2.7,1.1,1.7,6.3,1.8,7.8c-0.8-0.1-1.5-0.9-2.3-1.3c-0.9-0.5-1.9-0.8-2.9-1.1c-1.8-0.6-3.6-1.1-5.1-2.3c-3.4-2.5-6-5.7-5.4-10.1
		c0.2-1.1,0.6-2.3,0.4-3.4c-2.1,0.8-1.6,4-2.4,5.6c-1.1-0.7-1.1-2.8-1.2-4c-0.2-2.1,0.3-2.7,2-3.9c1.7-1.1,3-2.6,4.7-3.8
		c1-0.7,3.9-2.1,3.9-3.5c-2.5,0-4.4,2.4-6.7,3.1c0-3.1,4.6-4.5,5.4-7.3c-1.2-0.1-3.4,2.2-4.2,3c-1.3,1.3-2.4,2.8-3.5,4.3
		c-0.7,1-2.5,4-3.6,2.4c-1-1.5-0.7-4.3-0.3-5.9c0.2-0.6,1.7-3,0.5-3.4c-0.6-0.2-1.4,1.6-1.6,2.1c-0.7,1.7-0.7,3.8-0.6,5.6
		c0,1,0,1.9,0.1,2.8c0,0.4,0.1,0.8,0.2,1.2c0,0.1,0.3,0.3,0.3,0.5c0,0.2-0.3,0.6-0.2,0.9c0.1,2,1.6,4.3,2.4,6.1
		c1.8,4.1,5.3,6.5,8.9,9c1.9,1.3,3.7,2.6,5.8,3.5c1.5,0.6,3.6,1.2,4.9,2.2c0.6,0.5,1.3,1.6,0,1.8c-0.9,0.2-1.9-1.2-2.5-1.7
		c-1.1-0.8-4.8-2.1-5.4-0.9c-0.4,0.7,0,2.1,0.1,2.7c0.3,1.3,1.3,1.8,2.1,2.7c0.8,1,1.4,1.9,2.5,2.6c0.8,0.5,1.7,0.3,2.6,0.6
		c0.1,1.4-0.2,2.7-0.6,3.9c1,1.3,2.6,2.2,3.7,3.6c1.1,1.3,1.3,3.2,2,4.7c0.4,1,1.2,1.7,2.3,1.2c1.4-0.6,1.8-2.1,2.5-3.3
		c0.6-1.1,1.6-1.7,2.6-2.3c1.3-0.8,2.3-2,2.4-3.4C93.5,49.3,93.5,47.8,96.3,46.6z M84,49.6c-0.2,0.7-1.2,0.3-1.7,0
		c-0.7-0.4-1.2-1.4-1.2-2.2l0.4-0.2C82.6,46.9,84.5,48.1,84,49.6z M92.6,47.3c0,0.8-0.5,1.8-1.2,2.2c-0.6,0.4-1.5,0.7-1.7,0
		c-0.5-1.4,1.4-2.7,2.5-2.4L92.6,47.3z"/>
	<path class="st0" d="M81.3,121.6c1.5,0.1,3,0.2,4.5-0.1c0.5,1,0.9,2,1.1,3c-1.3,0.1-2.9,0.2-4.1,0
		C80.8,124.4,81.3,123.6,81.3,121.6C81.3,121.7,81.3,121.7,81.3,121.6z"/>
	<path class="st0" d="M36.4,120.3c0.1,0.2,0.1,0.3,0.2,0.5c0.6,1.7,0.8,2.3-1.2,2.6c-0.9,0.1-3.2,0.2-3.8-0.7
		c-0.3-0.5-0.3-1.2-0.2-1.9C33.2,120.9,34.8,120.7,36.4,120.3z"/>
	<path class="st0" d="M31.1,120.8c0.1,0.6,0.2,1.3,0.1,1.9c-1.5,0.1-3.2-0.5-4.4-0.3c-0.1-0.8-0.1-1.6-0.1-2.4
		C28.1,120.4,29.6,120.7,31.1,120.8z"/>
	<path class="st0" d="M31.6,120.3c0.2-1.1,0.5-2.3,0.4-3.1c-0.2-1.1-0.8-2.4-1.3-3.6c-0.5-3.3-0.8-6.7,0-9.9
		c0.2-0.7,0.4-1.4,0.7-2.1c-0.1,0.5-0.1,1.1-0.1,1.8c0,2.9,0.1,5.9,1.2,8.5c1.2,2.7,2.5,5.3,3.6,7.9
		C34.7,120.2,33.2,120.4,31.6,120.3z"/>
	<path class="st0" d="M53.5,120.8c1.3,0.6,2.5,1.1,3.9,1.4c-0.1,0.4-0.2,0.7-0.3,1.1c-0.5,1.6-1,1.5-2.8,1c-1.7-0.5-1.7-0.8-1.2-2.4
		C53.2,121.5,53.3,121.2,53.5,120.8z"/>
	<path class="st0" d="M21.3,69.9c0.4,1.5,1.2,2.8,2,4.2c0.4-4.3,0.9-8.6,2.5-12.7c0.1-0.3,0.6-0.2,0.5,0.1
		c-1.7,4.3-2.2,8.8-2.6,13.4c0.5,1,0.9,2,1.2,3c0.6,2.8,1.2,5.7,2,8.4c0.5,1.4,0.7,2.6,0.7,3.8c-0.2,0.7-0.5,1.3-1,2
		c-0.7,1-2.1,2.1-2.3,3.4c-0.2,1.3,0.7,2.8,0.8,4.1c0.2,1.3,0.3,2.7,0.4,3.9c0.5,5.2,0.7,10.5,1.1,15.9c1.5,0.4,2.9,0.7,4.4,0.8
		c-0.2-0.7-0.4-1.4-0.5-2c-0.3-1.9-0.6-4-0.5-5.9c-0.4-2.9-0.5-5.9,0.2-8.8c0.3-1.4,0.9-2.6,1.5-3.8c0.2-0.9,0.6-1.8,1.1-2.7
		c0.8-0.8,1.5-2,2.1-2.7c0.9-1.1,1.8-2.3,2.7-3.4c0.9-1.2,1.6-2.2,3.1-2.2c0.2,0,0.4,0,0.6,0c1,0.9,2,1.6,3.1,2
		c2.4,0.9,5.9,0.2,8.5,0.2c1.4,0,2.8,0,4.3,0c0.1,2.2,0,4.5-0.1,6.6c-0.1,3-0.7,5.8-0.7,8.6c0,3.2,0.5,5.5-0.6,8.6
		c-0.7,1.9-1.5,3.7-2.2,5.6c1.2,0.6,2.5,1.1,3.8,1.4c0.4-2.3,0.4-4.8,0.8-7c0.5-2.7,1.7-4.8,2.8-7.1c1.1-2.5,0.1-5.5,0.8-8.1
		c0.7-2.8,2.2-5.3,3.2-8.1c2.4,0.2,4.8,0.4,7.2,0.5c1.1,0,2.1-0.1,2.9-0.3c0.4,1.6,0.7,3.2,1.1,4.7c0.7,2.8,1.5,5.5,1.8,8.4
		c0.3,3,2.3,5.3,2.9,8.2c0.5,2.6,0.4,5.4,0.3,8.2c1.4,0.1,2.9,0.2,4.3-0.1c-0.6-1.3-1.3-2.6-1.7-4c-1.8-5.9-1.5-11.8-1.4-18
		c0-3-0.1-6,0-8.9c0.1-2.8,1.5-4.7,2.9-6.8c1.9-1.8,3.7-3.7,5.3-5.8c2.4-3.3,3.2-9.9,3.2-9.9c0.4-2.1,0.2-5.8,0.2-5.8
		c0-2.8-0.2-5.5-0.3-8.3c-0.1,0.2-0.2,0.4-0.3,0.5c-1.2,1.4-3.1,2.1-4.1,3.6c-1,1.5-2.1,5-4.6,3.9c-1.7-0.8-1.8-3.7-2.5-5.1
		c-0.6-1.3-1.9-2.2-3-3.1c-0.4-0.4-0.8-0.7-1.1-1.1c-0.1,0.3-0.2,0.6-0.3,0.8c-0.3,0.7-0.8,1.5-1.2,2.2c-5.1,0-10.5-0.5-15.4,0
		c-6.1,0.5-13-0.1-19-1.2c-2.6-0.5-5.7-1.9-8.4-1.5c-2.3,0.3-4.6,2.3-6.5,3.5c-2.2,1.4-6.3,2.5-7.2,5.3
		C19.4,63.7,20.6,67.7,21.3,69.9z M70.9,57.8c0.2-0.1,0.4-0.1,0.6-0.1c0.3-0.1,0.5,0,0.7,0.1c0.6,0.1,1.2,0.2,1.7,0.4
		c0.7,0.2,0.7,1,0.2,1.4c-1.2,0.8-2.8,0.5-3.7-0.6C70.1,58.5,70.5,57.9,70.9,57.8z M66.1,61.5c0.5-0.4,1-0.6,1.5-0.5
		c0.1-0.1,0.2-0.1,0.3-0.1c0.8,0,1.5,0.2,2,0.8c0.2,0.3,0.2,0.7-0.2,0.8c-1.1,0.3-2.3,0.3-3.4-0.1C66,62.2,65.8,61.7,66.1,61.5z
		 M59.9,58.1c0.5-0.3,1-0.4,1.5-0.4c0.1-0.1,0.1-0.1,0.2-0.1c1.2-0.2,2.4,0.3,3.3,1.1c0.3,0.3,0.1,0.7-0.2,0.8
		c-1.5,0.6-3.6,0.4-4.9-0.6C59.5,58.7,59.6,58.3,59.9,58.1z M55.5,61.2c0.7-0.2,1.7-0.3,2.3,0.1c0.1,0,0.1,0.1,0.2,0.1c0,0,0,0,0,0
		c0,0,0,0,0,0c0,0,0,0,0,0c0.2,0.2,0.1,0.5,0,0.6c-0.1,0.1-0.1,0.1-0.2,0.2c-0.7,0.3-1.6,0.2-2.3-0.1C55,62,55,61.4,55.5,61.2z
		 M47.8,58.1c0.5-0.2,1-0.4,1.5-0.4c0.1-0.1,0.2-0.1,0.3-0.1c1.3-0.1,2.7,0.2,3.6,1.3c0.2,0.2,0.2,0.6-0.1,0.8
		c-1.5,0.9-3.9,0.3-5.3-0.6C47.5,58.8,47.4,58.3,47.8,58.1z M38.7,57c1.4,0.1,2.9,0.7,3.9,1.6c0.3,0.2,0.1,0.6-0.1,0.8
		c-0.1,0.1-0.3,0.2-0.4,0.2c0.1,0.3-0.1,0.6-0.5,0.6c-1.1,0-2.2-0.2-3.2-0.4c-0.8-0.2-2-0.5-2.1-1.5C36.2,57.1,37.9,56.9,38.7,57z"
		/>
</g>
</svg>
