<?xml version="1.0" encoding="utf-8"?>
<!-- Generator: Adobe Illustrator 22.0.0, SVG Export Plug-In . SVG Version: 6.00 Build 0)  -->
<svg version="1.1" id="图层_1" xmlns="http://www.w3.org/2000/svg" xmlns:xlink="http://www.w3.org/1999/xlink" x="0px" y="0px"
	 viewBox="0 0 287.9 121" style="enable-background:new 0 0 287.9 121;" xml:space="preserve">
<style type="text/css">
	.st0{fill:#5E047F;}
	.st1{fill:#9055A2;}
	.st2{fill:#FFFFFF;}
	.st3{fill:#E9F5EA;}
</style>
<path class="st0" d="M116.7,57.8c0,26.8-21.7,48.5-48.5,48.5S19.7,84.6,19.7,57.8S41.4,9.3,68.2,9.3S116.7,31,116.7,57.8z"/>
<path class="st1" d="M114.8,57.8c0,25.7-20.8,46.6-46.6,46.6S21.6,83.5,21.6,57.8s20.8-46.6,46.6-46.6S114.8,32.1,114.8,57.8z"/>
<g>
	<path class="st2" d="M77.3,20.7c-3.8,0-7.2,1.8-9.3,4.6c-2.2-2.3-5.2-3.8-8.6-3.8c-6.4,0-11.6,5.2-11.6,11.6S66,58,69.5,57.8
		C72.6,57.6,89,38.7,89,32.3S83.8,20.7,77.3,20.7z"/>
	<path class="st2" d="M60.9,94.8c3.8,0,7.2-1.8,9.3-4.6c2.2,2.3,5.2,3.8,8.6,3.8c6.4,0,11.6-5.2,11.6-11.6S72.3,57.6,68.8,57.7
		c-3.1,0.2-19.6,19.1-19.6,25.5C49.3,89.6,54.5,94.8,60.9,94.8z"/>
	<path class="st2" d="M106.6,65.7c0-3.8-1.8-7.2-4.6-9.3c2.3-2.2,3.8-5.2,3.8-8.6c0-6.4-5.2-11.6-11.6-11.6S69.3,54.3,69.5,57.8
		c0.2,3.1,19.1,19.6,25.5,19.6C101.4,77.3,106.6,72.1,106.6,65.7z"/>
	<path class="st2" d="M31.7,49.2c0,3.8,1.8,7.2,4.6,9.3c-2.3,2.2-3.8,5.2-3.8,8.6c0,6.4,5.2,11.6,11.6,11.6S69,60.6,68.8,57.1
		c-0.1-3.1-19-19.6-25.5-19.6S31.7,42.7,31.7,49.2z"/>
</g>
<polygon class="st3" points="72.2,56.1 74.7,57.9 72.1,59.4 76.2,65.3 69.6,61.7 67.9,64.1 66.3,61.6 59.4,67.1 64,59.1 61.6,57.3 
	64.2,55.7 59.5,48.5 66.7,53.5 68.4,51.1 70,53.6 77.3,48.9 "/>
<g>
	<path d="M158,44.5c-0.1,2.7-0.2,5.3-0.3,7.7s-0.2,4.8-0.2,7.2c-0.1,2.4-0.1,4.7-0.2,7c-0.1,2.3-0.1,4.8-0.2,7.3c2.9,0,5.3,0,7.1,0
		c1.9,0.1,3.5,0.1,5,0.2c0.9,0.1,1.7,0.1,2.3,0s1.1-0.2,1.4-0.4c0.4-0.2,0.7-0.6,0.8-1c0.2-0.4,0.3-1,0.5-1.6c0.2-0.9,0.3-2,0.5-3.4
		c0.2-1.3,0.4-2.7,0.6-4.2c0.2-1.5,0.4-2.9,0.5-4.4c0.2-1.4,0.3-2.7,0.4-3.9c0.1-1.5,0.4-2.5,1-3c0.5-0.5,1.1-0.5,1.7,0.2
		c0.7,0.8,0.9,2.2,0.6,4.4c-0.3,1.8-0.6,4-0.9,6.6c-0.4,2.7-0.8,6-1.4,10c-0.3,2.3-0.9,3.7-1.7,4.2c-0.8,0.6-2,0.6-3.6,0
		c-0.7-0.3-1.5-0.5-2.3-0.7s-1.9-0.3-3.1-0.4c-1.2-0.1-2.7-0.2-4.3-0.2c-1.7,0-3.7,0-6.1,0c-2.4,0-4.5,0.1-6.1,0.2
		c-1.7,0.1-3.1,0.2-4.3,0.4c-1.2,0.2-2.2,0.4-3,0.7c-0.8,0.3-1.6,0.6-2.3,1c-1.3,0.7-2.4,0.8-3.3,0.4c-0.9-0.4-1.4-1.2-1.4-2.4
		c-0.1-1.3-0.2-2.9-0.3-4.8s-0.3-3.9-0.4-5.9c-0.1-2-0.3-3.9-0.4-5.8c-0.1-1.9-0.2-3.4-0.3-4.7c-0.1-2.1,0-3.5,0.4-4.2
		c0.4-0.6,0.9-0.8,1.5-0.5c0.5,0.3,0.8,0.8,1,1.5c0.2,0.8,0.3,2,0.4,3.6c0.1,3.8,0.2,7,0.3,9.5c0.1,2.5,0.2,4.5,0.4,6
		c0.1,0.8,0.2,1.3,0.3,1.8c0.1,0.4,0.3,0.8,0.6,1s0.7,0.4,1.3,0.4c0.5,0,1.3,0,2.2-0.1c1.5-0.1,3.1-0.2,4.8-0.3
		c1.7-0.1,4-0.2,6.7-0.2c0.1-5.1,0.1-9.9,0.2-14.6s0-9.3-0.1-13.9c0-2.3,0.1-3.9,0.3-4.7c0.3-0.8,0.7-1.3,1.4-1.3s1.2,0.4,1.5,1.1
		C158,41.1,158.1,42.5,158,44.5z"/>
	<path d="M220.7,48.1c0,0.4-0.1,0.8-0.6,1c-0.4,0.3-1.1,0.4-2.2,0.4c-1.5,0-3.3,0-5.5,0.1s-4.7,0.2-7.4,0.4c-1.1,1.5-2.4,2.8-3.8,4
		c-1.4,1.2-3.1,2.4-5,3.6c-0.9,0.5-1.7,0.8-2.5,0.8s-1.4-0.4-1.7-0.9c-0.4-0.7-0.5-1.3-0.3-1.9c0.2-0.6,1.1-1.1,2.5-1.5
		c2.4-0.8,4.4-1.7,5.8-2.6c1.4-0.9,2.6-2.1,3.6-3.6c0.4-0.7,0.8-1.3,1-1.8c0.3-0.5,0.5-1.1,0.6-1.6s0.2-1,0.3-1.6
		c0-0.5,0.1-1.1,0.1-1.8c0-2.5,0.8-3.3,2.4-2.4c0.7,0.4,1.2,0.9,1.4,1.6c0.2,0.7,0.1,1.5-0.3,2.3c-0.8,1.6-1.5,3.1-2.3,4.4
		c2.3-0.1,4.2-0.2,6-0.3c1.7-0.1,3.1-0.2,4-0.3c1.1-0.1,2,0,2.7,0.3C220.3,47.3,220.7,47.6,220.7,48.1z M211.2,76
		c0.1,1.6,0,2.8-0.4,3.6c-0.3,0.8-0.8,1.3-1.4,1.3c-0.5,0-1-0.6-1.4-1.7s-0.5-2.5-0.4-4s0.2-2.9,0.3-4.1c0.1-1.3,0.1-2.5,0.1-3.7
		s0-2.5,0-3.8s-0.1-2.8-0.3-4.4c-0.1-1.5-0.1-2.5-0.1-3.1s0.1-1.1,0.3-1.5c0.3-0.5,0.6-0.8,0.9-1c0.4-0.2,0.7-0.2,1,0
		s0.6,0.6,0.8,1.1s0.3,1.3,0.3,2.2c-0.1,3.5-0.1,6.8-0.1,9.8C211,69.7,211.1,72.8,211.2,76z M231.1,43.3c-0.3,0.6-0.5,1.1-0.7,1.7
		c-0.2,0.5-0.5,1.1-0.8,1.6c3,0,5.7-0.1,8.2-0.2c2.5-0.1,4.4-0.2,5.8-0.3c1.2-0.1,2,0,2.3,0.3s0.2,0.8-0.4,1.5
		c-0.7,0.9-1.5,1.5-2.3,1.8c-0.9,0.3-2.1,0.3-3.5-0.1c-1.1-0.2-2.6-0.4-4.5-0.5s-4.1-0.3-6.6-0.3c-1,1.9-2.1,3.6-3.3,5.2
		c-1.2,1.6-2.4,2.9-3.7,3.9c-1.2,1-2.2,1.5-2.9,1.5s-1.4-0.3-1.9-1c-0.3-0.4-0.4-0.9-0.1-1.5c0.3-0.6,1-1.3,2.3-2.1
		c2.7-1.8,4.8-3.8,6.2-6c1.4-2.1,2.3-4.7,2.5-7.6c0.1-1.4,0.3-2.3,0.6-2.6s0.9-0.2,1.8,0.2c0.8,0.4,1.2,0.9,1.4,1.6
		C231.8,41.1,231.6,42.1,231.1,43.3z M235.1,76c0,0.7,0,1.2,0,1.7c0,0.4,0,0.8-0.1,1.1c-0.1,0.3-0.1,0.6-0.3,0.9
		c-0.1,0.3-0.2,0.6-0.4,0.8c-0.4,0.6-0.8,0.9-1.3,0.9s-0.9-0.4-1.2-1.1c-0.1-0.2-0.1-0.4-0.2-0.7c0-0.3-0.1-0.6-0.1-1s0-0.9,0-1.6
		s0-1.4,0.1-2.4c0-1.1,0.1-2.5,0.1-4.2s0.1-3.5,0-5.3c0-1.8-0.1-3.4-0.1-5c0-1.5-0.1-2.6-0.1-3.2c-0.1-1.2,0-2.2,0.4-2.9
		c0.4-0.8,1-0.9,1.7-0.4c0.3,0.2,0.5,0.4,0.7,0.6c0.2,0.2,0.4,0.5,0.5,0.8s0.2,0.7,0.3,1.2c0,0.5,0,1.1,0,1.9
		c-0.1,1.4-0.2,2.7-0.3,3.8c0,1.1-0.1,2.3-0.1,3.5c0,1.3,0,2.7,0.1,4.4C234.9,71.3,235,73.4,235.1,76z"/>
</g>
<g id="_x31_8hGIZ.tif">
	
		<image style="overflow:visible;" width="220" height="308" id="Layer_0_1_" xlink:href="5252B2C9304EA062.png"  transform="matrix(0.5 0 0 0.5 -153 -47.7)">
	</image>
</g>
</svg>
