<?xml version="1.0" encoding="utf-8"?>
<!-- Generator: Adobe Illustrator 22.0.0, SVG Export Plug-In . SVG Version: 6.00 Build 0)  -->
<svg version="1.1" id="图层_1" xmlns="http://www.w3.org/2000/svg" xmlns:xlink="http://www.w3.org/1999/xlink" x="0px" y="0px"
	 viewBox="0 0 250.9 110.2" style="enable-background:new 0 0 250.9 110.2;" xml:space="preserve">
<style type="text/css">
	.st0{fill:url(#SVGID_1_);}
	.st1{fill:url(#SVGID_2_);}
	.st2{fill:#FFFFFF;}
	.st3{fill:url(#SVGID_3_);}
	.st4{fill:url(#SVGID_4_);}
	.st5{fill:#C32B53;}
	.st6{fill:url(#SVGID_5_);}
	.st7{fill:url(#SVGID_6_);}
	.st8{fill:url(#SVGID_7_);}
	.st9{fill:url(#SVGID_8_);}
	.st10{fill:url(#SVGID_9_);}
	.st11{fill:url(#SVGID_10_);}
	.st12{fill:url(#SVGID_11_);}
	.st13{fill:url(#SVGID_12_);}
	.st14{fill:url(#SVGID_13_);}
	.st15{fill:url(#SVGID_14_);}
	.st16{fill:#F8ABAD;}
</style>
<g>
	
		<linearGradient id="SVGID_1_" gradientUnits="userSpaceOnUse" x1="1118.3494" y1="-8981.5557" x2="1212.8695" y2="-8981.5557" gradientTransform="matrix(-0.2037 -0.979 -0.979 0.2037 -8498.291 3026.4763)">
		<stop  offset="0" style="stop-color:#998B66"/>
		<stop  offset="0.96" style="stop-color:#877154"/>
	</linearGradient>
	<path class="st0" d="M11.2,38.9c-3.3,8.7-4.3,18.5-2.3,28.3c0.2,0.8,0.3,1.7,0.6,2.4c7,23.3,31.8,37.6,57.3,32.3
		c26.9-5.6,44.3-30.8,39-56.4C100.5,20,74.4,3.8,47.5,9.4C30.4,13,17.2,24.4,11.2,38.9z"/>
</g>
<radialGradient id="SVGID_2_" cx="555.1732" cy="-9452.415" r="48.6381" gradientTransform="matrix(-0.1859 -0.8932 -0.9401 0.1956 -8726.0508 2399.0806)" gradientUnits="userSpaceOnUse">
	<stop  offset="0" style="stop-color:#FFFFFF"/>
	<stop  offset="0.5495" style="stop-color:#FDFCF7"/>
	<stop  offset="0.6648" style="stop-color:#FDFCF7"/>
	<stop  offset="0.9231" style="stop-color:#F7ECDA"/>
	<stop  offset="1" style="stop-color:#F1DAB8"/>
</radialGradient>
<path class="st1" d="M8,64.3C2.7,38.7,20.1,13.5,47,7.9s53,10.6,58.3,36.1s-12.1,50.8-39,56.4C39.4,106,13.3,89.8,8,64.3z"/>
<g>
	<path class="st2" d="M16.6,62.5c1.9,9.1,7,16.8,14,22.1c-4.5-5.1-7.7-11.3-9.2-18.3c-4.4-21.1,8.6-41.7,29-45.9
		c20.4-4.3,40.5,9.4,45,30.6c1,4.8,1,9.6,0.4,14.1c1.9-6,2.4-12.6,1-19.2c-4.4-21-25.8-34.4-48-29.8S12.2,41.4,16.6,62.5z"/>
</g>
<radialGradient id="SVGID_3_" cx="1185.7191" cy="-9058.8779" r="129.3366" gradientTransform="matrix(-0.2037 -0.979 -0.979 0.2037 -8498.291 3026.4763)" gradientUnits="userSpaceOnUse">
	<stop  offset="0.3516" style="stop-color:#FDFCF7"/>
	<stop  offset="0.7527" style="stop-color:#F8EDDC"/>
	<stop  offset="1" style="stop-color:#F1DAB8"/>
</radialGradient>
<path class="st3" d="M8,64.3c1,4.8,2.7,9.3,5.1,13.4c-1.5-3.1-2.6-6.5-3.3-10c-5.3-25.6,12.1-50.8,39-56.4
	c21.8-4.5,43.1,5.2,53.2,22.8c-9.2-19.6-31.8-31-55-26.2C20.1,13.5,2.7,38.7,8,64.3z"/>
<linearGradient id="SVGID_4_" gradientUnits="userSpaceOnUse" x1="1138.3097" y1="-8473.9414" x2="1153.4011" y2="-9242.2354" gradientTransform="matrix(-0.2037 -0.979 -0.979 0.2037 -8498.291 3026.4763)">
	<stop  offset="0" style="stop-color:#BE1E2D"/>
	<stop  offset="1" style="stop-color:#662934"/>
</linearGradient>
<path class="st4" d="M43.6,99.1l-16.8-7.5L43.6,99.1L43.6,99.1z M66.7,101.9c0.1,0,0.1,0,0.2,0c6-1.2,11.5-3.5,16.4-6.5l-1.9-1.6
	l0,0l0,0L63.6,100L66.7,101.9z M43.6,99.1L43.6,99.1L43.6,99.1l-16.8-7.5l4.2,4.7c4.5,2.6,9.5,4.5,14.8,5.6L43.6,99.1L43.6,99.1
	L43.6,99.1z M8.2,62.8c0.1,0.5,0.2,1,0.2,1.6c0,0.2,0.1,0.3,0.1,0.4c0.1,0.4,0.2,0.9,0.3,1.3c0.1,0.2,0.1,0.3,0.1,0.5c0,0,0,0,0,0.1
	c0,0.2,0.1,0.3,0.1,0.4c0.2,0.6,0.3,1.2,0.4,1.9c0.1,0.3,0.2,0.6,0.3,1c2.5,8,7.2,15,13.2,20.4l-5.2-7.2l0,0l-4-5.7l0,0v-0.1l0,0
	l0,0v0.1c0,0,0,0,0-0.1L8.2,62.7C8.2,62.7,8.2,62.7,8.2,62.8z M104.6,64.7L104.6,64.7L104.6,64.7L104.6,64.7l-4.5,8.7L96.3,81l1.5,1
	c3.5-4.9,6.1-10.3,7.6-16.1L104.6,64.7L104.6,64.7L104.6,64.7z M105.7,45.6L105.7,45.6L105.7,45.6c0.1,0.1,0.2,0.1,0.2,0.2
	C105.9,45.7,105.9,45.6,105.7,45.6c-0.9-4.6-2.4-8.8-4.6-12.7L105.7,45.6z"/>
<path class="st5" d="M70.3,8.4c5.8,1.5,11.4,4,16.2,7.4l-10.9-0.3l-6.4-6.3c0.1-0.3,0.2-0.5,0.3-0.8L70.3,8.4L70.3,8.4z"/>
<g>
	
		<linearGradient id="SVGID_5_" gradientUnits="userSpaceOnUse" x1="1184.7174" y1="-8932.7627" x2="1119.5078" y2="-9004.1963" gradientTransform="matrix(-0.2037 -0.979 -0.979 0.2037 -8498.291 3026.4763)">
		<stop  offset="0.3516" style="stop-color:#FF0912"/>
		<stop  offset="0.8132" style="stop-color:#DC0015"/>
		<stop  offset="1" style="stop-color:#B30417"/>
	</linearGradient>
	<path class="st6" d="M8,64.3c-0.2-0.9-0.3-1.7-0.4-2.5c2.3,0.1,4.7,0,7.4-0.6c11.3-2.4,13.5-12,25-15.5c11.5-3.5,16.7,8.6,16.7,8.6
		c-3.4-5.8-13.6-9.3-19.5-0.4s-5.8,12-15.5,20.2c-2.5,2.2-5.3,3.7-8,4.6C11,74.3,9.1,69.5,8,64.3L8,64.3z"/>
	
		<linearGradient id="SVGID_6_" gradientUnits="userSpaceOnUse" x1="1214.1" y1="-8959.582" x2="1148.8877" y2="-9031.0186" gradientTransform="matrix(-0.2037 -0.979 -0.979 0.2037 -8498.291 3026.4763)">
		<stop  offset="0.3516" style="stop-color:#FF0912"/>
		<stop  offset="0.8132" style="stop-color:#DC0015"/>
		<stop  offset="1" style="stop-color:#B30417"/>
	</linearGradient>
	<path class="st7" d="M99.8,29.8c2.8,4.3,4.5,9.1,5.6,14.2c0.2,0.9,0.3,1.7,0.4,2.5c-2.3-0.1-4.7,0-7.4,0.6
		c-11.3,2.4-13.5,12-25.1,15.5s-16.7-8.6-16.7-8.6c3.4,5.8,13.6,9.3,19.5,0.4c5.8-8.9,5.8-12,15.5-20.2
		C94.3,32.4,97.1,30.9,99.8,29.8L99.8,29.8z"/>
	
		<linearGradient id="SVGID_7_" gradientUnits="userSpaceOnUse" x1="1198.6523" y1="-8945.4824" x2="1133.4407" y2="-9016.918" gradientTransform="matrix(-0.2037 -0.979 -0.979 0.2037 -8498.291 3026.4763)">
		<stop  offset="0.3516" style="stop-color:#FF0912"/>
		<stop  offset="0.8132" style="stop-color:#DC0015"/>
		<stop  offset="1" style="stop-color:#B30417"/>
	</linearGradient>
	<path class="st8" d="M8.8,42.7c1.7-5.8,4.5-11.3,8.2-16.1c1.5,1.6,3.3,3.1,5.6,4.5c9.6,5.8,18.3,0.4,28.9,5.7s5.2,17.4,5.2,17.4
		c1.9-6.5-2.5-16-13.2-13.4c-10.6,2.4-12.9,4.7-25.8,4.1C14.5,44.6,11.4,43.8,8.8,42.7L8.8,42.7z"/>
	
		<linearGradient id="SVGID_8_" gradientUnits="userSpaceOnUse" x1="1200.2365" y1="-8946.9297" x2="1135.0262" y2="-9018.3633" gradientTransform="matrix(-0.2037 -0.979 -0.979 0.2037 -8498.291 3026.4763)">
		<stop  offset="0.3516" style="stop-color:#FF0912"/>
		<stop  offset="0.8132" style="stop-color:#DC0015"/>
		<stop  offset="1" style="stop-color:#B30417"/>
	</linearGradient>
	<path class="st9" d="M104.6,65.6c-1.7,5.8-4.5,11.3-8.2,16.1c-1.5-1.6-3.3-3.1-5.6-4.5c-9.6-5.8-18.3-0.4-28.9-5.7
		s-5.2-17.4-5.2-17.4c-1.9,6.5,2.5,16,13.2,13.4c10.6-2.4,12.9-4.7,25.8-4.1C98.9,63.8,101.9,64.6,104.6,65.6L104.6,65.6z"/>
	
		<linearGradient id="SVGID_9_" gradientUnits="userSpaceOnUse" x1="1181.5415" y1="-8929.8672" x2="1116.3347" y2="-9001.2969" gradientTransform="matrix(-0.2037 -0.979 -0.979 0.2037 -8498.291 3026.4763)">
		<stop  offset="0.3516" style="stop-color:#FF0912"/>
		<stop  offset="0.8132" style="stop-color:#DC0015"/>
		<stop  offset="1" style="stop-color:#B30417"/>
	</linearGradient>
	<path class="st10" d="M43.6,100.1c-6.1-1.5-11.8-4-16.8-7.5c1.7-1.4,3.4-3.2,4.9-5.4c6.4-9.3,0.8-17.5,6.5-27.7
		c5.7-10.2,18.3-5.3,18.3-5.3c-6.7-1.7-16.8,2.7-14.4,12.8s4.7,12.3,3.8,24.4C45.7,94.7,44.9,97.6,43.6,100.1L43.6,100.1z"/>
	
		<linearGradient id="SVGID_10_" gradientUnits="userSpaceOnUse" x1="1217.2559" y1="-8962.4678" x2="1152.0464" y2="-9033.9014" gradientTransform="matrix(-0.2037 -0.979 -0.979 0.2037 -8498.291 3026.4763)">
		<stop  offset="0.3516" style="stop-color:#FF0912"/>
		<stop  offset="0.8132" style="stop-color:#DC0015"/>
		<stop  offset="1" style="stop-color:#B30417"/>
	</linearGradient>
	<path class="st11" d="M69.6,8.3c6.1,1.5,11.8,4,16.8,7.5c-1.7,1.4-3.4,3.2-4.9,5.4c-6.4,9.3-0.8,17.5-6.5,27.7
		c-5.7,10.2-18.3,5.3-18.3,5.3c6.7,1.7,16.8-2.7,14.4-12.8c-2.4-10.1-4.7-12.3-3.8-24.4C67.5,13.7,68.5,10.8,69.6,8.3L69.6,8.3z"/>
	
		<linearGradient id="SVGID_11_" gradientUnits="userSpaceOnUse" x1="1185.8654" y1="-8933.8096" x2="1120.6541" y2="-9005.2441" gradientTransform="matrix(-0.2037 -0.979 -0.979 0.2037 -8498.291 3026.4763)">
		<stop  offset="0.3516" style="stop-color:#FF0912"/>
		<stop  offset="0.8132" style="stop-color:#DC0015"/>
		<stop  offset="1" style="stop-color:#B30417"/>
	</linearGradient>
	<path class="st12" d="M81.3,94.8c-4.5,2.5-9.6,4.5-15,5.7c-0.9,0.2-1.7,0.3-2.6,0.5c0.2-2.2,0.1-4.5-0.4-7.1
		C61,83.2,50.9,81.2,47.5,70.3c-3.6-11,9.2-16.1,9.2-16.1c-6.1,3.4-10,13.2-0.9,18.6c9.2,5.4,12.5,5.3,20.9,14.4
		C78.8,89.5,80.3,92.2,81.3,94.8L81.3,94.8z"/>
	
		<linearGradient id="SVGID_12_" gradientUnits="userSpaceOnUse" x1="1212.9794" y1="-8958.5625" x2="1147.7701" y2="-9029.9951" gradientTransform="matrix(-0.2037 -0.979 -0.979 0.2037 -8498.291 3026.4763)">
		<stop  offset="0.3516" style="stop-color:#FF0912"/>
		<stop  offset="0.8132" style="stop-color:#DC0015"/>
		<stop  offset="1" style="stop-color:#B30417"/>
	</linearGradient>
	<path class="st13" d="M32,13.6c4.5-2.6,9.6-4.5,15-5.7c0.9-0.2,1.7-0.3,2.6-0.5c-0.2,2.2-0.1,4.5,0.4,7.1
		C52.4,25.2,62.5,27.1,65.9,38s-9.3,16.1-9.3,16.1c6.1-3.4,10-13.2,0.9-18.6c-9.2-5.3-12.5-5.2-20.8-14.3
		C34.6,18.7,33.1,16.1,32,13.6L32,13.6z"/>
</g>
<g>
	
		<linearGradient id="SVGID_13_" gradientUnits="userSpaceOnUse" x1="1178.0461" y1="-8925.8516" x2="1177.2344" y2="-9032.3945" gradientTransform="matrix(-0.2037 -0.979 -0.979 0.2037 -8498.291 3026.4763)">
		<stop  offset="0" style="stop-color:#FF3420"/>
		<stop  offset="0.6923" style="stop-color:#FFA4A6"/>
		<stop  offset="1" style="stop-color:#FFFFFF"/>
	</linearGradient>
	<path class="st14" d="M96.1,63.6c-0.1,0-0.2,0-0.3,0c-0.1,0.4-0.1,1-0.2,1.4C95.8,64.6,96,64,96.1,63.6z M89.3,36.6
		c2.4,3.5,4.2,7.4,5.4,11.8c0.8-0.3,1.6-0.6,2.4-0.9c-0.1-0.5-0.2-1.1-0.3-1.7c-0.9-4.3-2.4-8.2-4.6-11.7c-0.2,0.1-0.3,0.3-0.4,0.3
		C90.8,35.2,90,35.9,89.3,36.6z M67.1,20.8c4.3,1.1,8.4,3,12,5.5c0.4-1.3,1-2.6,1.7-4c-4-2.7-8.6-4.8-13.4-5.9
		c0,0.2-0.1,0.3-0.1,0.5C67.2,18.3,67.1,19.5,67.1,20.8z M16.3,60.8c0.1,0.5,0.2,1.1,0.3,1.7c0.9,4.3,2.4,8.2,4.6,11.7
		c0.2-0.1,0.3-0.3,0.4-0.3c0.5-0.4,1-0.9,1.6-1.3c-0.8-2-1.4-4.1-1.8-6.3c-0.5-2.4-0.8-4.8-0.8-7.1C19.3,59.9,17.9,60.4,16.3,60.8z
		 M29,33.6c-1.7-0.3-3.4-1-5.2-1.8c-3,3.9-5.2,8.3-6.5,13c0.2,0,0.3,0,0.6,0.1c1.8,0.1,3.4,0.2,4.9,0.1C24.2,40.7,26.3,36.9,29,33.6
		z M36.4,20.8c0.1,0.2,0.3,0.3,0.3,0.4c1,1.2,2.1,2.2,3.1,3.1c3.2-1.8,6.8-3.2,10.6-4c0.7-0.2,1.3-0.3,2-0.3
		c-0.8-1.2-1.4-2.6-1.8-4.2c-0.6,0.1-1.1,0.2-1.7,0.3C44.2,17,40.1,18.6,36.4,20.8z"/>
</g>
<g>
	
		<linearGradient id="SVGID_14_" gradientUnits="userSpaceOnUse" x1="1183.9967" y1="-8915.6006" x2="1184.0283" y2="-9032.6436" gradientTransform="matrix(-0.2037 -0.979 -0.979 0.2037 -8498.291 3026.4763)">
		<stop  offset="0" style="stop-color:#FF0912"/>
		<stop  offset="1" style="stop-color:#FFA4A6"/>
	</linearGradient>
	<path class="st15" d="M85,17.1c0.5-0.4,1-0.9,1.5-1.3c-0.3-0.2-0.5-0.3-0.8-0.5s-0.5-0.3-0.8-0.5c-0.3-0.2-0.6-0.3-1-0.6
		c-0.3-0.2-0.6-0.3-1-0.5c-0.3-0.2-0.6-0.3-0.9-0.5c-0.3-0.2-0.7-0.3-1-0.5c-0.3-0.2-0.6-0.3-0.9-0.4c-0.3-0.2-0.8-0.3-1.1-0.5
		c-0.3-0.1-0.5-0.3-0.8-0.3c-0.4-0.2-1-0.4-1.4-0.6c-0.2-0.1-0.4-0.2-0.6-0.3c-1.4-0.5-2.8-1-4.2-1.4c-0.2,0-0.3-0.1-0.4-0.1
		c-0.6-0.2-1.1-0.3-1.7-0.4c-0.1,0-0.1,0-0.2,0c-0.4,0.9-0.8,1.8-1.1,2.8C74.4,12.1,80,14.1,85,17.1z M44.8,8.4
		c-0.3,0.1-0.5,0.1-0.7,0.2c-0.5,0.2-1,0.3-1.6,0.4c-0.3,0.1-0.5,0.2-0.8,0.3c-0.5,0.2-1,0.3-1.5,0.5c-0.3,0.1-0.5,0.2-0.8,0.3
		c-0.5,0.2-1.1,0.4-1.7,0.7c-0.2,0.1-0.3,0.1-0.4,0.2c-0.7,0.3-1.3,0.6-2,0.9c-0.3,0.1-0.5,0.3-0.7,0.3c-0.4,0.2-0.9,0.4-1.2,0.6
		c-0.3,0.2-0.5,0.3-0.9,0.4c-0.2,0.1-0.3,0.2-0.5,0.3c0.4,1.1,1,2.3,1.7,3.4c4.5-2.6,9.6-4.5,15.1-5.7c0.3-0.1,0.6-0.1,0.9-0.2
		c-0.1-1.3-0.1-2.5,0-3.7c-0.1,0-0.1,0-0.2,0c-0.8,0.2-1.7,0.3-2.4,0.4C46.2,8.1,45.6,8.3,44.8,8.4z M8,64.3
		c0.1,0.6,0.3,1.2,0.4,1.8c0.1,0.2,0.1,0.4,0.2,0.6C8.7,67.2,8.8,67.5,9,68c0.1,0.3,0.2,0.4,0.3,0.7c0.1,0.3,0.3,0.7,0.3,1
		c0.1,0.3,0.2,0.4,0.3,0.7c0.1,0.3,0.3,0.7,0.3,1c0.1,0.3,0.2,0.4,0.3,0.7c0.2,0.3,0.3,0.7,0.4,1c0.1,0.3,0.2,0.4,0.3,0.7
		c0.2,0.3,0.3,0.7,0.4,1c0.1,0.3,0.3,0.4,0.3,0.7c0.2,0.3,0.3,0.7,0.5,1c0.1,0.2,0.3,0.4,0.3,0.6c0.1,0.1,0.2,0.3,0.2,0.3
		c-1.4-3.1-2.5-6.4-3.3-9.9c-0.4-1.9-0.7-3.9-0.8-5.8c-0.4,0-1,0-1.4,0l0,0C7.7,62.7,7.8,63.4,8,64.3z M102,34.1
		c-0.7-1.5-1.5-2.9-2.3-4.3c-0.1,0.1-0.3,0.1-0.3,0.2C100.3,31.3,101.2,32.7,102,34.1z M17,26.5L17,26.5c-0.4,0.5-0.8,1.1-1.2,1.7
		c-0.1,0.1-0.1,0.2-0.2,0.3c-0.3,0.5-0.7,1-1,1.7c-0.1,0.1-0.2,0.2-0.2,0.3c-0.3,0.5-0.7,1-1,1.7c-0.1,0.1-0.2,0.3-0.2,0.3
		c-0.3,0.5-0.6,1.1-0.9,1.7c-0.1,0.1-0.2,0.3-0.2,0.3c-0.3,0.5-0.5,1.1-0.8,1.7c-0.1,0.2-0.1,0.3-0.2,0.4c-0.3,0.5-0.4,1.1-0.7,1.7
		c-0.1,0.2-0.1,0.3-0.2,0.4c-0.2,0.5-0.4,1.1-0.6,1.7c-0.1,0.2-0.1,0.3-0.2,0.5c-0.2,0.5-0.3,1-0.5,1.7c0,0.2-0.1,0.3-0.1,0.4
		c0.8,0.3,1.7,0.6,2.5,0.9c1.8-5.3,4.6-10.3,8.2-14.7C18.6,28.2,17.8,27.3,17,26.5z"/>
</g>
<path class="st2" d="M8,64.3c-0.1-0.3-0.2-0.8-0.3-1.1c5.8,24.9,31.6,40.5,58,35c26.4-5.5,43.8-30.1,39.3-55.3
	c0.1,0.3,0.2,0.8,0.3,1.1c5.3,25.5-12.1,50.8-39,56.4C39.4,106,13.3,89.8,8,64.3L8,64.3z"/>
<path class="st16" d="M69.3,99.7c0.5-0.2,1-0.3,1.6-0.4c0.3-0.1,0.5-0.2,0.8-0.3c0.5-0.2,1-0.3,1.5-0.5c0.3-0.1,0.5-0.2,0.8-0.3
	c0.6-0.2,1.1-0.4,1.7-0.7c0.2-0.1,0.3-0.1,0.4-0.2c0.7-0.3,1.4-0.6,2-0.9c0.3-0.1,0.4-0.2,0.7-0.3c0.4-0.3,0.9-0.4,1.3-0.7
	c0.3-0.2,0.5-0.3,0.8-0.4c0.2-0.1,0.3-0.2,0.6-0.3c-0.3-0.7-0.6-1.3-0.9-2c-4.5,2.4-9.3,4.3-14.6,5.4c-0.7,0.2-1.4,0.3-2.1,0.3
	c0,0.8,0,1.6-0.1,2.4l0,0c0.9-0.2,1.7-0.3,2.6-0.4c0.8-0.2,1.6-0.3,2.3-0.5C68.9,99.8,69,99.7,69.3,99.7z"/>
<g>
	<path class="st16" d="M8,64.3L8,64.3L8,64.3L8,64.3L8,64.3L8,64.3L8,64.3L8,64.3L8,64.3L8,64.3L8,64.3L8,64.3L8,64.3L8,64.3L8,64.3
		L8,64.3L8,64.3L8,64.3L8,64.3L8,64.3L8,64.3L8,64.3L8,64.3L8,64.3L8,64.3L8,64.3L8,64.3L8,64.3L8,64.3L8,64.3L8,64.3L8,64.3L8,64.3
		L8,64.3L8,64.3L8,64.3L8,64.3L8,64.3l-0.1-0.6l0,0c0-0.2-0.1-0.3-0.1-0.4l0,0l0,0v-0.1c1.3,5.5,3.6,10.6,6.6,15
		c-0.3,0.1-0.5,0.2-0.8,0.3l0,0c-0.2-0.3-0.3-0.5-0.5-0.9l-0.1-0.2c-0.2-0.3-0.3-0.6-0.5-0.9l-0.1-0.2c-0.2-0.3-0.3-0.6-0.4-0.9
		l-0.1-0.2c-0.2-0.3-0.3-0.6-0.4-1l-0.1,0c-0.2-0.3-0.3-0.6-0.4-1l-0.1-0.1c-0.2-0.3-0.3-0.7-0.4-1v-0.1c-0.2-0.3-0.3-0.7-0.4-1
		v-0.1c-0.2-0.3-0.3-0.7-0.3-1v-0.1c-0.1-0.3-0.3-0.7-0.3-1v-0.1c-0.1-0.3-0.3-0.7-0.3-1.1l0,0c-0.1-0.3-0.2-0.8-0.3-1.1l0,0
		C8.4,65.9,8.2,65.1,8,64.3L8,64.3z"/>
	<path class="st16" d="M105.6,46.6c-0.1-1.2-0.3-2.4-0.5-3.7c0.1,0.3,0.2,0.6,0.2,1l0,0l0,0l0,0l0,0l0,0l0,0l0,0l0,0l0,0l0,0l0,0
		l0,0c0.1,0.3,0.2,0.8,0.3,1.1v0.1c0.1,0.3,0.1,0.7,0.2,1v0.3l0,0L105.6,46.6L105.6,46.6z"/>
	<path class="st16" d="M95,80.5c3.8-4.5,6.6-9.8,8.5-15.3c0.3,0.1,0.7,0.3,1,0.4c-0.9,3-1.9,5.8-3.3,8.5l-0.7,1.2l0,0
		c-0.2,0.3-0.5,1-0.6,1c-0.1,0.3-0.5,0.9-0.6,1c-0.1,0.2-0.5,0.9-0.6,1c-0.1,0.2-0.5,0.9-0.6,1c-0.1,0.2-0.6,0.9-0.7,1
		c-0.1,0.2-1,1.3-1,1.4l0,0C95.9,81.4,95.5,81,95,80.5L95,80.5z"/>
	<path class="st16" d="M28.1,91.5c5,3.1,10.5,5.4,16.3,6.6c-0.3,0.7-0.5,1.3-0.9,2c-3.1-0.7-6-1.7-8.8-3L34.5,97
		c-0.3-0.1-0.5-0.3-0.8-0.3l-0.3-0.1l0,0c-0.3-0.1-0.5-0.3-0.8-0.3l-0.3-0.1l0,0c-0.3-0.1-0.5-0.3-0.7-0.3c-0.1-0.1-0.2-0.1-0.3-0.2
		c-0.3-0.1-0.4-0.3-0.7-0.3c-0.1-0.1-0.3-0.2-0.3-0.2c-0.2-0.1-0.4-0.3-0.6-0.3c-0.1-0.1-0.3-0.2-0.3-0.3c-0.2-0.1-0.4-0.3-0.6-0.3
		c-0.1-0.1-0.3-0.2-0.3-0.3c-0.2-0.2-0.4-0.3-0.6-0.4c-0.1-0.1-0.3-0.2-0.3-0.3c-0.2-0.1-0.3-0.3-0.5-0.3
		C27.3,92.2,27.7,91.8,28.1,91.5L28.1,91.5z"/>
</g>
<g>
	<path d="M185.7,61.3c0.6,0.3,0.8,0.6,0.5,0.8c-0.3,0.2-1.2,0.3-2.7,0.3c-1.1,0-2.3,0.1-3.8,0.3c-1.4,0.2-2.9,0.4-4.3,0.8
		c-1.5,0.3-2.9,0.7-4.3,1.2c-1.4,0.4-2.5,0.9-3.5,1.4c-1,0.5-1.9,0.9-2.8,1.1c-0.9,0.2-1.7,0.2-2.2,0.2c-0.4-0.1-0.7-0.1-0.9-0.2
		c-0.4,1.5-0.8,3-1.3,4.4s-0.8,2.8-1.2,4s-0.8,2.3-1.1,3.2c-0.3,0.9-0.6,1.5-0.9,1.9c-0.5,0.8-0.9,1.2-1.2,1.3
		c-0.3,0.1-0.5-0.4-0.6-1.5c-0.1-1.1-0.1-1.8,0.1-2.3c0.1-0.4,0.2-0.4,0.4,0.2c0.1,0.5,0.3,0.7,0.5,0.5s0.4-0.9,0.8-2.1
		c0.4-1.6,1-3.7,1.7-6.2c0.7-2.5,1.5-5.6,2.4-9.1c0.5-1.6,0.8-3,1.2-4.3c0.3-1.3,0.6-2.4,0.9-3.3h-0.2c-0.5-0.1-1-0.1-1.6-0.2
		c-0.6,0-1.3-0.1-2,0c-0.7,0-1.4,0.1-2.1,0.2c-0.7,0.1-1.4,0.3-1.9,0.5c-0.4,0.1-0.7,0.3-1.1,0.4c-0.3,0.1-0.7,0.3-1,0.4
		c0,0.5-0.1,0.9-0.1,1.4c0,0.5,0,0.9,0,1.4c0.1,0.1,0.2,0.3,0.2,0.6s0.1,0.6,0,1c-0.1,0.5-0.1,0.9-0.2,1.3c0,0.4-0.1,0.7-0.2,1.1
		c0,0.5-0.1,0.9-0.1,1.4c0,0.5,0,0.9-0.1,1.4c0.8-0.6,1.5-1.2,2.1-1.8s1.3-1.2,2.1-2.1c0.7-0.7,1-0.8,1.1-0.5c0,0.4-0.2,0.8-0.7,1.3
		c-0.2,0.2-0.5,0.4-0.8,0.8c-0.4,0.4-0.8,0.8-1.2,1.2c-0.4,0.5-0.9,0.9-1.4,1.4c-0.5,0.5-0.9,1-1.3,1.4c0,1.3-0.1,2.7-0.1,4.1
		s0,2.8,0,4.3c0,0.9,0,1.9,0.1,3c0.1,1.1,0.2,2,0.4,2.8c0.2,0.9,0.1,1.5-0.2,1.9c-0.3,0.3-0.6,0.2-0.9-0.4c-0.2-0.4-0.4-1-0.6-1.7
		c-0.2-0.7-0.4-1.4-0.5-2.1c-0.1-0.7-0.3-1.4-0.3-2.1c-0.1-0.7-0.1-1.3-0.1-1.7c0-1,0-1.9,0-2.9c0-1,0-1.9,0.1-2.9
		c-0.7,0.7-1.4,1.3-2.1,1.8c-0.7,0.6-1.5,1.1-2.3,1.5c-1.3,0.8-2.1,1.1-2.5,1s-0.7-0.3-0.8-0.7c-0.2-0.8,0-1.3,0.8-1.6
		c0.6-0.3,1.2-0.5,1.8-0.9c0.6-0.3,1.1-0.7,1.5-1c1-0.9,1.8-1.7,2.3-2.4c0.5-0.8,1-1.8,1.5-3.1c0-1.2,0.1-2.3,0.2-3.5
		c0.1-1.2,0.1-2.4,0.2-3.8c-1.5,0.8-2.9,1.7-4.2,2.6c-1.3,0.9-2.5,1.9-3.5,3c-1.4,1.4-2.4,2.4-3.2,2.9c-0.7,0.5-1.4,0.7-2.2,0.5
		c-1-0.3-1.8-0.8-2.5-1.4c-0.2-0.2-0.2-0.4,0-0.6c0.2-0.2,0.5-0.2,0.9-0.2c0.7,0.1,1.4,0,2.2-0.2c0.8-0.2,1.5-0.8,2.3-1.6
		c0.5-0.5,1.2-1.1,2-1.7c0.8-0.6,1.7-1.3,2.7-2c1-0.7,1.9-1.3,2.9-1.9c1-0.6,1.9-1.1,2.8-1.6v-0.2c0.1-1.4,0.2-2.9,0.4-4.7
		c0.2-1.7,0.4-3.6,0.6-5.6c0,0-0.1,0.1-0.1,0.2c-1,1.3-1.8,2.7-2.7,4.3c-0.8,1.6-1.5,3.1-2,4.7c-0.2,0.5-0.4,0.9-0.6,1.2
		c-0.2,0.3-0.4,0.5-0.7,0.5c-0.3,0-0.6-0.2-0.8-0.5c-0.3-0.4-0.6-0.9-0.9-1.8c-0.2-0.5-0.4-1.2-0.5-1.9c-0.1-0.7-0.2-1.3-0.2-1.6
		c0.1-0.8,0.1-1.4,0.1-2c0-0.5-0.1-1.1-0.2-1.7c-0.1-0.4-0.1-0.6,0-0.6c0.1,0,0.2,0.1,0.4,0.4c0.2,0.5,0.5,1.1,0.8,2
		c0.2,0.9,0.4,1.8,0.6,2.8c0,0.4,0.1,0.7,0.3,0.8c0.1,0.1,0.4,0,0.8-0.4c0.4-0.4,1-1.2,1.8-2.2c0.8-1.1,1.9-2.6,3.3-4.5
		c0.2-0.4,0.5-0.6,0.6-0.6c0.2-1.3,0.3-2.6,0.4-3.9c0.1-1.3,0.3-2.7,0.4-4c0.2-1.3,0-2.1-0.4-2.7c-0.5-0.5-1-0.5-1.6,0
		c-0.4,0.3-0.7,0.5-0.8,0.4c-0.2-0.1-0.1-0.5,0.4-1.1c0.2-0.4,0.6-0.7,1-0.9c0.4-0.2,1-0.1,1.8,0.2c0.8,0.3,1.4,0.8,1.7,1.5
		c0.3,0.7,0.3,1.5,0.2,2.3c-0.2,1.1-0.4,2.4-0.6,3.9c-0.2,1.5-0.4,3-0.6,4.6c-0.2,1.6-0.4,3.1-0.5,4.7c-0.2,1.5-0.3,2.9-0.4,4
		c1-1.1,1.9-2.2,2.8-3.3c0.9-1.1,1.5-2.1,2-2.9c0.2-0.5,0.5-0.9,0.6-1.3c0.2-0.4,0.2-0.7,0.2-1c0-0.3-0.1-0.6-0.2-1
		c-0.2-0.4-0.4-0.8-0.8-1.4c-0.1-0.3-0.2-0.5-0.2-0.7c0-0.2,0.1-0.3,0.3-0.3s0.5,0.1,0.8,0.3c0.4,0.2,0.8,0.7,1.3,1.3
		c1.2,1.4,1.8,2.3,1.9,2.8c0.3,0,0.8,0.1,1.4,0.4c0.6,0.2,1.3,0.3,2.1,0.3c0.8,0,1.6-0.2,2.3-0.6c1-0.5,2.1-1.1,3.3-1.6
		c1.1-0.5,2.3-0.9,3.3-1.3c1.1-0.4,2-0.6,2.9-0.8c0.9-0.2,1.6-0.3,2.2-0.2c1,0.1,1.6,0.2,1.8,0.4c0.3,0.2,0.3,0.4,0.2,0.6
		c-0.1,0.2-0.4,0.3-0.7,0.5c-0.3,0.2-0.9,0.3-1.6,0.3c-1.3,0.1-2.5,0.3-3.6,0.6c-1.1,0.3-2.5,0.8-3.9,1.5c0.1,0.1,0.2,0.2,0.3,0.2
		c0.1,0.1,0.2,0.2,0.4,0.3c0.6,0.5,1.1,0.9,1.5,1.4s0.7,1.1,0.9,1.8c0.8-0.3,1.6-0.5,2.3-0.7c0.7-0.2,1.4-0.4,2-0.4
		c0.8-0.1,1.6,0,2.5,0.2c0.9,0.2,1.7,0.5,2.4,1c1,0.7,1.5,1.3,1.6,1.8c0.1,0.6,0,1-0.4,1.3c-0.4,0.3-0.8,0.9-1.1,1.8
		c-0.3,0.9-0.7,2-1,3.4c-0.2,0.7-0.5,1.4-0.8,2.2s-0.7,1.4-1.1,2C183.4,60.5,184.7,60.8,185.7,61.3z M163,52.1
		c0.4,0.1,0.7,0.3,0.9,0.5c0.5-1.8,1-3.1,1.3-3.9c0.4-0.8,0.7-1.5,1.2-1.9c-0.9,0-1.7-0.2-2.3-0.7c-0.4-0.3-0.7-0.6-0.9-0.8
		c-0.2-0.2-0.4-0.4-0.6-0.6c-0.1,0.2-0.3,0.4-0.5,0.4c-0.3,0.2-0.7,0.5-1,0.8c-0.3,0.3-0.7,0.7-1.2,1.1c-0.4,0.5-0.9,1-1.5,1.8
		c-0.6,0.7-1.3,1.6-2.1,2.6c-0.4,0.5-0.8,0.9-1.3,1.2c1.6-0.5,3.1-0.7,4.6-0.8C161,51.6,162.2,51.8,163,52.1z M163.5,65.5
		c0.8-0.3,1.8-0.7,3-1.1c1.2-0.4,2.5-0.8,3.9-1.2c0.1-0.1,0.2-0.2,0.2-0.3c0.1-0.1,0.2-0.2,0.3-0.4c1.3-1.4,2.1-3,2.5-4.8
		c-0.2,0.1-0.4,0.2-0.7,0.3c-0.2,0.1-0.4,0.2-0.7,0.3c-0.7,0.3-1.2,0.6-1.7,0.8c-0.4,0.2-0.8,0.3-1.2,0.3c-0.3,0-0.6,0-0.9,0
		c-0.3-0.1-0.6-0.2-0.9-0.3c-0.7-0.3-1.1-0.6-1-0.8c0-0.2,0.4-0.3,1.2-0.4c0.5-0.1,1.4-0.3,2.5-0.7c1.1-0.4,2.3-0.8,3.5-1.3
		c0.1-0.6,0.1-1.3,0.2-2c0-0.7,0-1.5,0-2.3c0-0.3,0-0.6-0.1-0.8c-0.4,0.2-0.9,0.4-1.5,0.6c-0.6,0.2-1.2,0.4-1.9,0.6
		s-1.3,0.3-1.8,0.4c-0.6,0.1-1,0.2-1.3,0.2c-0.7,0-1.1,0-1.3-0.1c-0.5,1.3-0.9,2.7-1.3,4.1c-0.4,1.4-0.8,2.7-1.1,3.8
		c-0.2,0.9-0.4,1.9-0.7,2.8c-0.2,1-0.5,2-0.8,3C162.5,66,162.9,65.7,163.5,65.5z M171.7,45.8c-0.3-0.4-0.5-0.7-0.6-0.9
		c-0.3,0.2-0.7,0.3-1.1,0.5c-0.4,0.2-0.8,0.4-1.1,0.6c-0.1,0.1-0.2,0.2-0.2,0.4c-0.1,0.1-0.2,0.3-0.3,0.5c-0.2,0.3-0.6,0.9-0.9,1.8
		c-0.4,0.9-0.8,1.9-1.2,3.1c0.3-0.2,0.8-0.4,1.4-0.6c0.7-0.3,1.5-0.6,2.5-1.1c1-0.4,2.1-0.8,3.2-1.3C173,47.7,172.5,46.7,171.7,45.8
		z M185.1,67.9c0.8,0.5,1.2,1.1,1.2,1.8s-0.3,1.4-1,1.8c-0.5,0.3-1,0.8-1.5,1.6c-0.5,0.8-1,1.5-1.5,2.3c-0.1,0.2-0.2,0.3-0.3,0.5
		c-0.1,0.1-0.2,0.3-0.3,0.4c0.6,0.1,1,0.2,1.3,0.4c0.3,0.2,0.6,0.4,0.8,0.7c0.3,0.3,0.3,0.6,0,0.9c-0.4,0.3-1.2,0.3-2.4,0
		c-1.2-0.2-2.6-0.3-4.2-0.2c-1.6,0.1-2.9,0.6-3.9,1.2c-0.3,0.2-0.6,0.3-0.9,0.4c0.2,1.1,0.1,1.7-0.2,1.7c-0.3,0-0.7-0.4-1.1-1.3
		c-0.3-0.5-0.6-1.3-1-2.3c-0.4-1-0.7-2.1-1-3.2c-0.3-1.1-0.6-2.1-0.8-3.1c-0.2-1-0.4-1.7-0.4-2.2c-0.1-0.4,0-0.9,0.2-1.3
		c0.2-0.5,0.4-0.8,0.6-1c0.7-0.7,1.1-1,1.2-0.8c0.1,0.2,0.1,0.6-0.2,1.1c-0.5,1-0.4,2.2,0.3,3.7c0.1-0.1,0.2-0.2,0.5-0.4
		c0.4-0.3,1-0.6,1.8-0.9c0.8-0.4,1.7-0.7,2.6-1.1s1.8-0.7,2.7-1c0.9-0.3,1.6-0.5,2.2-0.7c1-0.2,1.9-0.3,2.7-0.2
		C183.3,67,184.2,67.3,185.1,67.9z M170.1,38.8c-1.2,0.2-1.9,0.2-2.1,0.1c-0.2-0.1-0.1-0.3,0.4-0.5c0.5-0.2,1.2-0.4,2-0.5
		s1.6-0.2,2.4-0.3c1-0.1,1.5-0.2,1.7-0.4c0.2-0.2,0.1-0.4-0.2-0.6c-0.4-0.3-0.8-0.6-1.3-0.8c-0.4-0.2-1.1-0.5-1.9-1
		c-1-0.5-1.6-1-1.5-1.3c0-0.3,0.6-0.4,1.6-0.3c0.7,0.1,1.4,0.3,2.1,0.6c0.7,0.3,1.4,0.6,2,1c0.6,0.4,1.2,0.7,1.6,1.1
		c0.5,0.4,0.8,0.7,0.9,0.9c0.3,0.5,0.3,0.9,0.2,1.1c-0.2,0.2-0.7,0.3-1.4,0.3c-0.7,0-1.7,0-2.9,0.1S171.2,38.6,170.1,38.8z
		 M181.2,73.9c0.8-0.9,1.3-1.6,1.7-2.2c0.4-0.6,0.7-1.1,0.8-1.4c0.1-0.4,0.1-0.7,0.1-0.9c-0.1-0.2-0.2-0.4-0.4-0.6
		c-0.8-0.6-2.3-0.4-4.5,0.5c-0.5,0.2-1,0.4-1.8,0.7c-0.7,0.3-1.4,0.5-2.2,0.8c-0.8,0.2-1.5,0.5-2.2,0.7c-0.7,0.2-1.2,0.4-1.7,0.4
		c-0.2,0-0.4,0.1-0.8,0.1c0.4,0.9,0.7,1.9,1,3c0.3,1.1,0.5,2.1,0.8,3c0.2-0.1,0.3-0.1,0.4-0.2c0.8-0.3,1.8-0.6,3.1-0.9
		c1.3-0.3,2.6-0.4,3.7-0.5c0.2-0.3,0.5-0.6,0.8-1C180.3,74.9,180.7,74.5,181.2,73.9z M179.9,60.8c0,0,0.1-0.1,0.1-0.1
		c0,0,0-0.1,0.1-0.2c0.4-0.6,0.8-1.3,1-2c0.3-0.7,0.6-1.7,1-3c-0.3,0-0.6,0-1.1,0c-0.6,0-1.3,0-2.1,0.2s-1.9,0.5-3.3,1.1
		c-0.2,1.2-0.6,2.2-1,3.2c-0.4,1-0.9,1.8-1.3,2.4c1.1-0.3,2.2-0.6,3.3-0.9C177.7,61.2,178.8,61,179.9,60.8z M182.5,49.2
		c-0.6-0.3-1.5-0.5-2.6-0.5c-1.1,0-2.5,0.4-4,1.1c0.1,0.5,0.1,1.1,0.1,1.7c0,0.6,0,1.3,0,2.1c0,0.2,0,0.4,0,0.6c0,0.2,0,0.4,0,0.6
		c0.2-0.1,0.5-0.2,0.8-0.4c0.2-0.1,0.5-0.2,0.8-0.3c0.5-0.2,1.1-0.4,1.8-0.4c0.8,0,1.4,0.1,2,0.4c0.4,0.2,0.7,0.4,0.9,0.6
		c0.3-1.1,0.5-2,0.7-2.6c0.1-0.7,0.2-1.2,0.2-1.6c0-0.4-0.1-0.7-0.2-0.8C182.9,49.4,182.7,49.3,182.5,49.2z"/>
	<path d="M245.4,60.2c0.8,0.9,1,1.5,0.6,1.7c-0.4,0.2-1.7,0-3.8-0.6c-0.9-0.3-1.9-0.4-3-0.5c-1.1-0.1-2.4-0.2-3.7-0.2
		c-1.3,0-2.6,0.1-3.9,0.2c-1.3,0.1-2.6,0.3-3.9,0.6c0,1.2,0.1,2.3,0.1,3.3c0,1,0,2,0,3c1-0.5,1.6-0.6,1.8-0.4s-0.2,0.6-1.2,1.2
		c-0.1,0-0.2,0.1-0.3,0.1c-0.1,0-0.2,0.1-0.3,0.1c0,2.1,0,4-0.1,5.5c0,1.5-0.1,2.8-0.2,3.9s-0.2,2-0.3,2.7c-0.1,0.7-0.3,1.4-0.4,1.9
		c-0.3,1-0.7,1.4-1.2,1.3c-0.5-0.1-0.9-0.5-1.3-1.3c-0.5-1.3-1.3-2.5-2.3-3.7s-2.5-2.5-4.3-3.9c-0.3,0.2-0.6,0.4-0.9,0.7
		c-0.3,0.2-0.6,0.5-1,0.7c-0.5,0.4-1,0.8-1.3,1.3c-0.4,0.5-0.5,0.9-0.5,1.3c0,1-0.3,1.6-0.8,1.8c-0.5,0.2-1-0.2-1.4-1.1
		c-0.3-0.5-0.5-1.3-0.6-2.2c-0.1-0.9-0.2-1.8-0.1-2.8c0.1-1,0.2-2,0.5-3c0.3-1,0.7-1.9,1.3-2.7c0.5-0.6,0.8-0.8,1.2-0.7
		c0.3,0.1,0.3,0.6,0,1.4c-0.2,0.6-0.4,1.3-0.5,2.1c-0.1,0.8-0.2,1.6-0.2,2.3c0.1,0.7,0.3,1.1,0.6,1.1c0.3,0,0.8-0.1,1.3-0.6
		c0.2-0.2,0.5-0.3,0.7-0.5c0.2-0.1,0.4-0.3,0.6-0.4c-0.3-0.6-0.1-0.8,0.7-0.5c1.2-0.8,2.3-1.5,3.5-2.1c1.2-0.7,2.7-1.5,4.5-2.4
		c0-1.2,0-2.4,0-3.5c0-1.1,0-2.3,0.1-3.5c-1.7,0.3-3.4,0.7-5.2,1.2c-1.8,0.5-3.5,0.9-5.2,1.5c-1.7,0.5-3.3,1.1-4.9,1.6
		c-1.5,0.6-2.9,1.1-4.2,1.7c-1.1,0.5-2,0.7-2.8,0.8c-0.8,0-1.3-0.1-1.8-0.4c-0.5-0.3-0.7-0.9-0.8-1.7c0-0.8,0.1-1.4,0.4-1.9
		c0.7-1.1,1.2-1.6,1.5-1.6s0.3,0.4,0,1.1c-0.6,1.2-0.8,2-0.4,2.3c0.3,0.3,0.9,0.3,1.7-0.1c3.7-1.3,7.3-2.5,10.8-3.6
		c3.5-1,7.1-1.9,10.8-2.7v-5.9c-1.2,0.3-2.3,0.6-3.3,0.9c-1,0.3-1.8,0.7-2.4,1c-1.2,0.6-2.1,0.7-2.8,0.5c-0.7-0.3-1.3-0.9-1.8-2
		c-0.5-0.9-0.9-2.1-1.5-3.7c-0.5-1.5-1-3.6-1.5-6.3c-0.3-1.5-0.6-2.8-0.9-3.7c-0.3-0.9-0.6-1.8-1-2.5c-0.5-1.1-0.7-1.8-0.4-2.1
		c0.3-0.3,0.7-0.1,1.3,0.8c1.1,1.5,2.1,3.6,2.9,6.1c0.9,2.5,1.5,5.1,2,7.7c0.3,1.5,0.8,2.3,1.4,2.7c0.6,0.3,1.4,0.3,2.3,0
		c0.8-0.3,1.7-0.6,2.6-0.8c1-0.3,2-0.5,3.2-0.8c0-1.1,0-2.3,0-3.4c0-1.2,0-2.4,0-3.6c-2.3,0.8-4,1.2-5.1,1.4c-1.1,0.2-2,0.1-2.5-0.1
		c-1.8-0.7-2-1.1-0.4-1.3c1.1-0.2,2.4-0.4,3.7-0.7c1.3-0.3,2.8-0.7,4.4-1.3c0-1.1,0-2-0.1-2.7c-0.1-0.7-0.2-1.2-0.4-1.6
		s-0.5-0.6-0.9-0.8c-0.4-0.2-0.9-0.3-1.4-0.3c-0.3,0-0.5-0.1-0.6-0.2s-0.1-0.3,0-0.4c0.1-0.2,0.4-0.3,0.8-0.4c0.4-0.1,1-0.2,1.8-0.2
		c1.1,0,2,0.3,2.6,0.9c0.6,0.6,0.9,1.5,0.8,2.8c0,0.3,0,0.7,0,1c0,0.4,0,0.7,0,1.1c0.6-0.3,1.3-0.5,2.1-0.8c0.7-0.3,1.5-0.4,2.3-0.4
		c0.8,0,1.4,0.2,1.8,0.8c0.3,0.4,0.3,0.8,0,1.1c-0.3,0.3-0.9,0.4-1.7,0.4c-0.6,0-1.3,0.1-2.1,0.3c-0.8,0.2-1.6,0.5-2.5,0.8
		c0,1.1-0.1,2.3-0.1,3.5c0,1.3,0,2.5,0,3.8c0.4-0.1,0.8-0.2,1.2-0.2s0.8-0.1,1.3-0.2c0.8-0.2,1.7-0.6,2.8-1.2c1-0.6,1.9-1.4,2.6-2.3
		c0.5-0.6,0.9-1.3,1.3-2.2c0.4-0.8,0.8-1.6,1.2-2.4c0.4-0.8,0.7-1.6,0.9-2.3c0.3-0.8,0.5-1.4,0.6-1.9c0.5-1.8,0.2-3.2-0.9-4.2
		c-1-1-2.6-1.5-4.8-1.5c-1.3,0-2.8,0.2-4.3,0.4c-1.5,0.3-3.1,0.6-4.6,1c-1.6,0.4-3.1,1-4.7,1.7c-1.6,0.7-3.1,1.4-4.5,2.3
		c-2.5,1.5-2.9,1.4-1.3-0.3c1.5-1.5,3.5-2.9,6.1-4.2c2.6-1.2,5.6-2.1,9-2.7c2-0.3,3.9-0.4,5.7-0.2c1.8,0.2,3.3,0.8,4.6,1.7
		c2.4,1.8,3.1,3.8,2.2,6c-0.2,0.7-0.5,1.3-0.8,2c-0.3,0.7-0.6,1.6-1,2.8c-0.4,1.2-1,2.4-1.8,3.5c-0.8,1.1-1.5,2-2.3,2.8
		c-1,1.1-2.1,1.9-3.2,2.5c-1.1,0.6-2.4,0.9-3.8,1.1c-0.3,0.1-0.5,0.1-0.8,0.2c-0.3,0-0.6,0.1-0.8,0.1c0,0.8,0,1.6,0,2.3
		s0,1.5,0.1,2.2v1.4c0.7-0.1,1.4-0.2,2.1-0.4c0.7-0.1,1.4-0.2,2.1-0.4c1.2-0.2,1.7-0.5,1.6-1.1c-0.1-0.6-1.2-1.4-3-2.6
		c-0.3-0.2-0.5-0.3-0.6-0.5c-0.1-0.1-0.1-0.3,0-0.3c0.1-0.1,0.2-0.1,0.4-0.1c0.2,0,0.4,0.1,0.5,0.2c1.3,0.9,2.3,1.7,3.2,2.2
		c0.9,0.6,1.6,1,2.3,1.3c0.6,0.3,1.2,0.5,1.8,0.6c0.5,0.1,1.1,0.1,1.8,0.1c1.1-0.1,2.2,0,3.3,0.3C244.1,59.2,244.9,59.6,245.4,60.2z
		 M225.1,75.5c0-0.9,0-1.8,0-2.7c0-0.9,0-1.8,0-2.6c-1,0.6-2.1,1.3-3.1,1.9c-1,0.6-2.1,1.4-3.3,2.2c0.6,0.4,1.2,0.8,1.9,1.2
		c0.7,0.4,1.5,0.9,2.3,1.5c0.8,0.5,1.3,0.7,1.5,0.6S225,76.7,225.1,75.5z M240.3,70c0.8,0.6,1.4,1.3,1.7,2.2
		c0.4,0.9,0.5,1.7,0.3,2.5c-0.2,1.3-0.8,2.1-1.6,2.4c-0.9,0.3-1.9,0.2-3-0.2c-1.7-0.7-3.1-1.3-4.2-1.9c-1.1-0.6-2.1-1.4-3.2-2.3
		c-0.7-0.6-1-0.9-0.9-1c0.1-0.1,0.5,0,1.2,0.3c1.1,0.5,2.3,1,3.7,1.5c1.4,0.5,2.6,1,3.8,1.4c0.4,0.2,0.8,0.2,1.2,0.2
		c0.4-0.1,0.6-0.2,0.8-0.5s0.2-0.6,0.1-1c-0.1-0.4-0.4-0.9-0.9-1.4c-1.1-1.1-2.3-2-3.5-2.6s-2.7-1.2-4.4-1.6
		c-0.9-0.2-1.3-0.4-1.3-0.7c0.1-0.3,0.5-0.4,1.4-0.3c2,0.2,3.7,0.5,5,0.9C237.7,68.3,239,69,240.3,70z"/>
</g>
</svg>
