<?xml version="1.0" encoding="utf-8"?>
<!-- Generator: Adobe Illustrator 22.0.0, SVG Export Plug-In . SVG Version: 6.00 Build 0)  -->
<svg version="1.1" id="图层_1" xmlns="http://www.w3.org/2000/svg" xmlns:xlink="http://www.w3.org/1999/xlink" x="0px" y="0px"
	 viewBox="0 0 300 128" style="enable-background:new 0 0 300 128;" xml:space="preserve">
<style type="text/css">
	.st0{fill:url(#SVGID_1_);}
	.st1{fill:url(#SVGID_2_);}
	.st2{fill:url(#SVGID_3_);}
	.st3{fill:url(#SVGID_4_);}
	.st4{fill:url(#SVGID_5_);}
	.st5{fill:url(#SVGID_6_);}
	.st6{fill:url(#SVGID_7_);}
	.st7{fill:url(#SVGID_8_);}
	.st8{fill:url(#SVGID_9_);}
	.st9{fill:url(#SVGID_10_);}
	.st10{fill:url(#SVGID_11_);}
	.st11{opacity:0.55;fill:url(#SVGID_12_);}
	.st12{opacity:0.75;fill:url(#SVGID_13_);}
	.st13{fill:url(#SVGID_14_);}
	.st14{opacity:0.73;fill:url(#SVGID_15_);}
	.st15{opacity:0.45;fill:url(#SVGID_16_);}
	.st16{opacity:0.5;fill:url(#SVGID_17_);}
	.st17{fill:url(#SVGID_18_);}
	.st18{fill:url(#SVGID_19_);}
	.st19{fill:url(#SVGID_20_);}
	.st20{opacity:0.52;}
	.st21{fill:url(#SVGID_21_);}
	.st22{fill:url(#SVGID_22_);}
	.st23{opacity:0.75;fill:url(#SVGID_23_);}
	.st24{opacity:0.33;fill:url(#SVGID_24_);}
	.st25{opacity:0.79;fill:url(#SVGID_25_);}
	.st26{fill:url(#SVGID_26_);}
	.st27{opacity:0.44;fill:url(#SVGID_27_);}
	.st28{opacity:0.54;fill:url(#SVGID_28_);}
	.st29{fill:url(#SVGID_29_);}
	.st30{opacity:0.43;fill:url(#SVGID_30_);}
	.st31{fill:url(#SVGID_31_);}
	.st32{fill:url(#SVGID_32_);}
	.st33{fill:url(#SVGID_33_);}
	.st34{fill:url(#SVGID_34_);}
	.st35{opacity:0.52;fill:url(#SVGID_35_);}
	.st36{fill:url(#SVGID_36_);}
</style>
<g>
	
		<linearGradient id="SVGID_1_" gradientUnits="userSpaceOnUse" x1="2018.9642" y1="9421.0107" x2="2039.0104" y2="9376.792" gradientTransform="matrix(-0.9999 -1.758673e-02 1.758673e-02 -0.9999 2055.5945 9470.1816)">
		<stop  offset="0" style="stop-color:#FF1326"/>
		<stop  offset="1" style="stop-color:#F00830"/>
	</linearGradient>
	<polygon class="st0" points="158.5,59.3 169.6,46.3 202.7,32.5 202.1,63.3 158.8,67.8 	"/>
	
		<linearGradient id="SVGID_2_" gradientUnits="userSpaceOnUse" x1="2030.3074" y1="9395.9893" x2="2041.6256" y2="9371.0234" gradientTransform="matrix(-0.9999 -1.758673e-02 1.758673e-02 -0.9999 2055.5945 9470.1816)">
		<stop  offset="0" style="stop-color:#FF1326"/>
		<stop  offset="1" style="stop-color:#F00830"/>
	</linearGradient>
	<polygon class="st1" points="158.5,59.3 158.6,63.5 161.3,67.2 169.5,66.7 202.1,63.3 202.3,54.9 189.8,54.6 178.3,55.6 
		170.4,57.8 161.5,55.8 	"/>
	
		<linearGradient id="SVGID_3_" gradientUnits="userSpaceOnUse" x1="2022.7625" y1="9408.6289" x2="2022.7625" y2="9390.2471" gradientTransform="matrix(-0.9999 -1.758673e-02 1.758673e-02 -0.9999 2055.5945 9470.1816)">
		<stop  offset="3.296700e-02" style="stop-color:#FFFFFF"/>
		<stop  offset="1" style="stop-color:#F6F1D5"/>
	</linearGradient>
	<polygon class="st2" points="199.4,33.8 197.3,34.7 196.9,61 198.9,61 	"/>
	
		<linearGradient id="SVGID_4_" gradientUnits="userSpaceOnUse" x1="2037.3669" y1="9377.3525" x2="2025.0647" y2="9297.2578" gradientTransform="matrix(-0.9999 -1.758673e-02 1.758673e-02 -0.9999 2055.5945 9470.1816)">
		<stop  offset="0" style="stop-color:#FF1326"/>
		<stop  offset="1" style="stop-color:#F00830"/>
	</linearGradient>
	<polygon class="st3" points="158.5,77.3 163.1,77.1 169.5,82.4 181.1,99 191.4,109.7 202.6,91.5 211.2,60.8 189.8,54.6 158.7,62.7 
			"/>
	
		<linearGradient id="SVGID_5_" gradientUnits="userSpaceOnUse" x1="2013.561" y1="9373.877" x2="2036.1434" y2="9369.5781" gradientTransform="matrix(-0.9999 -1.758673e-02 1.758673e-02 -0.9999 2055.5945 9470.1816)">
		<stop  offset="0" style="stop-color:#FF1326"/>
		<stop  offset="1" style="stop-color:#F00830"/>
	</linearGradient>
	<polygon class="st4" points="163.1,77.1 173.1,71.3 177.5,71.9 184.5,68.2 196.6,62.7 205.5,62 197.3,61.1 191.6,63.3 189.6,62.2 
		181.8,67 172.5,66.7 164.8,65.3 162.9,61.6 160.3,70.7 159.8,77.2 	"/>
	
		<linearGradient id="SVGID_6_" gradientUnits="userSpaceOnUse" x1="2060.7908" y1="9372.1201" x2="2057.3408" y2="9349.6582" gradientTransform="matrix(-0.9999 -1.758673e-02 1.758673e-02 -0.9999 2055.5945 9470.1816)">
		<stop  offset="0" style="stop-color:#FF1326"/>
		<stop  offset="1" style="stop-color:#F00830"/>
	</linearGradient>
	<polygon class="st5" points="158.6,67.5 158.5,77.3 163.1,77.1 163.8,69.9 162.9,61.6 162.5,61.7 	"/>
	
		<linearGradient id="SVGID_7_" gradientUnits="userSpaceOnUse" x1="2201.0002" y1="9368.1416" x2="2198.3411" y2="9350.8291" gradientTransform="matrix(-0.9999 -1.758673e-02 1.758673e-02 -0.9999 2055.5945 9470.1816)">
		<stop  offset="0" style="stop-color:#FF1326"/>
		<stop  offset="1" style="stop-color:#F00830"/>
	</linearGradient>
	<polygon class="st6" points="20,75.6 19,73.8 19.6,69.9 18.7,66.3 21.2,63.4 22.6,73.4 	"/>
	
		<linearGradient id="SVGID_8_" gradientUnits="userSpaceOnUse" x1="2205.8818" y1="9389.0312" x2="2186.1221" y2="9341.9893" gradientTransform="matrix(-0.9999 -1.758673e-02 1.758673e-02 -0.9999 2055.5945 9470.1816)">
		<stop  offset="3.296700e-02" style="stop-color:#FFFFFF"/>
		<stop  offset="1" style="stop-color:#F6F1D5"/>
	</linearGradient>
	<polygon class="st7" points="24.6,80.7 20,75.6 20.4,69.5 18.7,66.3 17.3,56.7 18,47.9 16.4,41.1 18.9,33.1 32.8,68.2 25,80.6 	"/>
	
		<linearGradient id="SVGID_9_" gradientUnits="userSpaceOnUse" x1="2183.7815" y1="9353.7363" x2="2181.0723" y2="9311.2891" gradientTransform="matrix(-0.9999 -1.758673e-02 1.758673e-02 -0.9999 2055.5945 9470.1816)">
		<stop  offset="0" style="stop-color:#FFFFFF"/>
		<stop  offset="1" style="stop-color:#F6F1D5"/>
	</linearGradient>
	<path class="st8" d="M43.2,110c0,0-0.6,1-2.5,0c-1.8-0.9-3.3-2.1-5.3-3c-2.1-0.9-3-1.6-3-1.6l8.9-4.6L43.2,110z"/>
	
		<linearGradient id="SVGID_10_" gradientUnits="userSpaceOnUse" x1="2244.7617" y1="9346.9561" x2="2155.9475" y2="9378.6758" gradientTransform="matrix(-0.9999 -1.758673e-02 1.758673e-02 -0.9999 2055.5945 9470.1816)">
		<stop  offset="0" style="stop-color:#FF1326"/>
		<stop  offset="1" style="stop-color:#F00830"/>
	</linearGradient>
	<path class="st9" d="M31.9,105.7l-1-14.5c0,0-0.8-2.3-1.5-4.5c-1.5-1.6-2.7-3.7-4.8-6c-0.4-3.6-0.8-10.1-1.4-14.5
		c-1.8-5.3-7-19.6-7-19.6l2.1-3.6c0,0,0.4-2.2-0.3-4.5c-0.8-2.3,1.4-9,1.4-9s18.3,1.2,27.9,7.3C57,42.9,65,50.7,65,50.7
		s0.9,19-9.5,31C45.1,93.7,31.9,105.7,31.9,105.7z"/>
	
		<linearGradient id="SVGID_11_" gradientUnits="userSpaceOnUse" x1="2188.6396" y1="9314.9141" x2="2164.9749" y2="9358.7383" gradientTransform="matrix(-0.9999 -1.758673e-02 1.758673e-02 -0.9999 2055.5945 9470.1816)">
		<stop  offset="0.3516" style="stop-color:#FF1326"/>
		<stop  offset="0.8132" style="stop-color:#FB002C"/>
		<stop  offset="1" style="stop-color:#F00830"/>
	</linearGradient>
	<path class="st10" d="M63.6,63.8c0,0-1.5,16.2-9.4,24.7c-7.9,8.5-10.4,21.1-11,21.5c-1.6-2.8-11.3-4.3-11.3-4.3s1.3-5.9,2.6-8.5
		C35.8,94.5,54.3,79.4,63.6,63.8z"/>
	
		<linearGradient id="SVGID_12_" gradientUnits="userSpaceOnUse" x1="2232.2336" y1="9361.6865" x2="2167.5269" y2="9384.7959" gradientTransform="matrix(-0.9999 -1.758673e-02 1.758673e-02 -0.9999 2055.5945 9470.1816)">
		<stop  offset="0" style="stop-color:#FFFFFF"/>
		<stop  offset="1" style="stop-color:#FD3A4A"/>
	</linearGradient>
	<path class="st11" d="M29.5,65.1l16.9-5.6l10.9,1.2l0.5-2.9l-9.4-9.2l-25.5-0.9l-6.5-1c0,0,5.1,14.2,7,19.6L29.5,65.1z"/>
	
		<linearGradient id="SVGID_13_" gradientUnits="userSpaceOnUse" x1="2190.5881" y1="9313.1562" x2="2168.9675" y2="9347.2256" gradientTransform="matrix(-0.9999 -1.758673e-02 1.758673e-02 -0.9999 2055.5945 9470.1816)">
		<stop  offset="0.3516" style="stop-color:#FFFFFF"/>
		<stop  offset="1" style="stop-color:#FD3A4A"/>
	</linearGradient>
	<polygon class="st12" points="34.2,101.9 33.9,104.4 41.5,106.2 42.9,107.8 45.2,97.9 52.5,85.3 36.3,99.9 	"/>
	
		<linearGradient id="SVGID_14_" gradientUnits="userSpaceOnUse" x1="2161.7388" y1="9307.2803" x2="2210.595" y2="9409.4551" gradientTransform="matrix(-0.9999 -1.758673e-02 1.758673e-02 -0.9999 2055.5945 9470.1816)">
		<stop  offset="3.296700e-02" style="stop-color:#FFFFFF"/>
		<stop  offset="1" style="stop-color:#F6F1D5"/>
	</linearGradient>
	<path class="st13" d="M27,66l0.6,12.8l5.5,4.1l1.6,5.1l-0.5,13.8l0.9,0.1c0,0,0.8,0.1,2,0.4c1.1,0.3,2.6,0.7,3.7,1.2
		c1,0.5,2,1.2,2.7,1.8c0.6,0.5,0.9,0.9,1,1c0.2-0.7,0.5-1.4,0.8-2.3c-0.7-0.7-2-1.8-3.6-2.5c-1.8-0.9-4.1-1.4-5.3-1.6l0.4-12.2
		l-1.9-6.2l-5.2-3.9L29,65.5l-6.3-17.8l1.4-3.5l0-0.3c0,0,0-2.1-0.1-3.5c0-0.1,0-0.3,0-0.4c0-1.8,1.1-4.3,1.9-6.8
		c0.3-0.9,0.6-2,1-2.9c-0.7-0.1-1.4-0.2-2.1-0.3c-0.3,0.8-0.5,1.6-0.8,2.4c-0.8,2.3-2,4.9-2,7.5c0,0.2,0,0.4,0,0.6
		c0.1,1,0.1,2.5,0.1,3.1l-1.6,3.9L27,66z"/>
	
		<linearGradient id="SVGID_15_" gradientUnits="userSpaceOnUse" x1="2235.0017" y1="9338.7236" x2="2156.3289" y2="9366.8213" gradientTransform="matrix(-0.9999 -1.758673e-02 1.758673e-02 -0.9999 2055.5945 9470.1816)">
		<stop  offset="0" style="stop-color:#FF1326"/>
		<stop  offset="1" style="stop-color:#F00830"/>
	</linearGradient>
	<polygon class="st14" points="64.7,64 55.8,70.9 45,73.3 29.4,86.7 24.6,80.7 30.5,81.5 44.2,72.5 54.8,70.3 56.3,65 52.7,65.2 
		49.7,62.5 54.4,63.4 58.9,62 64.3,62.7 	"/>
	
		<linearGradient id="SVGID_16_" gradientUnits="userSpaceOnUse" x1="2215.2654" y1="9334.9062" x2="2163.5869" y2="9353.3623" gradientTransform="matrix(-0.9999 -1.758673e-02 1.758673e-02 -0.9999 2055.5945 9470.1816)">
		<stop  offset="0" style="stop-color:#FF1326"/>
		<stop  offset="1" style="stop-color:#F00830"/>
	</linearGradient>
	<polygon class="st15" points="33.2,96.5 36,90.2 45.5,81 54.9,71.6 45.6,74.4 32,86.4 	"/>
	
		<linearGradient id="SVGID_17_" gradientUnits="userSpaceOnUse" x1="2236.1562" y1="9365.4434" x2="2161.0532" y2="9392.2656" gradientTransform="matrix(-0.9999 -1.758673e-02 1.758673e-02 -0.9999 2055.5945 9470.1816)">
		<stop  offset="0" style="stop-color:#FF1326"/>
		<stop  offset="1" style="stop-color:#F00830"/>
	</linearGradient>
	<path class="st16" d="M18,38.6c0.8,2.3,0.3,4.5,0.3,4.5l-0.1,0.1l3.8,0.6l2,0.4l25.1,2l15.4,12.5c0.3-2.8,0.4-5.1,0.4-6.5l-6.5-4.1
		L54.4,47l-4.1-5.8l-10.2,0.7L32,40.3L24.4,39L18,35.3C17.8,36.6,17.8,37.8,18,38.6z"/>
	<g>
		
			<radialGradient id="SVGID_18_" cx="-7563.5742" cy="2437.8018" r="91.8567" gradientTransform="matrix(-1.758673e-02 0.9999 -0.8998 -1.587607e-02 2199.6702 7707.8501)" gradientUnits="userSpaceOnUse">
			<stop  offset="0.3516" style="stop-color:#FF1326"/>
			<stop  offset="0.8132" style="stop-color:#FB002C"/>
			<stop  offset="1" style="stop-color:#F00830"/>
		</radialGradient>
		<path class="st17" d="M160.6,76.8c-0.5,1.3-1.1,2.3-1.5,2.9c-5.1,7-9.2,12.3-14.7,16.2c-6.8,4.9-11.9,8.6-32.2,8.1
			c-16.1-0.4-29.1-4.2-39.5-15.5c-6.6-7.1-8.2-12.9-10-20.5c-0.2-0.7-0.2-1.5-0.1-2.4c0-0.4,0.2-2.1,0.4-3.2c0.2-1.1,0.4-2.1,0.5-3
			c1.2-7.2-1.5-11.2,5.8-18c10.6-9.9,25.8-20.8,44.4-20.5c12.5,0.2,25.3,4.5,32.8,13.7c9.4,11.5,16.9,20.9,16.6,29.2
			C162.9,68.2,161.8,73.4,160.6,76.8z"/>
	</g>
	
		<radialGradient id="SVGID_19_" cx="2361.6169" cy="9334.8633" r="105.1458" gradientTransform="matrix(-0.8998 -1.587607e-02 1.758673e-02 -0.9999 2032.1364 9469.3389)" gradientUnits="userSpaceOnUse">
		<stop  offset="0" style="stop-color:#FFFAFB"/>
		<stop  offset="1" style="stop-color:#FEB1B8"/>
	</radialGradient>
	<path class="st18" d="M160.6,76.8L147,85.6c0,0-8.2,1.7-10.7,4.8c-2.5,3.1-11.5,3.9-13.9,4.3c-2.4,0.4-5.3,2.6-9,3
		c-3.7,0.4-16.2-3.9-16.2-3.9l15.5-0.2l-3.6-2.8l-6.8-3.7L99,85.6l10.7-4.8l12.2,2l11.1-5.7L160.6,76.8z"/>
	
		<linearGradient id="SVGID_20_" gradientUnits="userSpaceOnUse" x1="2113.8552" y1="9339.3535" x2="2075.7546" y2="9361.1855" gradientTransform="matrix(-0.9999 -1.758673e-02 1.758673e-02 -0.9999 2055.5945 9470.1816)">
		<stop  offset="0" style="stop-color:#FFFFFF"/>
		<stop  offset="1" style="stop-color:#FD3A4A"/>
	</linearGradient>
	<polygon class="st19" points="144.4,79.1 134,79 127.6,83.9 123.3,86.1 114,85.8 110.4,86.5 116,89.3 115.2,91.5 113.9,92.4 
		116.9,91.8 120.9,88.6 130.8,86.7 135.5,81.8 	"/>
	<g class="st20">
		
			<radialGradient id="SVGID_21_" cx="-7546.501" cy="2467.3403" r="94.8061" gradientTransform="matrix(-1.758673e-02 0.9999 -0.8998 -1.587607e-02 2199.6702 7707.8501)" gradientUnits="userSpaceOnUse">
			<stop  offset="0.3516" style="stop-color:#FFFFFF"/>
			<stop  offset="1" style="stop-color:#000000"/>
		</radialGradient>
		<path class="st21" d="M160.6,76.8c-5.2,6.3-14.3,12.3-19.3,15.9c-6.1,4.4-10.8,7.8-29.1,7.3C97.8,99.7,86,96.2,76.6,86
			c-5.9-6.4-8.3-11.7-11.8-19.6c-1-2.3-1-5-0.6-7.5c1.1-6.5,2.7-9.2,9.2-15.4c9.6-8.9,23.3-18.8,40.1-18.5
			c11.3,0.2,22.9,4.1,29.6,12.4c8.4,10.4,16,18.6,17.5,25.9C162,69.5,161.1,73.7,160.6,76.8z"/>
	</g>
	
		<linearGradient id="SVGID_22_" gradientUnits="userSpaceOnUse" x1="2108.021" y1="9327.8184" x2="2055.074" y2="9358.1582" gradientTransform="matrix(-0.9999 -1.758673e-02 1.758673e-02 -0.9999 2055.5945 9470.1816)">
		<stop  offset="0" style="stop-color:#FFFFFF"/>
		<stop  offset="1" style="stop-color:#FD3A4A"/>
	</linearGradient>
	<polygon class="st22" points="160.6,76.8 151.4,87.9 143.4,93.2 141.1,95.4 135.6,98 127,101.5 120.3,99.8 125,98.1 121.4,95.4 
		126.5,96.5 131.8,96.4 137.8,89.2 142.6,89.8 148.6,86.5 	"/>
	
		<linearGradient id="SVGID_23_" gradientUnits="userSpaceOnUse" x1="2124.677" y1="9341.9805" x2="2149.4761" y2="9362.251" gradientTransform="matrix(-0.9999 -1.758673e-02 1.758673e-02 -0.9999 2055.5945 9470.1816)">
		<stop  offset="0" style="stop-color:#FF1326"/>
		<stop  offset="1" style="stop-color:#F00830"/>
	</linearGradient>
	<path class="st23" d="M62.5,65.7l8.8,8l9.5,11.2l9.2,2.9l-7.8-5.9l-0.7-5.7l-6.4-7l-12.2-6.5C62.8,63.1,62.6,65,62.5,65.7z"/>
	
		<linearGradient id="SVGID_24_" gradientUnits="userSpaceOnUse" x1="2186.4436" y1="9340.8789" x2="2073.4612" y2="9381.2295" gradientTransform="matrix(-0.9999 -1.758673e-02 1.758673e-02 -0.9999 2055.5945 9470.1816)">
		<stop  offset="0" style="stop-color:#FF1326"/>
		<stop  offset="1" style="stop-color:#F00830"/>
	</linearGradient>
	<path class="st24" d="M136.3,94c0,0,13.1-4.3,15.2-22.3c2.4-20.5-11-34.1-25.6-38.7c-14.6-4.6-26.8-1.2-32.2,1.9
		C88.4,38,80,43,80,43s47.4-10.2,59.6,21.8C147,84.1,136.3,94,136.3,94z"/>
	
		<linearGradient id="SVGID_25_" gradientUnits="userSpaceOnUse" x1="2143.5371" y1="9357.8682" x2="2154.3247" y2="9366.6855" gradientTransform="matrix(-0.9999 -1.758673e-02 1.758673e-02 -0.9999 2055.5945 9470.1816)">
		<stop  offset="0" style="stop-color:#FF1326"/>
		<stop  offset="1" style="stop-color:#F00830"/>
	</linearGradient>
	<polygon class="st25" points="62.5,65.7 66.2,68.3 71,70.7 74.1,74.1 72.4,69.4 66.8,66.2 62.9,62.5 	"/>
	
		<linearGradient id="SVGID_26_" gradientUnits="userSpaceOnUse" x1="2581.3916" y1="9251.7402" x2="2610.1335" y2="9281.6211" gradientTransform="matrix(-0.9975 -7.031764e-02 7.031764e-02 -0.9975 2011.3713 9508.1934)">
		<stop  offset="0" style="stop-color:#FFFFFF"/>
		<stop  offset="1" style="stop-color:#FD3A4A"/>
	</linearGradient>
	<polygon class="st26" points="67.4,72.8 77.6,82.3 79.6,88.9 87.8,94.6 77.9,92.2 72.9,84.1 	"/>
	
		<radialGradient id="SVGID_27_" cx="2371.8606" cy="9400.4033" r="95.3629" gradientTransform="matrix(-0.8998 -1.587607e-02 1.758673e-02 -0.9999 2032.1364 9469.3389)" gradientUnits="userSpaceOnUse">
		<stop  offset="0" style="stop-color:#FF1326"/>
		<stop  offset="1" style="stop-color:#F00830"/>
	</radialGradient>
	<path class="st27" d="M109.3,30.7l-11.5-2l-4,1.7l5-0.1l9.5,2l6.3,3.9l17.9,0.8l12.4,13.2l3.1,9.1l7.5,3.7l6.6,7.8
		c0.4-2.3,0.8-4.7,0.9-6.8c0-0.8,0-1.6-0.1-2.4l0,0l-7.4-5.4l-4.2-6.9L137.8,36L109.3,30.7z"/>
	
		<radialGradient id="SVGID_28_" cx="2349.2966" cy="9409.4043" r="50.6962" gradientTransform="matrix(-0.8998 -1.587607e-02 1.758673e-02 -0.9999 2032.1364 9469.3389)" gradientUnits="userSpaceOnUse">
		<stop  offset="0" style="stop-color:#FF1326"/>
		<stop  offset="1" style="stop-color:#F00830"/>
	</radialGradient>
	<polygon class="st28" points="137.2,34.3 128.4,25.1 106.7,22.8 100.1,24.8 107.8,24.6 118.7,26.3 120.9,28.8 127.1,28.3 	"/>
	
		<linearGradient id="SVGID_29_" gradientUnits="userSpaceOnUse" x1="2144.0181" y1="9384.9941" x2="2061.5881" y2="9396.7119" gradientTransform="matrix(-0.9999 -1.758673e-02 1.758673e-02 -0.9999 2055.5945 9470.1816)">
		<stop  offset="0" style="stop-color:#FFFFFF"/>
		<stop  offset="1" style="stop-color:#FD3A4A"/>
	</linearGradient>
	<polygon class="st29" points="142.6,50.2 130.9,38.7 115.4,36.8 107.5,34.4 111.6,39.2 127.7,47.7 	"/>
	
		<linearGradient id="SVGID_30_" gradientUnits="userSpaceOnUse" x1="2163.6323" y1="9381.9082" x2="2127.5144" y2="9387.042" gradientTransform="matrix(-0.9999 -1.758673e-02 1.758673e-02 -0.9999 2055.5945 9470.1816)">
		<stop  offset="0" style="stop-color:#FFFFFF"/>
		<stop  offset="1" style="stop-color:#FD3A4A"/>
	</linearGradient>
	<polygon class="st30" points="71.5,52.3 74.7,47.8 78.7,45.4 85.1,44.6 79.4,50.9 	"/>
	
		<linearGradient id="SVGID_31_" gradientUnits="userSpaceOnUse" x1="2033.5856" y1="9335.042" x2="2057.3569" y2="9365.7285" gradientTransform="matrix(-0.9999 -1.758673e-02 1.758673e-02 -0.9999 2055.5945 9470.1816)">
		<stop  offset="3.296700e-02" style="stop-color:#FFFFFF"/>
		<stop  offset="1" style="stop-color:#F6F1D5"/>
	</linearGradient>
	<polygon class="st31" points="165.3,77.3 169.7,80.6 180.7,96.3 185.3,100.3 181.6,92.5 174.2,78.7 170.6,74.9 	"/>
	
		<linearGradient id="SVGID_32_" gradientUnits="userSpaceOnUse" x1="1985.9966" y1="9319.9697" x2="2067.1475" y2="9367.7705" gradientTransform="matrix(-0.9999 -1.758673e-02 1.758673e-02 -0.9999 2055.5945 9470.1816)">
		<stop  offset="6.043960e-02" style="stop-color:#FFFFFF"/>
		<stop  offset="0.8681" style="stop-color:#FD3A4A"/>
	</linearGradient>
	<polygon class="st32" points="179.3,75.2 173.2,75.4 176.8,79.6 185.9,96.2 193.2,106.8 202.4,91.9 196.7,89.9 186,71.4 	"/>
	
		<linearGradient id="SVGID_33_" gradientUnits="userSpaceOnUse" x1="2004.1399" y1="9360.0244" x2="2028.9133" y2="9366.6504" gradientTransform="matrix(-0.9999 -1.758673e-02 1.758673e-02 -0.9999 2055.5945 9470.1816)">
		<stop  offset="0" style="stop-color:#FFFFFF"/>
		<stop  offset="1" style="stop-color:#FD3A4A"/>
	</linearGradient>
	<polygon class="st33" points="199.7,74.6 206.4,77.8 208.9,69 204.8,67.6 198.2,66.3 191.3,69.6 194.6,70.5 	"/>
	
		<linearGradient id="SVGID_34_" gradientUnits="userSpaceOnUse" x1="2032.9196" y1="9327.4072" x2="2009.7694" y2="9381.1279" gradientTransform="matrix(-0.9999 -1.758673e-02 1.758673e-02 -0.9999 2055.5945 9470.1816)">
		<stop  offset="3.296700e-02" style="stop-color:#FFFFFF"/>
		<stop  offset="1" style="stop-color:#F6F1D5"/>
	</linearGradient>
	<polygon class="st34" points="188.6,106.8 198.6,90.9 206.9,59.6 205,59 196.7,89.9 187.1,105.2 	"/>
	
		<linearGradient id="SVGID_35_" gradientUnits="userSpaceOnUse" x1="2024.0677" y1="9415.1143" x2="2034.8375" y2="9391.3574" gradientTransform="matrix(-0.9999 -1.758673e-02 1.758673e-02 -0.9999 2055.5945 9470.1816)">
		<stop  offset="0" style="stop-color:#FF1326"/>
		<stop  offset="1" style="stop-color:#F00830"/>
	</linearGradient>
	<polygon class="st35" points="191.9,44 202.5,41.6 202.7,32.5 169.6,46.3 179.2,51.5 	"/>
	
		<linearGradient id="SVGID_36_" gradientUnits="userSpaceOnUse" x1="2020.7683" y1="9329.626" x2="2048.5115" y2="9362.8281" gradientTransform="matrix(-0.9999 -1.758673e-02 1.758673e-02 -0.9999 2055.5945 9470.1816)">
		<stop  offset="6.043960e-02" style="stop-color:#FFFFFF"/>
		<stop  offset="0.8681" style="stop-color:#FD3A4A"/>
	</linearGradient>
	<polygon class="st36" points="197.2,99.5 192.3,93.3 184.6,84.4 179,78.1 176.1,76.6 178.4,79.9 185.1,92.7 190.3,95.7 
		192.6,100.4 	"/>
</g>
</svg>
