<?xml version="1.0" encoding="utf-8"?>
<!-- Generator: Adobe Illustrator 22.0.0, SVG Export Plug-In . SVG Version: 6.00 Build 0)  -->
<svg version="1.1" xmlns="http://www.w3.org/2000/svg" xmlns:xlink="http://www.w3.org/1999/xlink" x="0px" y="0px"
	 viewBox="0 0 128 128" style="enable-background:new 0 0 128 128;" xml:space="preserve">
<style type="text/css">
	.st0{fill:#F96E10;}
</style>
<g id="图层_2">
	<path class="st0" d="M51.4,14C24.1,14,2,36.1,2,63.4c0,8.2,2,15.9,5.5,22.6c1-2.4,3.4-4.1,6.2-4.1c3.8,0,6.8,3,6.8,6.8
		c0,3.7-3,6.7-6.7,6.8c9.1,10.6,22.5,17.3,37.5,17.3c27.3,0,49.4-22.1,49.4-49.4C100.8,36.1,78.7,14,51.4,14z M46.5,84.4
		c-18.4,0-33.4-14.9-33.4-33.4s14.9-33.4,33.4-33.4s33.4,14.9,33.4,33.4S64.9,84.4,46.5,84.4z"/>
	<path class="st0" d="M67.3,16.6c0,0,13.8-6.3,20-0.1c0,0-5.1,5.9-10,4.8L67.3,16.6z"/>
	<path class="st0" d="M96.4,43c0,0,1.9,0.6,4.4-1.9s6.2-6.2,9.9-7.4c3.7-1.2,8.6-2.5,13.6,0c0,0-4.9,9.9-8.6,11.1
		c-3.7,1.2-8.6,3.7-9.9,4.9c-1.2,1.2,18.5,1.2,22.2,13.6c0,0-9.9,3.7-24.7-3.7c0,0-2.5-1.9-2.5,0.9"/>
</g>
<g id="图层_3">
	<path d="M47.1,22.7c-12.6,0-22.9,10.2-22.9,22.9c0,12.6,10.2,22.9,22.9,22.9s22.9-10.2,22.9-22.9C69.9,32.9,59.7,22.7,47.1,22.7z
		 M55.7,38.7c-2.4,0-4.3-1.9-4.3-4.3s1.9-4.3,4.3-4.3s4.3,1.9,4.3,4.3S58.1,38.7,55.7,38.7z"/>
</g>
</svg>
