<?xml version="1.0" encoding="utf-8"?>
<!-- Generator: Adobe Illustrator 22.0.0, SVG Export Plug-In . SVG Version: 6.00 Build 0)  -->
<svg version="1.1" id="图层_1" xmlns="http://www.w3.org/2000/svg" xmlns:xlink="http://www.w3.org/1999/xlink" x="0px" y="0px"
	 viewBox="0 0 128 128" style="enable-background:new 0 0 128 128;" xml:space="preserve">
<style type="text/css">
	.st0{opacity:0.22;}
	.st1{opacity:0.77;}
	.st2{fill:#BF6B00;}
	.st3{fill:#FFCB1B;}
	.st4{fill:#FFE094;}
	.st5{fill:#EAECEC;}
	.st6{fill:#AD542E;}
</style>
<g>
	<path class="st0" d="M121.8,47.4l-5-2.1c-1.8-0.8-18-7.4-30.6-7.4H86c-4-11.7-15.6-24.2-17-25.6l-3.7-3.9C65,8,64.5,7.8,63.9,7.8h0
		c-0.6,0-1.1,0.2-1.5,0.6l-3.7,3.9c-2.2,2.3-13,14.2-16.9,25.5c-0.1,0-0.1,0-0.2,0c-12.9,0-29.8,7-30.5,7.3l-5,2.1
		c-0.7,0.3-1.2,1-1.2,1.9v8c0,0.4,0.1,0.7,0.3,1l2.7,4.5c1.5,2.5,9.1,14.8,18.5,22.1c-0.5,2.9-0.8,6.1-0.9,9.5c0,0.5,0,1,0,1.7v0.4
		c0,0.6,0,1.2,0,1.7l0,2.7c0,2,0,3.8,0,3.9c0,5.6,0.4,10,0.6,11.2l0.6,5.1c0.1,0.6,0.4,1.1,0.8,1.4c0.3,0.3,0.8,0.4,1.2,0.4
		c0.1,0,0.3,0,0.4,0l5.3-1.1c3.3-0.6,19.5-4.1,29.6-11.1c10.1,7,26.3,10.4,29.5,11.1l5.3,1.1c0.6,0.1,1.1,0,1.6-0.3
		c0.5-0.3,0.7-0.8,0.8-1.4l0.6-5.1c0.1-1.2,0.6-5.5,0.6-11c0-0.2,0-7.4,0-7.5c0-4.6-0.3-8.9-0.9-12.6c9.7-7.5,17.7-20.5,18.6-22
		l2.7-4.5c0.2-0.3,0.3-0.7,0.3-1v-8C123,48.4,122.5,47.7,121.8,47.4z"/>
	<path class="st1" d="M116,44.7c-0.7-0.3-17.3-7.2-29.9-7.2c-0.5,0-1,0-1.6,0c-3.3-11.6-15.4-24.6-17-26.3l-3.7-3.9l-3.7,3.9
		C58.7,13,46.6,26,43.3,37.5c-0.5,0-1.1,0-1.7,0c-12.6,0-29.1,6.9-29.8,7.2l-5,2.1v8l2.7,4.5c1.1,1.8,9.3,15.2,19,22.3
		c-0.7,3.5-1,7.1-1.1,10.5c0,0.5,0,1,0,1.6c0,0,0,0.2,0,0.5c0,0.6,0,1.1,0,1.7c0,2.6,0,6.6,0,6.7c0,5.5,0.4,10,0.6,11l0.6,5.1l5.3-1
		c2.3-0.5,20.2-4.2,30-11.6c9.8,7.4,27.6,11.1,29.9,11.6l5.3,1.1l0.6-5.1c0.1-1,0.6-5.3,0.6-10.7c0-0.1,0-7.4,0-7.5c0,0,0,0,0,0
		c0-4.1-0.2-8.9-1.1-13.5c9.7-7,18-20.4,19.1-22.2l2.7-4.5v-8L116,44.7z"/>
	<g>
		<path class="st2" d="M116,50.4c-0.7-0.3-17.3-7.2-29.9-7.2c-0.5,0-1,0-1.6,0c-3.3-11.6-15.4-24.6-17-26.3L63.9,13l-3.7,3.9
			c-1.6,1.7-13.6,14.7-16.9,26.2c-0.5,0-1.1,0-1.7,0c-12.6,0-29.1,6.9-29.8,7.2l-5-5.9v8l2.7,4.5c1.2,1.9,10.4,17,20.9,23.6
			c-2.3,5.7-3,6.3-3,10.7c0,0.2,0,8.6,0,8.8c0,5.5,0.4,10,0.6,11l0.6,5.1l5.3-1c2.3-0.5,20.2-4.2,30-11.6
			c9.8,7.4,27.6,11.1,29.9,11.6l5.3,1.1l0.6-5.1c0.1-1,0.6-5.3,0.6-10.7c0-0.1,0-7.4,0-7.5c0-4.7-0.7-6.4-3-12.2
			c10.6-6.6,19.8-21.5,21-23.5l2.7-4.5v-8L116,50.4z"/>
		<path class="st3" d="M116,42.3c-0.7-0.3-17.3-7.2-29.9-7.2c-0.5,0-1,0-1.6,0c-3.3-11.6-15.4-24.6-17-26.3L63.9,5l-3.7,3.9
			C58.7,10.5,46.6,23.6,43.3,35c-0.5,0-1.1,0-1.7,0c-12.6,0-29.1,6.9-29.8,7.2l-5,2.1l2.7,4.5c1.2,1.9,10.4,17,20.9,23.6
			c-4.5,11.2-2.7,28.3-2.5,30.5l0.6,5.1l5.3-1c2.3-0.5,20.2-4.2,30-11.6c9.8,7.4,27.6,11.1,29.9,11.6l5.3,1.1l0.6-5.1
			c0.3-2.2,2-19.3-2.4-30.5c10.6-6.6,19.8-21.5,21-23.5l2.7-4.5L116,42.3z"/>
		<path class="st4" d="M116.3,45.9l-1.6-0.7c-0.7-0.3-16.8-7-28.6-7c-0.5,0-0.9,0-1.4,0l-2.5,0.1L81.5,36
			c-3.1-10.9-14.9-23.5-16.2-24.9l-1.3-1.4l-1.3,1.4c-1.3,1.4-13.1,14.1-16.2,24.8l-0.7,2.4l-2.5-0.1c-0.5,0-1,0-1.5,0
			c-11.9,0-27.8,6.6-28.5,6.9l-1.6,0.7l0.8,1.3c1,1.6,9.9,16.3,19.8,22.5l2.3,1.4l-1,2.5c-4.2,10.5-2.5,27.1-2.3,29l0.2,1.7l1.9-0.4
			c2-0.4,19.4-4,28.7-11l1.9-1.5l1.9,1.5c9.3,7,26.6,10.6,28.6,11l1.9,0.4l0.2-1.7c0.2-1.9,2-18.4-2.2-28.9l-1-2.5l2.3-1.4
			c10-6.2,18.9-20.8,19.9-22.4L116.3,45.9z"/>
		<polygon class="st5" points="63.9,18.7 69,55.5 107.3,48.7 72.1,64.6 90.8,97.1 63.9,70.2 37.1,97.1 55.8,64.6 20.5,48.7 
			58.9,55.5 		"/>
		<path class="st6" d="M77.9,57.6c-0.2-0.5-3.8-1.2-5.6-0.6c-1.6,0.5-2.3,1.9-1.9,3.1c0.4,1.2,1.9,1.8,3.5,1.3
			C75.6,60.8,78,58.1,77.9,57.6z M67.8,67.1c-1.1,0.8-1.3,2.3-0.3,3.5c1.1,1.4,4.6,2.8,5,2.5c0.4-0.3,0-3.8-1.1-5.3
			C70.4,66.6,68.9,66.3,67.8,67.1z M60.1,67.1c-1.1-0.8-2.6-0.5-3.6,0.8c-1.1,1.5-1.5,5-1.1,5.3c0.4,0.3,3.9-1.1,5-2.5
			C61.4,69.4,61.2,67.9,60.1,67.1z M57.7,60.1c0.4-1.2-0.3-2.5-1.9-3.1c-1.8-0.6-5.5,0.1-5.6,0.6c-0.2,0.4,2.3,3.2,4.1,3.8
			C55.8,61.9,57.2,61.3,57.7,60.1z M63.9,48c-0.5,0-2.4,3-2.4,4.9c0,1.6,1.1,2.7,2.4,2.7c1.3,0,2.4-1.1,2.4-2.7
			C66.4,51.1,64.4,48,63.9,48z"/>
	</g>
</g>
</svg>
